M48
; DRILL file {KiCad 7.0.9} date Wed Jan 24 13:05:53 2024
; FORMAT={-:-/ absolute / inch / decimal}
; #@! TF.CreationDate,2024-01-24T13:05:53-05:00
; #@! TF.GenerationSoftware,Kicad,Pcbnew,7.0.9
; #@! TF.FileFunction,Plated,1,2,PTH
FMAT,2
INCH
; #@! TA.AperFunction,Plated,PTH,ComponentDrill
T1C0.0315
; #@! TA.AperFunction,Plated,PTH,ComponentDrill
T2C0.0394
; #@! TA.AperFunction,Plated,PTH,ComponentDrill
T3C0.0472
; #@! TA.AperFunction,Plated,PTH,ComponentDrill
T4C0.0512
; #@! TA.AperFunction,Plated,PTH,ComponentDrill
T5C0.0598
%
G90
G05
T1
X2.1004Y-1.5256
X2.1004Y-1.7346
X2.1004Y-1.9256
X2.1004Y-2.5256
X2.5004Y-1.5256
X2.5004Y-1.7346
X2.5004Y-1.9256
X2.5004Y-2.5256
X4.3264Y-1.6839
X4.3264Y-1.7839
X4.3264Y-1.8839
X4.3264Y-2.2839
X4.3264Y-2.3839
X4.3264Y-2.4839
X4.6264Y-1.6839
X4.6264Y-1.7839
X4.6264Y-1.8839
X4.6264Y-2.2839
X4.6264Y-2.3839
X4.6264Y-2.4839
X4.776Y-1.8833
X4.776Y-2.2833
X4.776Y-2.4833
X4.776Y-2.8833
T2
X2.5504Y-2.3256
X2.5504Y-2.7256
X2.6504Y-1.5256
X2.6504Y-1.7346
X2.6504Y-1.9256
X2.6504Y-2.3256
X2.6504Y-2.5256
X2.6504Y-2.7256
X2.7504Y-1.5256
X2.7504Y-1.7346
X2.7504Y-1.9256
X2.7504Y-2.3256
X2.7504Y-2.5256
X2.7504Y-2.7256
X2.8504Y-2.7256
X2.9504Y-2.7256
X3.2008Y-1.3756
X3.2008Y-1.4756
X3.2008Y-1.5756
X3.2008Y-1.6756
X3.2008Y-1.7756
X3.2008Y-1.8756
X3.2008Y-1.9756
X3.2008Y-2.0756
X3.2008Y-2.1756
X3.2008Y-2.2756
X3.2008Y-2.3756
X3.2008Y-2.4756
X3.2008Y-2.5756
X3.2008Y-2.6756
X3.2008Y-2.7756
X3.8008Y-1.3756
X3.8008Y-1.4756
X3.8008Y-1.5756
X3.8008Y-1.6756
X3.8008Y-1.7756
X3.8008Y-1.8756
X3.8008Y-1.9756
X3.8008Y-2.0756
X3.8008Y-2.1756
X3.8008Y-2.2756
X3.8008Y-2.3756
X3.8008Y-2.4756
X3.8008Y-2.5756
X3.8008Y-2.6756
X3.8008Y-2.7756
T3
X4.03Y-1.62
X4.03Y-2.22
X4.16Y-2.34
X4.16Y-2.94
T4
X2.44Y-1.18
X2.98Y-1.18
T5
X4.1Y-1.3756
X4.3Y-1.3756
X4.851Y-1.3333
X4.851Y-1.5333
T0
M30
