%TF.GenerationSoftware,KiCad,Pcbnew,7.0.9*%
%TF.CreationDate,2024-01-24T13:05:58-05:00*%
%TF.ProjectId,ContadorElectronico,436f6e74-6164-46f7-9245-6c656374726f,rev?*%
%TF.SameCoordinates,Original*%
%TF.FileFunction,Copper,L2,Bot*%
%TF.FilePolarity,Positive*%
%FSLAX46Y46*%
G04 Gerber Fmt 4.6, Leading zero omitted, Abs format (unit mm)*
G04 Created by KiCad (PCBNEW 7.0.9) date 2024-01-24 13:05:58*
%MOMM*%
%LPD*%
G01*
G04 APERTURE LIST*
%TA.AperFunction,ComponentPad*%
%ADD10C,2.400000*%
%TD*%
%TA.AperFunction,ComponentPad*%
%ADD11O,2.400000X2.400000*%
%TD*%
%TA.AperFunction,ComponentPad*%
%ADD12C,2.600000*%
%TD*%
%TA.AperFunction,ComponentPad*%
%ADD13R,1.700000X1.700000*%
%TD*%
%TA.AperFunction,ComponentPad*%
%ADD14O,1.700000X1.700000*%
%TD*%
%TA.AperFunction,ComponentPad*%
%ADD15C,1.600000*%
%TD*%
%TA.AperFunction,ComponentPad*%
%ADD16O,1.600000X1.600000*%
%TD*%
%TA.AperFunction,ComponentPad*%
%ADD17R,3.000000X3.000000*%
%TD*%
%TA.AperFunction,ComponentPad*%
%ADD18C,3.000000*%
%TD*%
%TA.AperFunction,ComponentPad*%
%ADD19R,1.600000X1.600000*%
%TD*%
%TA.AperFunction,Conductor*%
%ADD20C,0.800000*%
%TD*%
%TA.AperFunction,Conductor*%
%ADD21C,0.600000*%
%TD*%
G04 APERTURE END LIST*
D10*
%TO.P,R6,1*%
%TO.N,Net-(R6-Pad1)*%
X102362000Y-41148000D03*
D11*
%TO.P,R6,2*%
%TO.N,GND*%
X102362000Y-56388000D03*
%TD*%
D10*
%TO.P,R5,1*%
%TO.N,Net-(R5-Pad1)*%
X105664000Y-59436000D03*
D11*
%TO.P,R5,2*%
%TO.N,GND*%
X105664000Y-74676000D03*
%TD*%
D12*
%TO.P,J2,1,Pin_1*%
%TO.N,+5V*%
X61976000Y-29972000D03*
%TD*%
%TO.P,J1,1,Pin_1*%
%TO.N,+5V*%
X75692000Y-29972000D03*
%TD*%
D13*
%TO.P,U2,1,VCC*%
%TO.N,+5V*%
X64780000Y-69230000D03*
D14*
%TO.P,U2,2,GND*%
%TO.N,GND*%
X67320000Y-69230000D03*
%TO.P,U2,3,SDI*%
%TO.N,Net-(A1-D9)*%
X69860000Y-69230000D03*
%TO.P,U2,4,SCLK*%
%TO.N,Net-(A1-D10)*%
X72400000Y-69230000D03*
%TO.P,U2,5,LOAD*%
%TO.N,Net-(A1-D11)*%
X74940000Y-69230000D03*
%TD*%
D15*
%TO.P,R11,1*%
%TO.N,/DEC*%
X63510000Y-38750000D03*
D16*
%TO.P,R11,2*%
%TO.N,GND*%
X53350000Y-38750000D03*
%TD*%
D17*
%TO.P,J8,1,Pin_1*%
%TO.N,GND*%
X109220000Y-34940000D03*
D18*
%TO.P,J8,2,Pin_2*%
%TO.N,+5V*%
X104140000Y-34940000D03*
%TD*%
D15*
%TO.P,R12,1*%
%TO.N,Net-(D1-A)*%
X63510000Y-64150000D03*
D16*
%TO.P,R12,2*%
%TO.N,GND*%
X53350000Y-64150000D03*
%TD*%
D15*
%TO.P,R9,1*%
%TO.N,/MODE*%
X63510000Y-48910000D03*
D16*
%TO.P,R9,2*%
%TO.N,GND*%
X53350000Y-48910000D03*
%TD*%
D18*
%TO.P,J7,2,Pin_2*%
%TO.N,/RESET_IN*%
X123214415Y-33865000D03*
D17*
%TO.P,J7,1,Pin_1*%
%TO.N,/COUNT_IN*%
X123214415Y-38945000D03*
%TD*%
D15*
%TO.P,R10,1*%
%TO.N,/INC*%
X63510000Y-44060000D03*
D16*
%TO.P,R10,2*%
%TO.N,GND*%
X53350000Y-44060000D03*
%TD*%
D13*
%TO.P,U5,1,IN*%
%TO.N,/RELAY*%
X69860000Y-59070000D03*
D14*
%TO.P,U5,2,GND*%
%TO.N,GND*%
X67320000Y-59070000D03*
%TO.P,U5,3,VCC*%
%TO.N,+5V*%
X64780000Y-59070000D03*
%TD*%
D19*
%TO.P,U4,1*%
%TO.N,/RESET_IN*%
X109889415Y-42770000D03*
D16*
%TO.P,U4,2*%
%TO.N,Net-(R6-Pad1)*%
X109889415Y-45310000D03*
%TO.P,U4,3,NC*%
%TO.N,unconnected-(U4-NC-Pad3)*%
X109889415Y-47850000D03*
%TO.P,U4,4*%
%TO.N,/RESET*%
X117509415Y-47850000D03*
%TO.P,U4,5*%
%TO.N,+5V*%
X117509415Y-45310000D03*
%TO.P,U4,6*%
%TO.N,unconnected-(U4-Pad6)*%
X117509415Y-42770000D03*
%TD*%
%TO.P,U3,6*%
%TO.N,unconnected-(U3-Pad6)*%
X117509415Y-58010000D03*
%TO.P,U3,5*%
%TO.N,+5V*%
X117509415Y-60550000D03*
%TO.P,U3,4*%
%TO.N,/COUNT*%
X117509415Y-63090000D03*
%TO.P,U3,3,NC*%
%TO.N,unconnected-(U3-NC-Pad3)*%
X109889415Y-63090000D03*
%TO.P,U3,2*%
%TO.N,Net-(R5-Pad1)*%
X109889415Y-60550000D03*
D19*
%TO.P,U3,1*%
%TO.N,/COUNT_IN*%
X109889415Y-58010000D03*
%TD*%
%TO.P,A1,1,D1/TX*%
%TO.N,unconnected-(A1-D1{slash}TX-Pad1)*%
X81300000Y-34940000D03*
D16*
%TO.P,A1,2,D0/RX*%
%TO.N,unconnected-(A1-D0{slash}RX-Pad2)*%
X81300000Y-37480000D03*
%TO.P,A1,3,~{RESET}*%
%TO.N,unconnected-(A1-~{RESET}-Pad3)*%
X81300000Y-40020000D03*
%TO.P,A1,4,GND*%
%TO.N,GND*%
X81300000Y-42560000D03*
%TO.P,A1,5,D2*%
%TO.N,/RESET*%
X81300000Y-45100000D03*
%TO.P,A1,6,D3*%
%TO.N,/COUNT*%
X81300000Y-47640000D03*
%TO.P,A1,7,D4*%
%TO.N,/MODE*%
X81300000Y-50180000D03*
%TO.P,A1,8,D5*%
%TO.N,/INC*%
X81300000Y-52720000D03*
%TO.P,A1,9,D6*%
%TO.N,/DEC*%
X81300000Y-55260000D03*
%TO.P,A1,10,D7*%
%TO.N,/RELAY*%
X81300000Y-57800000D03*
%TO.P,A1,11,D8*%
%TO.N,/MODE_LED*%
X81300000Y-60340000D03*
%TO.P,A1,12,D9*%
%TO.N,Net-(A1-D9)*%
X81300000Y-62880000D03*
%TO.P,A1,13,D10*%
%TO.N,Net-(A1-D10)*%
X81300000Y-65420000D03*
%TO.P,A1,14,D11*%
%TO.N,Net-(A1-D11)*%
X81300000Y-67960000D03*
%TO.P,A1,15,D12*%
%TO.N,unconnected-(A1-D12-Pad15)*%
X81300000Y-70500000D03*
%TO.P,A1,16,D13*%
%TO.N,unconnected-(A1-D13-Pad16)*%
X96540000Y-70500000D03*
%TO.P,A1,17,3V3*%
%TO.N,unconnected-(A1-3V3-Pad17)*%
X96540000Y-67960000D03*
%TO.P,A1,18,AREF*%
%TO.N,unconnected-(A1-AREF-Pad18)*%
X96540000Y-65420000D03*
%TO.P,A1,19,A0*%
%TO.N,unconnected-(A1-A0-Pad19)*%
X96540000Y-62880000D03*
%TO.P,A1,20,A1*%
%TO.N,unconnected-(A1-A1-Pad20)*%
X96540000Y-60340000D03*
%TO.P,A1,21,A2*%
%TO.N,unconnected-(A1-A2-Pad21)*%
X96540000Y-57800000D03*
%TO.P,A1,22,A3*%
%TO.N,unconnected-(A1-A3-Pad22)*%
X96540000Y-55260000D03*
%TO.P,A1,23,A4*%
%TO.N,unconnected-(A1-A4-Pad23)*%
X96540000Y-52720000D03*
%TO.P,A1,24,A5*%
%TO.N,unconnected-(A1-A5-Pad24)*%
X96540000Y-50180000D03*
%TO.P,A1,25,A6*%
%TO.N,unconnected-(A1-A6-Pad25)*%
X96540000Y-47640000D03*
%TO.P,A1,26,A7*%
%TO.N,unconnected-(A1-A7-Pad26)*%
X96540000Y-45100000D03*
%TO.P,A1,27,+5V*%
%TO.N,+5V*%
X96540000Y-42560000D03*
%TO.P,A1,28,~{RESET}*%
%TO.N,unconnected-(A1-~{RESET}-Pad28)*%
X96540000Y-40020000D03*
%TO.P,A1,29,GND*%
%TO.N,GND*%
X96540000Y-37480000D03*
%TO.P,A1,30,VIN*%
%TO.N,unconnected-(A1-VIN-Pad30)*%
X96540000Y-34940000D03*
%TD*%
D13*
%TO.P,SW2,1,1*%
%TO.N,+5V*%
X69860000Y-44060000D03*
D14*
%TO.P,SW2,2,2*%
%TO.N,/INC*%
X67320000Y-44060000D03*
%TD*%
D13*
%TO.P,D1,1,K*%
%TO.N,/MODE_LED*%
X69860000Y-64150000D03*
D14*
%TO.P,D1,2,A*%
%TO.N,Net-(D1-A)*%
X67320000Y-64150000D03*
%TD*%
D15*
%TO.P,R8,1*%
%TO.N,/RESET*%
X121309415Y-47835000D03*
D16*
%TO.P,R8,2*%
%TO.N,GND*%
X121309415Y-57995000D03*
%TD*%
%TO.P,R7,2*%
%TO.N,GND*%
X121309415Y-73235000D03*
D15*
%TO.P,R7,1*%
%TO.N,/COUNT*%
X121309415Y-63075000D03*
%TD*%
D13*
%TO.P,SW3,1,1*%
%TO.N,+5V*%
X69860000Y-38750000D03*
D14*
%TO.P,SW3,2,2*%
%TO.N,/DEC*%
X67320000Y-38750000D03*
%TD*%
D13*
%TO.P,SW1,1,1*%
%TO.N,+5V*%
X69860000Y-48910000D03*
D14*
%TO.P,SW1,2,2*%
%TO.N,/MODE*%
X67320000Y-48910000D03*
%TD*%
D20*
%TO.N,Net-(R5-Pad1)*%
X106778000Y-60550000D02*
X105664000Y-59436000D01*
X109889415Y-60550000D02*
X106778000Y-60550000D01*
%TO.N,Net-(R6-Pad1)*%
X102362000Y-41148000D02*
X106524000Y-45310000D01*
X106524000Y-45310000D02*
X109889415Y-45310000D01*
%TO.N,+5V*%
X69860000Y-38750000D02*
X69860000Y-35804000D01*
X69860000Y-35804000D02*
X69362000Y-35306000D01*
X58684000Y-35306000D02*
X57160000Y-33782000D01*
X57160000Y-33782000D02*
X57160000Y-30724000D01*
X57160000Y-57995000D02*
X57160000Y-33782000D01*
X69362000Y-35306000D02*
X58684000Y-35306000D01*
X57160000Y-30724000D02*
X57912000Y-29972000D01*
X57912000Y-29972000D02*
X61976000Y-29972000D01*
%TO.N,/COUNT*%
X84470000Y-47640000D02*
X81300000Y-47640000D01*
X90040000Y-53210000D02*
X84470000Y-47640000D01*
X90040000Y-71064898D02*
X90040000Y-53210000D01*
X99769898Y-74930000D02*
X93905102Y-74930000D01*
X102492000Y-72207898D02*
X99769898Y-74930000D01*
X115133830Y-67440000D02*
X103703898Y-67440000D01*
X103703898Y-67440000D02*
X102492000Y-68651898D01*
X117509415Y-65064415D02*
X115133830Y-67440000D01*
X117509415Y-63090000D02*
X117509415Y-65064415D01*
X102492000Y-68651898D02*
X102492000Y-72207898D01*
X93905102Y-74930000D02*
X90040000Y-71064898D01*
%TO.N,/RESET*%
X113284000Y-65925415D02*
X115709415Y-63500000D01*
X113284000Y-66040000D02*
X113284000Y-65925415D01*
X103124000Y-66040000D02*
X113284000Y-66040000D01*
X99190000Y-73530000D02*
X101092000Y-71628000D01*
X94485000Y-73530000D02*
X99190000Y-73530000D01*
X101092000Y-71628000D02*
X101092000Y-68072000D01*
X91440000Y-70485000D02*
X94485000Y-73530000D01*
X91440000Y-51435000D02*
X91440000Y-70485000D01*
X101092000Y-68072000D02*
X103124000Y-66040000D01*
X85105000Y-45100000D02*
X91440000Y-51435000D01*
X81300000Y-45100000D02*
X85105000Y-45100000D01*
X115709415Y-57264415D02*
X115709415Y-63500000D01*
%TO.N,+5V*%
X125984000Y-33240472D02*
X125984000Y-40975415D01*
X125984000Y-40975415D02*
X125614415Y-41345000D01*
X125614415Y-32870887D02*
X125984000Y-33240472D01*
X122729949Y-29845000D02*
X125685126Y-32800177D01*
X104648000Y-29845000D02*
X122729949Y-29845000D01*
X89916000Y-37067370D02*
X89916000Y-29972000D01*
X95408630Y-42560000D02*
X89916000Y-37067370D01*
X96540000Y-42560000D02*
X95408630Y-42560000D01*
X75692000Y-29972000D02*
X89916000Y-29972000D01*
X89916000Y-29972000D02*
X104521000Y-29972000D01*
%TO.N,/RESET*%
X115809415Y-57164415D02*
X115709415Y-57264415D01*
X117509415Y-47850000D02*
X115809415Y-49550000D01*
X115809415Y-49550000D02*
X115809415Y-57164415D01*
%TO.N,+5V*%
X104521000Y-29972000D02*
X104648000Y-29845000D01*
X104140000Y-29845000D02*
X104648000Y-29845000D01*
X104140000Y-34940000D02*
X104140000Y-29845000D01*
X104140000Y-36091370D02*
X104140000Y-34940000D01*
%TO.N,/COUNT_IN*%
X113030000Y-54869415D02*
X109889415Y-58010000D01*
X116630000Y-38945000D02*
X113030000Y-42545000D01*
X113030000Y-42545000D02*
X113030000Y-54869415D01*
X123214415Y-38945000D02*
X116630000Y-38945000D01*
%TO.N,+5V*%
X125614415Y-48400585D02*
X125614415Y-41345000D01*
X119209415Y-54805585D02*
X125614415Y-48400585D01*
X119209415Y-58850000D02*
X119209415Y-54805585D01*
X117509415Y-60550000D02*
X119209415Y-58850000D01*
X125614415Y-41345000D02*
X121649415Y-45310000D01*
X121649415Y-45310000D02*
X117509415Y-45310000D01*
%TO.N,/RESET_IN*%
X118794415Y-33865000D02*
X109889415Y-42770000D01*
X123214415Y-33865000D02*
X118794415Y-33865000D01*
D21*
%TO.N,Net-(R6-Pad1)*%
X109874415Y-45295000D02*
X109889415Y-45310000D01*
D20*
%TO.N,/RESET*%
X121294415Y-47850000D02*
X121309415Y-47835000D01*
X117509415Y-47850000D02*
X121294415Y-47850000D01*
%TO.N,Net-(R5-Pad1)*%
X109874415Y-60535000D02*
X109889415Y-60550000D01*
%TO.N,/COUNT*%
X121294415Y-63090000D02*
X121309415Y-63075000D01*
X117509415Y-63090000D02*
X121294415Y-63090000D01*
%TO.N,+5V*%
X64780000Y-59070000D02*
X58235000Y-59070000D01*
X58235000Y-59070000D02*
X57160000Y-57995000D01*
X57160000Y-65420000D02*
X57160000Y-57995000D01*
X69860000Y-44060000D02*
X69860000Y-38750000D01*
X60970000Y-69230000D02*
X57160000Y-65420000D01*
X69860000Y-48910000D02*
X69860000Y-44060000D01*
X64780000Y-69230000D02*
X60970000Y-69230000D01*
%TO.N,/MODE*%
X71550000Y-51320000D02*
X72690000Y-50180000D01*
X63510000Y-48910000D02*
X67320000Y-48910000D01*
X67320000Y-50180000D02*
X68460000Y-51320000D01*
X68460000Y-51320000D02*
X71550000Y-51320000D01*
X72690000Y-50180000D02*
X81300000Y-50180000D01*
X67320000Y-48910000D02*
X67320000Y-50180000D01*
%TO.N,/INC*%
X63510000Y-44060000D02*
X67320000Y-44060000D01*
X61710000Y-49655585D02*
X61710000Y-45860000D01*
X81300000Y-52720000D02*
X64774415Y-52720000D01*
X64774415Y-52720000D02*
X61710000Y-49655585D01*
X61710000Y-45860000D02*
X63510000Y-44060000D01*
%TO.N,/DEC*%
X81300000Y-55260000D02*
X65334517Y-55260000D01*
X65334517Y-55260000D02*
X60310000Y-50235483D01*
X63510000Y-38750000D02*
X67320000Y-38750000D01*
X60310000Y-50235483D02*
X60310000Y-41950000D01*
X60310000Y-41950000D02*
X63510000Y-38750000D01*
%TO.N,Net-(D1-A)*%
X63510000Y-64150000D02*
X67320000Y-64150000D01*
%TO.N,/MODE_LED*%
X73670000Y-60340000D02*
X81300000Y-60340000D01*
X69860000Y-64150000D02*
X73670000Y-60340000D01*
%TO.N,/RELAY*%
X71130000Y-57800000D02*
X81300000Y-57800000D01*
X69860000Y-59070000D02*
X71130000Y-57800000D01*
%TO.N,Net-(A1-D9)*%
X76210000Y-62880000D02*
X81300000Y-62880000D01*
X76210000Y-62880000D02*
X69860000Y-69230000D01*
%TO.N,Net-(A1-D10)*%
X76210000Y-65420000D02*
X81300000Y-65420000D01*
X76210000Y-65420000D02*
X72400000Y-69230000D01*
%TO.N,Net-(A1-D11)*%
X76210000Y-67960000D02*
X74940000Y-69230000D01*
X76210000Y-67960000D02*
X81300000Y-67960000D01*
%TD*%
%TA.AperFunction,Conductor*%
%TO.N,GND*%
G36*
X80330575Y-58820185D02*
G01*
X80347521Y-58833272D01*
X80348204Y-58833901D01*
X80348216Y-58833913D01*
X80442137Y-58907014D01*
X80525819Y-58972147D01*
X80566632Y-59028857D01*
X80570306Y-59098630D01*
X80535674Y-59159313D01*
X80525819Y-59167853D01*
X80435332Y-59238282D01*
X80348216Y-59306087D01*
X80348210Y-59306092D01*
X80347521Y-59306728D01*
X80347172Y-59306899D01*
X80344170Y-59309237D01*
X80343689Y-59308619D01*
X80284867Y-59337652D01*
X80263536Y-59339500D01*
X73682717Y-59339500D01*
X73593637Y-59337243D01*
X73593628Y-59337243D01*
X73533260Y-59348064D01*
X73528595Y-59348718D01*
X73467563Y-59354925D01*
X73467555Y-59354927D01*
X73434781Y-59365210D01*
X73427154Y-59367082D01*
X73393350Y-59373141D01*
X73336384Y-59395894D01*
X73331948Y-59397473D01*
X73273414Y-59415840D01*
X73273412Y-59415841D01*
X73243385Y-59432506D01*
X73236293Y-59435874D01*
X73204383Y-59448621D01*
X73153154Y-59482383D01*
X73149126Y-59484824D01*
X73095502Y-59514588D01*
X73095499Y-59514590D01*
X73069427Y-59536970D01*
X73063160Y-59541695D01*
X73034482Y-59560598D01*
X73034475Y-59560603D01*
X72991116Y-59603962D01*
X72987661Y-59607164D01*
X72941106Y-59647132D01*
X72941105Y-59647133D01*
X72920076Y-59674300D01*
X72914884Y-59680194D01*
X69931897Y-62663181D01*
X69870574Y-62696666D01*
X69844216Y-62699500D01*
X68970636Y-62699500D01*
X68853246Y-62714953D01*
X68853237Y-62714956D01*
X68707160Y-62775463D01*
X68581718Y-62871718D01*
X68485463Y-62997160D01*
X68478247Y-63014581D01*
X68434404Y-63068983D01*
X68368109Y-63091046D01*
X68300410Y-63073765D01*
X68287525Y-63064978D01*
X68116075Y-62931533D01*
X68116069Y-62931529D01*
X67904657Y-62817118D01*
X67904652Y-62817116D01*
X67677300Y-62739066D01*
X67499468Y-62709391D01*
X67440192Y-62699500D01*
X67199808Y-62699500D01*
X67152387Y-62707413D01*
X66962699Y-62739066D01*
X66735347Y-62817116D01*
X66735342Y-62817118D01*
X66523930Y-62931529D01*
X66523924Y-62931533D01*
X66334242Y-63079169D01*
X66334232Y-63079178D01*
X66306335Y-63109483D01*
X66246448Y-63145474D01*
X66215106Y-63149500D01*
X64546464Y-63149500D01*
X64479425Y-63129815D01*
X64462479Y-63116728D01*
X64461794Y-63116098D01*
X64461784Y-63116087D01*
X64308985Y-62997159D01*
X64278628Y-62973531D01*
X64074504Y-62863064D01*
X64074495Y-62863061D01*
X63854984Y-62787702D01*
X63683282Y-62759050D01*
X63626049Y-62749500D01*
X63393951Y-62749500D01*
X63348164Y-62757140D01*
X63165015Y-62787702D01*
X62945504Y-62863061D01*
X62945495Y-62863064D01*
X62741371Y-62973531D01*
X62741365Y-62973535D01*
X62558222Y-63116081D01*
X62558219Y-63116084D01*
X62558216Y-63116086D01*
X62558216Y-63116087D01*
X62527457Y-63149500D01*
X62401016Y-63286852D01*
X62274075Y-63481151D01*
X62180842Y-63693699D01*
X62123866Y-63918691D01*
X62123864Y-63918702D01*
X62104700Y-64149993D01*
X62104700Y-64150006D01*
X62123864Y-64381297D01*
X62123866Y-64381308D01*
X62180842Y-64606300D01*
X62274075Y-64818848D01*
X62401016Y-65013147D01*
X62401019Y-65013151D01*
X62401021Y-65013153D01*
X62558216Y-65183913D01*
X62558219Y-65183915D01*
X62558222Y-65183918D01*
X62741365Y-65326464D01*
X62741371Y-65326468D01*
X62741374Y-65326470D01*
X62945497Y-65436936D01*
X63059487Y-65476068D01*
X63165015Y-65512297D01*
X63165017Y-65512297D01*
X63165019Y-65512298D01*
X63393951Y-65550500D01*
X63393952Y-65550500D01*
X63626048Y-65550500D01*
X63626049Y-65550500D01*
X63854981Y-65512298D01*
X64074503Y-65436936D01*
X64278626Y-65326470D01*
X64461784Y-65183913D01*
X64461800Y-65183895D01*
X64462479Y-65183272D01*
X64462827Y-65183100D01*
X64465830Y-65180763D01*
X64466310Y-65181380D01*
X64525133Y-65152348D01*
X64546464Y-65150500D01*
X66215106Y-65150500D01*
X66282145Y-65170185D01*
X66306335Y-65190517D01*
X66334232Y-65220821D01*
X66334242Y-65220830D01*
X66523924Y-65368466D01*
X66523930Y-65368470D01*
X66523933Y-65368472D01*
X66735344Y-65482882D01*
X66735347Y-65482883D01*
X66962699Y-65560933D01*
X66962701Y-65560933D01*
X66962703Y-65560934D01*
X67199808Y-65600500D01*
X67199809Y-65600500D01*
X67440191Y-65600500D01*
X67440192Y-65600500D01*
X67677297Y-65560934D01*
X67904656Y-65482882D01*
X68116067Y-65368472D01*
X68287525Y-65235020D01*
X68352518Y-65209378D01*
X68421058Y-65222944D01*
X68471383Y-65271412D01*
X68478247Y-65285419D01*
X68485462Y-65302838D01*
X68485463Y-65302839D01*
X68485464Y-65302841D01*
X68581718Y-65428282D01*
X68707159Y-65524536D01*
X68853238Y-65585044D01*
X68970639Y-65600500D01*
X70749360Y-65600499D01*
X70749363Y-65600499D01*
X70866753Y-65585046D01*
X70866757Y-65585044D01*
X70866762Y-65585044D01*
X71012841Y-65524536D01*
X71138282Y-65428282D01*
X71234536Y-65302841D01*
X71295044Y-65156762D01*
X71310500Y-65039361D01*
X71310499Y-64165781D01*
X71330183Y-64098743D01*
X71346813Y-64078106D01*
X74048102Y-61376819D01*
X74109425Y-61343334D01*
X74135783Y-61340500D01*
X80263536Y-61340500D01*
X80330575Y-61360185D01*
X80347521Y-61373272D01*
X80348204Y-61373901D01*
X80348216Y-61373913D01*
X80450456Y-61453489D01*
X80525819Y-61512147D01*
X80566632Y-61568857D01*
X80570306Y-61638630D01*
X80535674Y-61699313D01*
X80525819Y-61707853D01*
X80434595Y-61778856D01*
X80348216Y-61846087D01*
X80348210Y-61846092D01*
X80347521Y-61846728D01*
X80347172Y-61846899D01*
X80344170Y-61849237D01*
X80343689Y-61848619D01*
X80284867Y-61877652D01*
X80263536Y-61879500D01*
X76222699Y-61879500D01*
X76133639Y-61877242D01*
X76133635Y-61877242D01*
X76081823Y-61886529D01*
X76073254Y-61888064D01*
X76068595Y-61888718D01*
X76007564Y-61894925D01*
X76007562Y-61894926D01*
X75974780Y-61905210D01*
X75967156Y-61907081D01*
X75959308Y-61908488D01*
X75933349Y-61913141D01*
X75876381Y-61935895D01*
X75871945Y-61937474D01*
X75813414Y-61955840D01*
X75813410Y-61955842D01*
X75783378Y-61972510D01*
X75776284Y-61975879D01*
X75744382Y-61988623D01*
X75744377Y-61988625D01*
X75693156Y-62022381D01*
X75689128Y-62024822D01*
X75635501Y-62054588D01*
X75609434Y-62076965D01*
X75603165Y-62081692D01*
X75574484Y-62100595D01*
X75574478Y-62100600D01*
X75531109Y-62143968D01*
X75527655Y-62147169D01*
X75481102Y-62187136D01*
X75460076Y-62214298D01*
X75454885Y-62220192D01*
X69931899Y-67743181D01*
X69870576Y-67776666D01*
X69844218Y-67779500D01*
X69739808Y-67779500D01*
X69692387Y-67787413D01*
X69502699Y-67819066D01*
X69275347Y-67897116D01*
X69275342Y-67897118D01*
X69063930Y-68011529D01*
X69063924Y-68011533D01*
X68874242Y-68159169D01*
X68874239Y-68159172D01*
X68874236Y-68159174D01*
X68874236Y-68159175D01*
X68844118Y-68191892D01*
X68711430Y-68336029D01*
X68711427Y-68336033D01*
X68633401Y-68455460D01*
X68580254Y-68500817D01*
X68511023Y-68510240D01*
X68447688Y-68480737D01*
X68428018Y-68458761D01*
X68358113Y-68358926D01*
X68358108Y-68358920D01*
X68191082Y-68191894D01*
X67997578Y-68056399D01*
X67783492Y-67956570D01*
X67783486Y-67956567D01*
X67570000Y-67899364D01*
X67570000Y-68794498D01*
X67462315Y-68745320D01*
X67355763Y-68730000D01*
X67284237Y-68730000D01*
X67177685Y-68745320D01*
X67070000Y-68794498D01*
X67070000Y-67899364D01*
X67069999Y-67899364D01*
X66856513Y-67956567D01*
X66856507Y-67956570D01*
X66642422Y-68056399D01*
X66642420Y-68056400D01*
X66448926Y-68191886D01*
X66448919Y-68191892D01*
X66405586Y-68235225D01*
X66344263Y-68268709D01*
X66274571Y-68263724D01*
X66218638Y-68221852D01*
X66203345Y-68194995D01*
X66202057Y-68191886D01*
X66154536Y-68077159D01*
X66058282Y-67951718D01*
X65932841Y-67855464D01*
X65879419Y-67833336D01*
X65786762Y-67794956D01*
X65786760Y-67794955D01*
X65669370Y-67779501D01*
X65669367Y-67779500D01*
X65669361Y-67779500D01*
X65669354Y-67779500D01*
X63890636Y-67779500D01*
X63773246Y-67794953D01*
X63773237Y-67794956D01*
X63627160Y-67855463D01*
X63501718Y-67951718D01*
X63405463Y-68077160D01*
X63374069Y-68152953D01*
X63330228Y-68207356D01*
X63263934Y-68229421D01*
X63259508Y-68229500D01*
X61435782Y-68229500D01*
X61368743Y-68209815D01*
X61348101Y-68193181D01*
X58196819Y-65041899D01*
X58163334Y-64980576D01*
X58160500Y-64954218D01*
X58160500Y-60197279D01*
X58180185Y-60130240D01*
X58232989Y-60084485D01*
X58268833Y-60074273D01*
X58274287Y-60073578D01*
X58294560Y-60070996D01*
X58302390Y-60070500D01*
X63675106Y-60070500D01*
X63742145Y-60090185D01*
X63766335Y-60110517D01*
X63794232Y-60140821D01*
X63794242Y-60140830D01*
X63983924Y-60288466D01*
X63983930Y-60288470D01*
X63983933Y-60288472D01*
X64195344Y-60402882D01*
X64195347Y-60402883D01*
X64422699Y-60480933D01*
X64422701Y-60480933D01*
X64422703Y-60480934D01*
X64659808Y-60520500D01*
X64659809Y-60520500D01*
X64900191Y-60520500D01*
X64900192Y-60520500D01*
X65137297Y-60480934D01*
X65364656Y-60402882D01*
X65576067Y-60288472D01*
X65765764Y-60140825D01*
X65928571Y-59963969D01*
X66006599Y-59844537D01*
X66059744Y-59799183D01*
X66128975Y-59789759D01*
X66192311Y-59819261D01*
X66211980Y-59841237D01*
X66281890Y-59941078D01*
X66448917Y-60108105D01*
X66642421Y-60243600D01*
X66856507Y-60343429D01*
X66856516Y-60343433D01*
X67070000Y-60400634D01*
X67070000Y-59505501D01*
X67177685Y-59554680D01*
X67284237Y-59570000D01*
X67355763Y-59570000D01*
X67462315Y-59554680D01*
X67570000Y-59505501D01*
X67570000Y-60400633D01*
X67783483Y-60343433D01*
X67783492Y-60343429D01*
X67997578Y-60243600D01*
X68191081Y-60108106D01*
X68234411Y-60064776D01*
X68295734Y-60031290D01*
X68365425Y-60036274D01*
X68421359Y-60078145D01*
X68436653Y-60105001D01*
X68485464Y-60222841D01*
X68581718Y-60348282D01*
X68707159Y-60444536D01*
X68853238Y-60505044D01*
X68970639Y-60520500D01*
X70749360Y-60520499D01*
X70749363Y-60520499D01*
X70866753Y-60505046D01*
X70866757Y-60505044D01*
X70866762Y-60505044D01*
X71012841Y-60444536D01*
X71138282Y-60348282D01*
X71234536Y-60222841D01*
X71295044Y-60076762D01*
X71310500Y-59959361D01*
X71310499Y-59085781D01*
X71330183Y-59018743D01*
X71346813Y-58998105D01*
X71508102Y-58836816D01*
X71569424Y-58803334D01*
X71595782Y-58800500D01*
X80263536Y-58800500D01*
X80330575Y-58820185D01*
G37*
%TD.AperFunction*%
%TA.AperFunction,Conductor*%
G36*
X58318605Y-36242099D02*
G01*
X58333708Y-36246420D01*
X58343962Y-36249354D01*
X58351365Y-36251989D01*
X58382940Y-36265539D01*
X58382941Y-36265540D01*
X58396054Y-36268234D01*
X58443055Y-36277892D01*
X58447595Y-36279006D01*
X58506582Y-36295886D01*
X58540841Y-36298494D01*
X58548609Y-36299585D01*
X58582255Y-36306500D01*
X58582259Y-36306500D01*
X58643601Y-36306500D01*
X58648308Y-36306678D01*
X58684651Y-36309446D01*
X58709475Y-36311337D01*
X58709475Y-36311336D01*
X58709476Y-36311337D01*
X58743559Y-36306996D01*
X58751389Y-36306500D01*
X68735500Y-36306500D01*
X68802539Y-36326185D01*
X68848294Y-36378989D01*
X68859500Y-36430500D01*
X68859500Y-37229508D01*
X68839815Y-37296547D01*
X68787011Y-37342302D01*
X68782953Y-37344069D01*
X68707160Y-37375463D01*
X68581718Y-37471718D01*
X68485463Y-37597160D01*
X68478247Y-37614581D01*
X68434404Y-37668983D01*
X68368109Y-37691046D01*
X68300410Y-37673765D01*
X68287525Y-37664978D01*
X68116075Y-37531533D01*
X68116069Y-37531529D01*
X67904657Y-37417118D01*
X67904652Y-37417116D01*
X67677300Y-37339066D01*
X67499468Y-37309391D01*
X67440192Y-37299500D01*
X67199808Y-37299500D01*
X67181333Y-37302583D01*
X66962699Y-37339066D01*
X66735347Y-37417116D01*
X66735342Y-37417118D01*
X66523930Y-37531529D01*
X66523924Y-37531533D01*
X66334242Y-37679169D01*
X66334232Y-37679178D01*
X66306335Y-37709483D01*
X66246448Y-37745474D01*
X66215106Y-37749500D01*
X64546464Y-37749500D01*
X64479425Y-37729815D01*
X64462479Y-37716728D01*
X64461794Y-37716098D01*
X64461784Y-37716087D01*
X64308985Y-37597159D01*
X64278628Y-37573531D01*
X64074504Y-37463064D01*
X64074495Y-37463061D01*
X63854984Y-37387702D01*
X63683282Y-37359050D01*
X63626049Y-37349500D01*
X63393951Y-37349500D01*
X63348164Y-37357140D01*
X63165015Y-37387702D01*
X62945504Y-37463061D01*
X62945495Y-37463064D01*
X62741371Y-37573531D01*
X62741365Y-37573535D01*
X62558222Y-37716081D01*
X62558219Y-37716084D01*
X62558216Y-37716086D01*
X62558216Y-37716087D01*
X62530444Y-37746256D01*
X62401016Y-37886852D01*
X62274075Y-38081151D01*
X62180842Y-38293699D01*
X62123866Y-38518691D01*
X62123864Y-38518703D01*
X62109322Y-38694210D01*
X62084169Y-38759395D01*
X62073427Y-38771651D01*
X59611532Y-41233546D01*
X59546946Y-41294942D01*
X59511899Y-41345294D01*
X59509062Y-41349056D01*
X59470302Y-41396592D01*
X59470299Y-41396597D01*
X59454392Y-41427047D01*
X59450324Y-41433761D01*
X59430702Y-41461954D01*
X59406509Y-41518330D01*
X59404488Y-41522584D01*
X59376091Y-41576951D01*
X59376090Y-41576952D01*
X59366640Y-41609975D01*
X59364007Y-41617371D01*
X59350459Y-41648943D01*
X59338113Y-41709019D01*
X59336990Y-41713595D01*
X59320113Y-41772577D01*
X59320113Y-41772579D01*
X59317503Y-41806841D01*
X59316414Y-41814608D01*
X59310980Y-41841052D01*
X59309500Y-41848258D01*
X59309500Y-41909597D01*
X59309321Y-41914306D01*
X59304662Y-41975474D01*
X59306707Y-41991527D01*
X59309003Y-42009560D01*
X59309500Y-42017388D01*
X59309500Y-50222766D01*
X59307243Y-50311845D01*
X59307243Y-50311853D01*
X59318064Y-50372222D01*
X59318718Y-50376887D01*
X59324925Y-50437913D01*
X59324927Y-50437927D01*
X59335208Y-50470696D01*
X59337079Y-50478320D01*
X59343142Y-50512135D01*
X59343142Y-50512138D01*
X59365894Y-50569095D01*
X59367474Y-50573534D01*
X59385841Y-50632071D01*
X59385844Y-50632078D01*
X59402509Y-50662102D01*
X59405879Y-50669197D01*
X59418528Y-50700863D01*
X59418622Y-50701097D01*
X59418627Y-50701107D01*
X59452377Y-50752316D01*
X59454818Y-50756346D01*
X59484588Y-50809981D01*
X59484589Y-50809982D01*
X59484591Y-50809985D01*
X59506968Y-50836050D01*
X59511693Y-50842318D01*
X59515997Y-50848848D01*
X59530598Y-50871002D01*
X59573978Y-50914382D01*
X59577169Y-50917826D01*
X59617131Y-50964375D01*
X59617130Y-50964375D01*
X59644299Y-50985406D01*
X59650186Y-50990590D01*
X64618064Y-55958467D01*
X64679458Y-56023053D01*
X64679461Y-56023055D01*
X64679464Y-56023058D01*
X64713570Y-56046795D01*
X64729820Y-56058106D01*
X64733561Y-56060926D01*
X64781110Y-56099698D01*
X64811562Y-56115604D01*
X64818273Y-56119671D01*
X64838746Y-56133920D01*
X64846468Y-56139295D01*
X64902846Y-56163489D01*
X64907095Y-56165507D01*
X64961468Y-56193909D01*
X64989006Y-56201788D01*
X64994491Y-56203358D01*
X65001885Y-56205990D01*
X65033459Y-56219540D01*
X65033462Y-56219540D01*
X65033463Y-56219541D01*
X65093539Y-56231887D01*
X65098117Y-56233010D01*
X65112018Y-56236987D01*
X65157099Y-56249887D01*
X65191356Y-56252495D01*
X65199131Y-56253586D01*
X65232772Y-56260500D01*
X65232776Y-56260500D01*
X65294115Y-56260500D01*
X65298821Y-56260678D01*
X65333579Y-56263325D01*
X65359992Y-56265337D01*
X65359992Y-56265336D01*
X65359993Y-56265337D01*
X65394076Y-56260996D01*
X65401906Y-56260500D01*
X80263536Y-56260500D01*
X80330575Y-56280185D01*
X80347521Y-56293272D01*
X80348204Y-56293901D01*
X80348216Y-56293913D01*
X80475696Y-56393134D01*
X80525819Y-56432147D01*
X80566632Y-56488857D01*
X80570306Y-56558630D01*
X80535674Y-56619313D01*
X80525819Y-56627853D01*
X80445216Y-56690589D01*
X80348216Y-56766087D01*
X80348210Y-56766092D01*
X80347521Y-56766728D01*
X80347172Y-56766899D01*
X80344170Y-56769237D01*
X80343689Y-56768619D01*
X80284867Y-56797652D01*
X80263536Y-56799500D01*
X71142677Y-56799500D01*
X71053637Y-56797244D01*
X71053626Y-56797245D01*
X70993271Y-56808062D01*
X70988607Y-56808716D01*
X70927563Y-56814925D01*
X70927555Y-56814927D01*
X70894781Y-56825210D01*
X70887153Y-56827082D01*
X70853349Y-56833141D01*
X70796381Y-56855895D01*
X70791945Y-56857474D01*
X70733414Y-56875840D01*
X70733410Y-56875842D01*
X70703378Y-56892510D01*
X70696284Y-56895879D01*
X70664382Y-56908623D01*
X70664377Y-56908625D01*
X70613156Y-56942381D01*
X70609128Y-56944822D01*
X70555501Y-56974588D01*
X70529434Y-56996965D01*
X70523165Y-57001692D01*
X70494484Y-57020595D01*
X70494478Y-57020600D01*
X70451109Y-57063968D01*
X70447655Y-57067169D01*
X70401102Y-57107136D01*
X70380076Y-57134298D01*
X70374885Y-57140192D01*
X69931896Y-57583181D01*
X69870573Y-57616666D01*
X69844215Y-57619500D01*
X68970636Y-57619500D01*
X68853246Y-57634953D01*
X68853237Y-57634956D01*
X68707160Y-57695463D01*
X68581718Y-57791718D01*
X68485463Y-57917160D01*
X68436654Y-58034996D01*
X68392813Y-58089399D01*
X68326519Y-58111464D01*
X68258819Y-58094185D01*
X68234412Y-58075224D01*
X68191082Y-58031894D01*
X67997578Y-57896399D01*
X67783492Y-57796570D01*
X67783486Y-57796567D01*
X67570000Y-57739364D01*
X67570000Y-58634498D01*
X67462315Y-58585320D01*
X67355763Y-58570000D01*
X67284237Y-58570000D01*
X67177685Y-58585320D01*
X67070000Y-58634498D01*
X67070000Y-57739364D01*
X67069999Y-57739364D01*
X66856513Y-57796567D01*
X66856507Y-57796570D01*
X66642422Y-57896399D01*
X66642420Y-57896400D01*
X66448926Y-58031886D01*
X66448920Y-58031891D01*
X66281891Y-58198920D01*
X66281890Y-58198922D01*
X66211981Y-58298762D01*
X66157404Y-58342387D01*
X66087905Y-58349579D01*
X66025551Y-58318057D01*
X66006598Y-58295460D01*
X65928571Y-58176031D01*
X65765764Y-57999175D01*
X65765759Y-57999171D01*
X65765757Y-57999169D01*
X65576075Y-57851533D01*
X65576069Y-57851529D01*
X65364657Y-57737118D01*
X65364652Y-57737116D01*
X65137300Y-57659066D01*
X64959468Y-57629391D01*
X64900192Y-57619500D01*
X64659808Y-57619500D01*
X64612387Y-57627413D01*
X64422699Y-57659066D01*
X64195347Y-57737116D01*
X64195342Y-57737118D01*
X63983930Y-57851529D01*
X63983924Y-57851533D01*
X63794242Y-57999169D01*
X63794232Y-57999178D01*
X63766335Y-58029483D01*
X63706448Y-58065474D01*
X63675106Y-58069500D01*
X58700782Y-58069500D01*
X58633743Y-58049815D01*
X58613101Y-58033181D01*
X58196819Y-57616899D01*
X58163334Y-57555576D01*
X58160500Y-57529218D01*
X58160500Y-36361316D01*
X58180185Y-36294277D01*
X58232989Y-36248522D01*
X58302147Y-36238578D01*
X58318605Y-36242099D01*
G37*
%TD.AperFunction*%
%TA.AperFunction,Conductor*%
G36*
X128742539Y-26220185D02*
G01*
X128788294Y-26272989D01*
X128799500Y-26324500D01*
X128799500Y-76675500D01*
X128779815Y-76742539D01*
X128727011Y-76788294D01*
X128675500Y-76799500D01*
X51324500Y-76799500D01*
X51257461Y-76779815D01*
X51211706Y-76727011D01*
X51200500Y-76675500D01*
X51200500Y-63899999D01*
X52071127Y-63899999D01*
X52071128Y-63900000D01*
X53034314Y-63900000D01*
X53022359Y-63911955D01*
X52964835Y-64024852D01*
X52945014Y-64150000D01*
X52964835Y-64275148D01*
X53022359Y-64388045D01*
X53034314Y-64400000D01*
X52071128Y-64400000D01*
X52123730Y-64596317D01*
X52123734Y-64596326D01*
X52219865Y-64802482D01*
X52350342Y-64988820D01*
X52511179Y-65149657D01*
X52697517Y-65280134D01*
X52903673Y-65376265D01*
X52903682Y-65376269D01*
X53099999Y-65428872D01*
X53100000Y-65428871D01*
X53100000Y-64465686D01*
X53111955Y-64477641D01*
X53224852Y-64535165D01*
X53318519Y-64550000D01*
X53381481Y-64550000D01*
X53475148Y-64535165D01*
X53588045Y-64477641D01*
X53600000Y-64465686D01*
X53600000Y-65428872D01*
X53796317Y-65376269D01*
X53796326Y-65376265D01*
X54002482Y-65280134D01*
X54188820Y-65149657D01*
X54349657Y-64988820D01*
X54480134Y-64802482D01*
X54576265Y-64596326D01*
X54576269Y-64596317D01*
X54628872Y-64400000D01*
X53665686Y-64400000D01*
X53677641Y-64388045D01*
X53735165Y-64275148D01*
X53754986Y-64150000D01*
X53735165Y-64024852D01*
X53677641Y-63911955D01*
X53665686Y-63900000D01*
X54628872Y-63900000D01*
X54628872Y-63899999D01*
X54576269Y-63703682D01*
X54576265Y-63703673D01*
X54480134Y-63497517D01*
X54349657Y-63311179D01*
X54188820Y-63150342D01*
X54002482Y-63019865D01*
X53796328Y-62923734D01*
X53600000Y-62871127D01*
X53600000Y-63834314D01*
X53588045Y-63822359D01*
X53475148Y-63764835D01*
X53381481Y-63750000D01*
X53318519Y-63750000D01*
X53224852Y-63764835D01*
X53111955Y-63822359D01*
X53100000Y-63834314D01*
X53100000Y-62871127D01*
X52903671Y-62923734D01*
X52697517Y-63019865D01*
X52511179Y-63150342D01*
X52350342Y-63311179D01*
X52219865Y-63497517D01*
X52123734Y-63703673D01*
X52123730Y-63703682D01*
X52071127Y-63899999D01*
X51200500Y-63899999D01*
X51200500Y-48659999D01*
X52071127Y-48659999D01*
X52071128Y-48660000D01*
X53034314Y-48660000D01*
X53022359Y-48671955D01*
X52964835Y-48784852D01*
X52945014Y-48910000D01*
X52964835Y-49035148D01*
X53022359Y-49148045D01*
X53034314Y-49160000D01*
X52071128Y-49160000D01*
X52123730Y-49356317D01*
X52123734Y-49356326D01*
X52219865Y-49562482D01*
X52350342Y-49748820D01*
X52511179Y-49909657D01*
X52697517Y-50040134D01*
X52903673Y-50136265D01*
X52903682Y-50136269D01*
X53099999Y-50188872D01*
X53100000Y-50188871D01*
X53100000Y-49225686D01*
X53111955Y-49237641D01*
X53224852Y-49295165D01*
X53318519Y-49310000D01*
X53381481Y-49310000D01*
X53475148Y-49295165D01*
X53588045Y-49237641D01*
X53600000Y-49225686D01*
X53600000Y-50188872D01*
X53796317Y-50136269D01*
X53796326Y-50136265D01*
X54002482Y-50040134D01*
X54188820Y-49909657D01*
X54349657Y-49748820D01*
X54480134Y-49562482D01*
X54576265Y-49356326D01*
X54576269Y-49356317D01*
X54628872Y-49160000D01*
X53665686Y-49160000D01*
X53677641Y-49148045D01*
X53735165Y-49035148D01*
X53754986Y-48910000D01*
X53735165Y-48784852D01*
X53677641Y-48671955D01*
X53665686Y-48660000D01*
X54628872Y-48660000D01*
X54628872Y-48659999D01*
X54576269Y-48463682D01*
X54576265Y-48463673D01*
X54480134Y-48257517D01*
X54349657Y-48071179D01*
X54188820Y-47910342D01*
X54002482Y-47779865D01*
X53796328Y-47683734D01*
X53600000Y-47631127D01*
X53600000Y-48594314D01*
X53588045Y-48582359D01*
X53475148Y-48524835D01*
X53381481Y-48510000D01*
X53318519Y-48510000D01*
X53224852Y-48524835D01*
X53111955Y-48582359D01*
X53100000Y-48594314D01*
X53100000Y-47631127D01*
X52903671Y-47683734D01*
X52697517Y-47779865D01*
X52511179Y-47910342D01*
X52350342Y-48071179D01*
X52219865Y-48257517D01*
X52123734Y-48463673D01*
X52123730Y-48463682D01*
X52071127Y-48659999D01*
X51200500Y-48659999D01*
X51200500Y-43809999D01*
X52071127Y-43809999D01*
X52071128Y-43810000D01*
X53034314Y-43810000D01*
X53022359Y-43821955D01*
X52964835Y-43934852D01*
X52945014Y-44060000D01*
X52964835Y-44185148D01*
X53022359Y-44298045D01*
X53034314Y-44310000D01*
X52071128Y-44310000D01*
X52123730Y-44506317D01*
X52123734Y-44506326D01*
X52219865Y-44712482D01*
X52350342Y-44898820D01*
X52511179Y-45059657D01*
X52697517Y-45190134D01*
X52903673Y-45286265D01*
X52903682Y-45286269D01*
X53099999Y-45338872D01*
X53100000Y-45338871D01*
X53100000Y-44375686D01*
X53111955Y-44387641D01*
X53224852Y-44445165D01*
X53318519Y-44460000D01*
X53381481Y-44460000D01*
X53475148Y-44445165D01*
X53588045Y-44387641D01*
X53600000Y-44375686D01*
X53600000Y-45338872D01*
X53796317Y-45286269D01*
X53796326Y-45286265D01*
X54002482Y-45190134D01*
X54188820Y-45059657D01*
X54349657Y-44898820D01*
X54480134Y-44712482D01*
X54576265Y-44506326D01*
X54576269Y-44506317D01*
X54628872Y-44310000D01*
X53665686Y-44310000D01*
X53677641Y-44298045D01*
X53735165Y-44185148D01*
X53754986Y-44060000D01*
X53735165Y-43934852D01*
X53677641Y-43821955D01*
X53665686Y-43810000D01*
X54628872Y-43810000D01*
X54628872Y-43809999D01*
X54576269Y-43613682D01*
X54576265Y-43613673D01*
X54480134Y-43407517D01*
X54349657Y-43221179D01*
X54188820Y-43060342D01*
X54002482Y-42929865D01*
X53796328Y-42833734D01*
X53600000Y-42781127D01*
X53600000Y-43744314D01*
X53588045Y-43732359D01*
X53475148Y-43674835D01*
X53381481Y-43660000D01*
X53318519Y-43660000D01*
X53224852Y-43674835D01*
X53111955Y-43732359D01*
X53100000Y-43744314D01*
X53100000Y-42781127D01*
X52903671Y-42833734D01*
X52697517Y-42929865D01*
X52511179Y-43060342D01*
X52350342Y-43221179D01*
X52219865Y-43407517D01*
X52123734Y-43613673D01*
X52123730Y-43613682D01*
X52071127Y-43809999D01*
X51200500Y-43809999D01*
X51200500Y-38499999D01*
X52071127Y-38499999D01*
X52071128Y-38500000D01*
X53034314Y-38500000D01*
X53022359Y-38511955D01*
X52964835Y-38624852D01*
X52945014Y-38750000D01*
X52964835Y-38875148D01*
X53022359Y-38988045D01*
X53034314Y-39000000D01*
X52071128Y-39000000D01*
X52123730Y-39196317D01*
X52123734Y-39196326D01*
X52219865Y-39402482D01*
X52350342Y-39588820D01*
X52511179Y-39749657D01*
X52697517Y-39880134D01*
X52903673Y-39976265D01*
X52903682Y-39976269D01*
X53099999Y-40028872D01*
X53100000Y-40028871D01*
X53100000Y-39065686D01*
X53111955Y-39077641D01*
X53224852Y-39135165D01*
X53318519Y-39150000D01*
X53381481Y-39150000D01*
X53475148Y-39135165D01*
X53588045Y-39077641D01*
X53600000Y-39065686D01*
X53600000Y-40028872D01*
X53796317Y-39976269D01*
X53796326Y-39976265D01*
X54002482Y-39880134D01*
X54188820Y-39749657D01*
X54349657Y-39588820D01*
X54480134Y-39402482D01*
X54576265Y-39196326D01*
X54576269Y-39196317D01*
X54628872Y-39000000D01*
X53665686Y-39000000D01*
X53677641Y-38988045D01*
X53735165Y-38875148D01*
X53754986Y-38750000D01*
X53735165Y-38624852D01*
X53677641Y-38511955D01*
X53665686Y-38500000D01*
X54628872Y-38500000D01*
X54628872Y-38499999D01*
X54576269Y-38303682D01*
X54576265Y-38303673D01*
X54480134Y-38097517D01*
X54349657Y-37911179D01*
X54188820Y-37750342D01*
X54002482Y-37619865D01*
X53796328Y-37523734D01*
X53600000Y-37471127D01*
X53600000Y-38434314D01*
X53588045Y-38422359D01*
X53475148Y-38364835D01*
X53381481Y-38350000D01*
X53318519Y-38350000D01*
X53224852Y-38364835D01*
X53111955Y-38422359D01*
X53100000Y-38434314D01*
X53100000Y-37471127D01*
X52903671Y-37523734D01*
X52697517Y-37619865D01*
X52511179Y-37750342D01*
X52350342Y-37911179D01*
X52219865Y-38097517D01*
X52123734Y-38303673D01*
X52123730Y-38303682D01*
X52071127Y-38499999D01*
X51200500Y-38499999D01*
X51200500Y-30749474D01*
X56154662Y-30749474D01*
X56156451Y-30763513D01*
X56159003Y-30783560D01*
X56159500Y-30791388D01*
X56159500Y-33769284D01*
X56157242Y-33858359D01*
X56157242Y-33858361D01*
X56157555Y-33860105D01*
X56159500Y-33881979D01*
X56159500Y-57982284D01*
X56157242Y-58071359D01*
X56157242Y-58071361D01*
X56157555Y-58073105D01*
X56159500Y-58094979D01*
X56159500Y-65407283D01*
X56157243Y-65496362D01*
X56157243Y-65496370D01*
X56168064Y-65556739D01*
X56168718Y-65561404D01*
X56174925Y-65622430D01*
X56174927Y-65622444D01*
X56185208Y-65655213D01*
X56187079Y-65662837D01*
X56193142Y-65696652D01*
X56193142Y-65696655D01*
X56215894Y-65753612D01*
X56217474Y-65758051D01*
X56235841Y-65816588D01*
X56235844Y-65816595D01*
X56252509Y-65846619D01*
X56255879Y-65853714D01*
X56268622Y-65885614D01*
X56268627Y-65885624D01*
X56302377Y-65936833D01*
X56304818Y-65940863D01*
X56334588Y-65994498D01*
X56334589Y-65994499D01*
X56334591Y-65994502D01*
X56356968Y-66020567D01*
X56361693Y-66026835D01*
X56374263Y-66045906D01*
X56380598Y-66055519D01*
X56423978Y-66098899D01*
X56427169Y-66102343D01*
X56467131Y-66148892D01*
X56467134Y-66148895D01*
X56494294Y-66169918D01*
X56500190Y-66175111D01*
X60253566Y-69928487D01*
X60314938Y-69993050D01*
X60314941Y-69993053D01*
X60365281Y-70028092D01*
X60369043Y-70030928D01*
X60416587Y-70069694D01*
X60416590Y-70069695D01*
X60416593Y-70069698D01*
X60447045Y-70085604D01*
X60453756Y-70089671D01*
X60470147Y-70101079D01*
X60481951Y-70109295D01*
X60538329Y-70133489D01*
X60542578Y-70135507D01*
X60596951Y-70163909D01*
X60624489Y-70171788D01*
X60629974Y-70173358D01*
X60637368Y-70175990D01*
X60668942Y-70189540D01*
X60668945Y-70189540D01*
X60668946Y-70189541D01*
X60729022Y-70201887D01*
X60733600Y-70203010D01*
X60743400Y-70205814D01*
X60792582Y-70219887D01*
X60826839Y-70222495D01*
X60834614Y-70223586D01*
X60868255Y-70230500D01*
X60868259Y-70230500D01*
X60929599Y-70230500D01*
X60934305Y-70230678D01*
X60969063Y-70233325D01*
X60995476Y-70235337D01*
X60995476Y-70235336D01*
X60995477Y-70235337D01*
X61029560Y-70230996D01*
X61037390Y-70230500D01*
X63259508Y-70230500D01*
X63326547Y-70250185D01*
X63372302Y-70302989D01*
X63374069Y-70307047D01*
X63405464Y-70382841D01*
X63501718Y-70508282D01*
X63627159Y-70604536D01*
X63773238Y-70665044D01*
X63890639Y-70680500D01*
X65669360Y-70680499D01*
X65669363Y-70680499D01*
X65786753Y-70665046D01*
X65786757Y-70665044D01*
X65786762Y-70665044D01*
X65932841Y-70604536D01*
X66058282Y-70508282D01*
X66154536Y-70382841D01*
X66203346Y-70265002D01*
X66247185Y-70210600D01*
X66313479Y-70188535D01*
X66381179Y-70205814D01*
X66405587Y-70224775D01*
X66448917Y-70268105D01*
X66642421Y-70403600D01*
X66856507Y-70503429D01*
X66856516Y-70503433D01*
X67070000Y-70560634D01*
X67070000Y-69665501D01*
X67177685Y-69714680D01*
X67284237Y-69730000D01*
X67355763Y-69730000D01*
X67462315Y-69714680D01*
X67570000Y-69665501D01*
X67570000Y-70560633D01*
X67783483Y-70503433D01*
X67783492Y-70503429D01*
X67997578Y-70403600D01*
X68191082Y-70268105D01*
X68358108Y-70101079D01*
X68428018Y-70001238D01*
X68482595Y-69957613D01*
X68552093Y-69950419D01*
X68614448Y-69981942D01*
X68633401Y-70004539D01*
X68693808Y-70096998D01*
X68711429Y-70123969D01*
X68874236Y-70300825D01*
X68874239Y-70300827D01*
X68874242Y-70300830D01*
X69063924Y-70448466D01*
X69063930Y-70448470D01*
X69063933Y-70448472D01*
X69275344Y-70562882D01*
X69275347Y-70562883D01*
X69502699Y-70640933D01*
X69502701Y-70640933D01*
X69502703Y-70640934D01*
X69739808Y-70680500D01*
X69739809Y-70680500D01*
X69980191Y-70680500D01*
X69980192Y-70680500D01*
X70217297Y-70640934D01*
X70444656Y-70562882D01*
X70656067Y-70448472D01*
X70845764Y-70300825D01*
X71008571Y-70123969D01*
X71026193Y-70096995D01*
X71079337Y-70051641D01*
X71148568Y-70042217D01*
X71211904Y-70071718D01*
X71233804Y-70096992D01*
X71251429Y-70123969D01*
X71414236Y-70300825D01*
X71414239Y-70300827D01*
X71414242Y-70300830D01*
X71603924Y-70448466D01*
X71603930Y-70448470D01*
X71603933Y-70448472D01*
X71815344Y-70562882D01*
X71815347Y-70562883D01*
X72042699Y-70640933D01*
X72042701Y-70640933D01*
X72042703Y-70640934D01*
X72279808Y-70680500D01*
X72279809Y-70680500D01*
X72520191Y-70680500D01*
X72520192Y-70680500D01*
X72757297Y-70640934D01*
X72984656Y-70562882D01*
X73196067Y-70448472D01*
X73385764Y-70300825D01*
X73548571Y-70123969D01*
X73566193Y-70096995D01*
X73619337Y-70051641D01*
X73688568Y-70042217D01*
X73751904Y-70071718D01*
X73773804Y-70096992D01*
X73791429Y-70123969D01*
X73954236Y-70300825D01*
X73954239Y-70300827D01*
X73954242Y-70300830D01*
X74143924Y-70448466D01*
X74143930Y-70448470D01*
X74143933Y-70448472D01*
X74355344Y-70562882D01*
X74355347Y-70562883D01*
X74582699Y-70640933D01*
X74582701Y-70640933D01*
X74582703Y-70640934D01*
X74819808Y-70680500D01*
X74819809Y-70680500D01*
X75060191Y-70680500D01*
X75060192Y-70680500D01*
X75297297Y-70640934D01*
X75524656Y-70562882D01*
X75736067Y-70448472D01*
X75925764Y-70300825D01*
X76088571Y-70123969D01*
X76220049Y-69922728D01*
X76316610Y-69702591D01*
X76375620Y-69469563D01*
X76375620Y-69469561D01*
X76375621Y-69469558D01*
X76392062Y-69271143D01*
X76395381Y-69231082D01*
X76420534Y-69165898D01*
X76431260Y-69153658D01*
X76588102Y-68996816D01*
X76649425Y-68963334D01*
X76675782Y-68960500D01*
X80263536Y-68960500D01*
X80330575Y-68980185D01*
X80347521Y-68993272D01*
X80348207Y-68993903D01*
X80348216Y-68993913D01*
X80394581Y-69030000D01*
X80525818Y-69132146D01*
X80566631Y-69188856D01*
X80570306Y-69258629D01*
X80535674Y-69319312D01*
X80525819Y-69327852D01*
X80348218Y-69466085D01*
X80191016Y-69636852D01*
X80064075Y-69831151D01*
X79970842Y-70043699D01*
X79913866Y-70268691D01*
X79913864Y-70268702D01*
X79894700Y-70499993D01*
X79894700Y-70500006D01*
X79913864Y-70731297D01*
X79913866Y-70731308D01*
X79970842Y-70956300D01*
X80064075Y-71168848D01*
X80191016Y-71363147D01*
X80191019Y-71363151D01*
X80191021Y-71363153D01*
X80348216Y-71533913D01*
X80348219Y-71533915D01*
X80348222Y-71533918D01*
X80531365Y-71676464D01*
X80531371Y-71676468D01*
X80531374Y-71676470D01*
X80735497Y-71786936D01*
X80849487Y-71826068D01*
X80955015Y-71862297D01*
X80955017Y-71862297D01*
X80955019Y-71862298D01*
X81183951Y-71900500D01*
X81183952Y-71900500D01*
X81416048Y-71900500D01*
X81416049Y-71900500D01*
X81644981Y-71862298D01*
X81864503Y-71786936D01*
X82068626Y-71676470D01*
X82251784Y-71533913D01*
X82408979Y-71363153D01*
X82535924Y-71168849D01*
X82629157Y-70956300D01*
X82686134Y-70731305D01*
X82690344Y-70680498D01*
X82705300Y-70500006D01*
X82705300Y-70499993D01*
X82686135Y-70268702D01*
X82686133Y-70268691D01*
X82629157Y-70043699D01*
X82535924Y-69831151D01*
X82408983Y-69636852D01*
X82408980Y-69636849D01*
X82408979Y-69636847D01*
X82251784Y-69466087D01*
X82074180Y-69327853D01*
X82033368Y-69271143D01*
X82029693Y-69201370D01*
X82064324Y-69140687D01*
X82074181Y-69132146D01*
X82092766Y-69117681D01*
X82251784Y-68993913D01*
X82408979Y-68823153D01*
X82535924Y-68628849D01*
X82629157Y-68416300D01*
X82686134Y-68191305D01*
X82687400Y-68176028D01*
X82705300Y-67960006D01*
X82705300Y-67959993D01*
X82686135Y-67728702D01*
X82686133Y-67728691D01*
X82629157Y-67503699D01*
X82535924Y-67291151D01*
X82408983Y-67096852D01*
X82408980Y-67096849D01*
X82408979Y-67096847D01*
X82251784Y-66926087D01*
X82074180Y-66787853D01*
X82033368Y-66731143D01*
X82029693Y-66661370D01*
X82064324Y-66600687D01*
X82074181Y-66592146D01*
X82251784Y-66453913D01*
X82408979Y-66283153D01*
X82535924Y-66088849D01*
X82629157Y-65876300D01*
X82686134Y-65651305D01*
X82686135Y-65651297D01*
X82705300Y-65420006D01*
X82705300Y-65419993D01*
X82686135Y-65188702D01*
X82686133Y-65188691D01*
X82629157Y-64963699D01*
X82535924Y-64751151D01*
X82408983Y-64556852D01*
X82408980Y-64556849D01*
X82408979Y-64556847D01*
X82251784Y-64386087D01*
X82074180Y-64247853D01*
X82033368Y-64191143D01*
X82029693Y-64121370D01*
X82064324Y-64060687D01*
X82074181Y-64052146D01*
X82251784Y-63913913D01*
X82408979Y-63743153D01*
X82535924Y-63548849D01*
X82629157Y-63336300D01*
X82686134Y-63111305D01*
X82687899Y-63090006D01*
X82705300Y-62880006D01*
X82705300Y-62879993D01*
X82686135Y-62648702D01*
X82686133Y-62648691D01*
X82629157Y-62423699D01*
X82535924Y-62211151D01*
X82408983Y-62016852D01*
X82408980Y-62016849D01*
X82408979Y-62016847D01*
X82251784Y-61846087D01*
X82074180Y-61707853D01*
X82033368Y-61651143D01*
X82029693Y-61581370D01*
X82064324Y-61520687D01*
X82074181Y-61512146D01*
X82077528Y-61509541D01*
X82251784Y-61373913D01*
X82408979Y-61203153D01*
X82535924Y-61008849D01*
X82629157Y-60796300D01*
X82686134Y-60571305D01*
X82686135Y-60571297D01*
X82705300Y-60340006D01*
X82705300Y-60339993D01*
X82686135Y-60108702D01*
X82686133Y-60108691D01*
X82629157Y-59883699D01*
X82535924Y-59671151D01*
X82408983Y-59476852D01*
X82408980Y-59476849D01*
X82408979Y-59476847D01*
X82251784Y-59306087D01*
X82074180Y-59167853D01*
X82033368Y-59111143D01*
X82029693Y-59041370D01*
X82064324Y-58980687D01*
X82074181Y-58972146D01*
X82251784Y-58833913D01*
X82408979Y-58663153D01*
X82535924Y-58468849D01*
X82629157Y-58256300D01*
X82686134Y-58031305D01*
X82686285Y-58029483D01*
X82705300Y-57800006D01*
X82705300Y-57799993D01*
X82686135Y-57568702D01*
X82686133Y-57568691D01*
X82629157Y-57343699D01*
X82535924Y-57131151D01*
X82408983Y-56936852D01*
X82408980Y-56936849D01*
X82408979Y-56936847D01*
X82251784Y-56766087D01*
X82074180Y-56627853D01*
X82033368Y-56571143D01*
X82029693Y-56501370D01*
X82064324Y-56440687D01*
X82074181Y-56432146D01*
X82251784Y-56293913D01*
X82408979Y-56123153D01*
X82535924Y-55928849D01*
X82629157Y-55716300D01*
X82686134Y-55491305D01*
X82691809Y-55422819D01*
X82705300Y-55260006D01*
X82705300Y-55259993D01*
X82686135Y-55028702D01*
X82686133Y-55028691D01*
X82629157Y-54803699D01*
X82535924Y-54591151D01*
X82408983Y-54396852D01*
X82408980Y-54396849D01*
X82408979Y-54396847D01*
X82251784Y-54226087D01*
X82074180Y-54087853D01*
X82033368Y-54031143D01*
X82029693Y-53961370D01*
X82064324Y-53900687D01*
X82074181Y-53892146D01*
X82101532Y-53870858D01*
X82251784Y-53753913D01*
X82408979Y-53583153D01*
X82535924Y-53388849D01*
X82629157Y-53176300D01*
X82686134Y-52951305D01*
X82705300Y-52720000D01*
X82705300Y-52719993D01*
X82686135Y-52488702D01*
X82686133Y-52488691D01*
X82629157Y-52263699D01*
X82535924Y-52051151D01*
X82408983Y-51856852D01*
X82408980Y-51856849D01*
X82408979Y-51856847D01*
X82251784Y-51686087D01*
X82074180Y-51547853D01*
X82033368Y-51491143D01*
X82029693Y-51421370D01*
X82064324Y-51360687D01*
X82074181Y-51352146D01*
X82251784Y-51213913D01*
X82408979Y-51043153D01*
X82412077Y-51038412D01*
X82479566Y-50935111D01*
X82535924Y-50848849D01*
X82629157Y-50636300D01*
X82686134Y-50411305D01*
X82686135Y-50411297D01*
X82705300Y-50180006D01*
X82705300Y-50179993D01*
X82686135Y-49948702D01*
X82686133Y-49948691D01*
X82629157Y-49723699D01*
X82535924Y-49511151D01*
X82408983Y-49316852D01*
X82408980Y-49316849D01*
X82408979Y-49316847D01*
X82251784Y-49146087D01*
X82251779Y-49146083D01*
X82251777Y-49146081D01*
X82074181Y-49007852D01*
X82033368Y-48951142D01*
X82029693Y-48881369D01*
X82064325Y-48820686D01*
X82074165Y-48812158D01*
X82251784Y-48673913D01*
X82251795Y-48673900D01*
X82252479Y-48673272D01*
X82252826Y-48673100D01*
X82255831Y-48670762D01*
X82256312Y-48671380D01*
X82315133Y-48642348D01*
X82336464Y-48640500D01*
X84004217Y-48640500D01*
X84071256Y-48660185D01*
X84091898Y-48676819D01*
X89003181Y-53588102D01*
X89036666Y-53649425D01*
X89039500Y-53675783D01*
X89039500Y-71052181D01*
X89037243Y-71141260D01*
X89037243Y-71141268D01*
X89048064Y-71201637D01*
X89048718Y-71206302D01*
X89054925Y-71267328D01*
X89054927Y-71267342D01*
X89065208Y-71300111D01*
X89067079Y-71307735D01*
X89073142Y-71341550D01*
X89073142Y-71341553D01*
X89095894Y-71398510D01*
X89097474Y-71402949D01*
X89115841Y-71461486D01*
X89115844Y-71461493D01*
X89132509Y-71491517D01*
X89135879Y-71498612D01*
X89148622Y-71530512D01*
X89148627Y-71530522D01*
X89182377Y-71581731D01*
X89184818Y-71585761D01*
X89214588Y-71639396D01*
X89214589Y-71639397D01*
X89214591Y-71639400D01*
X89236968Y-71665465D01*
X89241693Y-71671733D01*
X89254263Y-71690804D01*
X89260598Y-71700417D01*
X89303978Y-71743797D01*
X89307169Y-71747241D01*
X89341247Y-71786936D01*
X89347134Y-71793793D01*
X89374294Y-71814816D01*
X89380190Y-71820009D01*
X93188668Y-75628487D01*
X93250040Y-75693050D01*
X93250043Y-75693053D01*
X93300383Y-75728092D01*
X93304145Y-75730928D01*
X93351689Y-75769694D01*
X93351692Y-75769695D01*
X93351695Y-75769698D01*
X93382147Y-75785604D01*
X93388860Y-75789672D01*
X93417053Y-75809295D01*
X93473431Y-75833489D01*
X93477680Y-75835507D01*
X93532053Y-75863909D01*
X93559591Y-75871788D01*
X93565076Y-75873358D01*
X93572470Y-75875990D01*
X93604044Y-75889540D01*
X93604047Y-75889540D01*
X93604048Y-75889541D01*
X93664124Y-75901887D01*
X93668702Y-75903010D01*
X93670806Y-75903612D01*
X93727684Y-75919887D01*
X93761941Y-75922495D01*
X93769716Y-75923586D01*
X93803357Y-75930500D01*
X93803361Y-75930500D01*
X93864701Y-75930500D01*
X93869407Y-75930678D01*
X93896698Y-75932757D01*
X93930578Y-75935337D01*
X93930578Y-75935336D01*
X93930579Y-75935337D01*
X93964662Y-75930996D01*
X93972492Y-75930500D01*
X99757182Y-75930500D01*
X99846256Y-75932757D01*
X99846256Y-75932756D01*
X99846261Y-75932757D01*
X99906651Y-75921932D01*
X99911310Y-75921280D01*
X99953505Y-75916988D01*
X99972336Y-75915074D01*
X100005125Y-75904786D01*
X100012738Y-75902918D01*
X100046551Y-75896858D01*
X100103519Y-75874101D01*
X100107951Y-75872524D01*
X100166486Y-75854159D01*
X100196525Y-75837484D01*
X100203606Y-75834122D01*
X100235515Y-75821377D01*
X100286752Y-75787608D01*
X100290749Y-75785187D01*
X100344400Y-75755409D01*
X100370466Y-75733030D01*
X100376741Y-75728300D01*
X100377057Y-75728092D01*
X100405417Y-75709402D01*
X100448815Y-75666002D01*
X100452234Y-75662834D01*
X100498793Y-75622866D01*
X100519829Y-75595688D01*
X100524999Y-75589818D01*
X101188817Y-74926000D01*
X103977968Y-74926000D01*
X103978274Y-74930079D01*
X103978275Y-74930086D01*
X104034967Y-75178475D01*
X104034973Y-75178494D01*
X104128058Y-75415671D01*
X104128057Y-75415671D01*
X104255455Y-75636328D01*
X104414320Y-75835540D01*
X104601097Y-76008842D01*
X104811616Y-76152371D01*
X104811624Y-76152376D01*
X105041176Y-76262921D01*
X105041174Y-76262921D01*
X105284652Y-76338024D01*
X105284660Y-76338026D01*
X105414000Y-76357520D01*
X105414000Y-75221881D01*
X105507369Y-75260556D01*
X105624677Y-75276000D01*
X105703323Y-75276000D01*
X105820631Y-75260556D01*
X105914000Y-75221881D01*
X105914000Y-76357519D01*
X106043339Y-76338026D01*
X106043347Y-76338024D01*
X106286824Y-76262921D01*
X106516376Y-76152376D01*
X106516377Y-76152375D01*
X106726905Y-76008840D01*
X106913679Y-75835540D01*
X107072544Y-75636328D01*
X107199941Y-75415671D01*
X107293026Y-75178494D01*
X107293032Y-75178475D01*
X107349724Y-74930086D01*
X107349725Y-74930079D01*
X107350032Y-74926000D01*
X106209882Y-74926000D01*
X106248556Y-74832631D01*
X106269177Y-74676000D01*
X106248556Y-74519369D01*
X106209882Y-74426000D01*
X107350031Y-74426000D01*
X107349725Y-74421920D01*
X107349724Y-74421913D01*
X107293032Y-74173524D01*
X107293026Y-74173505D01*
X107199941Y-73936328D01*
X107199942Y-73936328D01*
X107072544Y-73715671D01*
X106913679Y-73516459D01*
X106726905Y-73343159D01*
X106516377Y-73199624D01*
X106516376Y-73199623D01*
X106286823Y-73089078D01*
X106286825Y-73089078D01*
X106043354Y-73013977D01*
X106043348Y-73013976D01*
X105914000Y-72994479D01*
X105914000Y-74130118D01*
X105820631Y-74091444D01*
X105703323Y-74076000D01*
X105624677Y-74076000D01*
X105507369Y-74091444D01*
X105414000Y-74130118D01*
X105414000Y-72994479D01*
X105284651Y-73013976D01*
X105284645Y-73013977D01*
X105041175Y-73089078D01*
X104811624Y-73199623D01*
X104811616Y-73199628D01*
X104601097Y-73343157D01*
X104414320Y-73516459D01*
X104255455Y-73715671D01*
X104128058Y-73936328D01*
X104034973Y-74173505D01*
X104034967Y-74173524D01*
X103978275Y-74421913D01*
X103978274Y-74421920D01*
X103977968Y-74426000D01*
X105118118Y-74426000D01*
X105079444Y-74519369D01*
X105058823Y-74676000D01*
X105079444Y-74832631D01*
X105118118Y-74926000D01*
X103977968Y-74926000D01*
X101188817Y-74926000D01*
X103129819Y-72984999D01*
X120030542Y-72984999D01*
X120030543Y-72985000D01*
X120993729Y-72985000D01*
X120981774Y-72996955D01*
X120924250Y-73109852D01*
X120904429Y-73235000D01*
X120924250Y-73360148D01*
X120981774Y-73473045D01*
X120993729Y-73485000D01*
X120030543Y-73485000D01*
X120083145Y-73681317D01*
X120083149Y-73681326D01*
X120179280Y-73887482D01*
X120309757Y-74073820D01*
X120470594Y-74234657D01*
X120656932Y-74365134D01*
X120863088Y-74461265D01*
X120863097Y-74461269D01*
X121059414Y-74513872D01*
X121059415Y-74513871D01*
X121059415Y-73550686D01*
X121071370Y-73562641D01*
X121184267Y-73620165D01*
X121277934Y-73635000D01*
X121340896Y-73635000D01*
X121434563Y-73620165D01*
X121547460Y-73562641D01*
X121559415Y-73550686D01*
X121559415Y-74513872D01*
X121755732Y-74461269D01*
X121755741Y-74461265D01*
X121961897Y-74365134D01*
X122148235Y-74234657D01*
X122309072Y-74073820D01*
X122439549Y-73887482D01*
X122535680Y-73681326D01*
X122535684Y-73681317D01*
X122588287Y-73485000D01*
X121625101Y-73485000D01*
X121637056Y-73473045D01*
X121694580Y-73360148D01*
X121714401Y-73235000D01*
X121694580Y-73109852D01*
X121637056Y-72996955D01*
X121625101Y-72985000D01*
X122588287Y-72985000D01*
X122588287Y-72984999D01*
X122535684Y-72788682D01*
X122535680Y-72788673D01*
X122439549Y-72582517D01*
X122309072Y-72396179D01*
X122148235Y-72235342D01*
X121961897Y-72104865D01*
X121755743Y-72008734D01*
X121559415Y-71956127D01*
X121559415Y-72919314D01*
X121547460Y-72907359D01*
X121434563Y-72849835D01*
X121340896Y-72835000D01*
X121277934Y-72835000D01*
X121184267Y-72849835D01*
X121071370Y-72907359D01*
X121059415Y-72919314D01*
X121059415Y-71956127D01*
X120863086Y-72008734D01*
X120656932Y-72104865D01*
X120470594Y-72235342D01*
X120309757Y-72396179D01*
X120179280Y-72582517D01*
X120083149Y-72788673D01*
X120083145Y-72788682D01*
X120030542Y-72984999D01*
X103129819Y-72984999D01*
X103190487Y-72924331D01*
X103255053Y-72862957D01*
X103290112Y-72812584D01*
X103292925Y-72808855D01*
X103331698Y-72761305D01*
X103347607Y-72730846D01*
X103351667Y-72724146D01*
X103371295Y-72695947D01*
X103395492Y-72639558D01*
X103397498Y-72635333D01*
X103425909Y-72580947D01*
X103435360Y-72547913D01*
X103437991Y-72540526D01*
X103442723Y-72529500D01*
X103451540Y-72508956D01*
X103463893Y-72448838D01*
X103465006Y-72444310D01*
X103481887Y-72385316D01*
X103484495Y-72351053D01*
X103485587Y-72343274D01*
X103492500Y-72309637D01*
X103492500Y-72248299D01*
X103492679Y-72243590D01*
X103497337Y-72182423D01*
X103492997Y-72148339D01*
X103492500Y-72140500D01*
X103492500Y-69117681D01*
X103512185Y-69050642D01*
X103528819Y-69030000D01*
X104082000Y-68476819D01*
X104143323Y-68443334D01*
X104169681Y-68440500D01*
X115121114Y-68440500D01*
X115210188Y-68442757D01*
X115210188Y-68442756D01*
X115210193Y-68442757D01*
X115270583Y-68431932D01*
X115275242Y-68431280D01*
X115317437Y-68426988D01*
X115336268Y-68425074D01*
X115369057Y-68414786D01*
X115376670Y-68412918D01*
X115410483Y-68406858D01*
X115467451Y-68384101D01*
X115471883Y-68382524D01*
X115530418Y-68364159D01*
X115560457Y-68347484D01*
X115567538Y-68344122D01*
X115599447Y-68331377D01*
X115650684Y-68297608D01*
X115654681Y-68295187D01*
X115708332Y-68265409D01*
X115734398Y-68243030D01*
X115740673Y-68238300D01*
X115745339Y-68235225D01*
X115769349Y-68219402D01*
X115812747Y-68176002D01*
X115816166Y-68172834D01*
X115862725Y-68132866D01*
X115883761Y-68105688D01*
X115888931Y-68099818D01*
X118207902Y-65780848D01*
X118272468Y-65719474D01*
X118307527Y-65669101D01*
X118310340Y-65665372D01*
X118349113Y-65617822D01*
X118365022Y-65587363D01*
X118369082Y-65580663D01*
X118388710Y-65552464D01*
X118412907Y-65496075D01*
X118414913Y-65491850D01*
X118443324Y-65437464D01*
X118452775Y-65404430D01*
X118455406Y-65397043D01*
X118462638Y-65380192D01*
X118468955Y-65365473D01*
X118481308Y-65305355D01*
X118482421Y-65300827D01*
X118499302Y-65241833D01*
X118501910Y-65207570D01*
X118503002Y-65199791D01*
X118505283Y-65188695D01*
X118509915Y-65166156D01*
X118509915Y-65104816D01*
X118510094Y-65100107D01*
X118514752Y-65038940D01*
X118514462Y-65036666D01*
X118511468Y-65013153D01*
X118510412Y-65004856D01*
X118509915Y-64997017D01*
X118509915Y-64214500D01*
X118529600Y-64147461D01*
X118582404Y-64101706D01*
X118633915Y-64090500D01*
X120291405Y-64090500D01*
X120358444Y-64110185D01*
X120367567Y-64116647D01*
X120540780Y-64251464D01*
X120540786Y-64251468D01*
X120540789Y-64251470D01*
X120744912Y-64361936D01*
X120817129Y-64386728D01*
X120964430Y-64437297D01*
X120964432Y-64437297D01*
X120964434Y-64437298D01*
X121193366Y-64475500D01*
X121193367Y-64475500D01*
X121425463Y-64475500D01*
X121425464Y-64475500D01*
X121654396Y-64437298D01*
X121873918Y-64361936D01*
X122078041Y-64251470D01*
X122088243Y-64243530D01*
X122241924Y-64123915D01*
X122261199Y-64108913D01*
X122418394Y-63938153D01*
X122545339Y-63743849D01*
X122638572Y-63531300D01*
X122695549Y-63306305D01*
X122697161Y-63286852D01*
X122714715Y-63075006D01*
X122714715Y-63074993D01*
X122695550Y-62843702D01*
X122695548Y-62843691D01*
X122638572Y-62618699D01*
X122545339Y-62406151D01*
X122418398Y-62211852D01*
X122418395Y-62211849D01*
X122418394Y-62211847D01*
X122261199Y-62041087D01*
X122261194Y-62041083D01*
X122261192Y-62041081D01*
X122078049Y-61898535D01*
X122078043Y-61898531D01*
X121873919Y-61788064D01*
X121873910Y-61788061D01*
X121654399Y-61712702D01*
X121482697Y-61684050D01*
X121425464Y-61674500D01*
X121193366Y-61674500D01*
X121147579Y-61682140D01*
X120964430Y-61712702D01*
X120744919Y-61788061D01*
X120744910Y-61788064D01*
X120540786Y-61898531D01*
X120540780Y-61898535D01*
X120357637Y-62041081D01*
X120357629Y-62041088D01*
X120349904Y-62049481D01*
X120290018Y-62085473D01*
X120258673Y-62089500D01*
X118545879Y-62089500D01*
X118478840Y-62069815D01*
X118461894Y-62056728D01*
X118461207Y-62056095D01*
X118461199Y-62056087D01*
X118410783Y-62016847D01*
X118283596Y-61917853D01*
X118242783Y-61861143D01*
X118239108Y-61791370D01*
X118273740Y-61730687D01*
X118283596Y-61722146D01*
X118295730Y-61712702D01*
X118461199Y-61583913D01*
X118618394Y-61413153D01*
X118745339Y-61218849D01*
X118838572Y-61006300D01*
X118895549Y-60781305D01*
X118910091Y-60605785D01*
X118935244Y-60540603D01*
X118945979Y-60528354D01*
X119907883Y-59566451D01*
X119972468Y-59505059D01*
X120007514Y-59454706D01*
X120010353Y-59450941D01*
X120014027Y-59446435D01*
X120049113Y-59403407D01*
X120065016Y-59372960D01*
X120069089Y-59366239D01*
X120076963Y-59354926D01*
X120088710Y-59338049D01*
X120112907Y-59281660D01*
X120114913Y-59277435D01*
X120143324Y-59223049D01*
X120152775Y-59190015D01*
X120155406Y-59182628D01*
X120168955Y-59151058D01*
X120181308Y-59090940D01*
X120182421Y-59086412D01*
X120199302Y-59027418D01*
X120200325Y-59013980D01*
X120225039Y-58948630D01*
X120281163Y-58907014D01*
X120350877Y-58902347D01*
X120411648Y-58935711D01*
X120470594Y-58994657D01*
X120656932Y-59125134D01*
X120863088Y-59221265D01*
X120863097Y-59221269D01*
X121059414Y-59273872D01*
X121059415Y-59273871D01*
X121059415Y-58310686D01*
X121071370Y-58322641D01*
X121184267Y-58380165D01*
X121277934Y-58395000D01*
X121340896Y-58395000D01*
X121434563Y-58380165D01*
X121547460Y-58322641D01*
X121559415Y-58310686D01*
X121559415Y-59273872D01*
X121755732Y-59221269D01*
X121755741Y-59221265D01*
X121961897Y-59125134D01*
X122148235Y-58994657D01*
X122309072Y-58833820D01*
X122439549Y-58647482D01*
X122535680Y-58441326D01*
X122535684Y-58441317D01*
X122588287Y-58245000D01*
X121625101Y-58245000D01*
X121637056Y-58233045D01*
X121694580Y-58120148D01*
X121714401Y-57995000D01*
X121694580Y-57869852D01*
X121637056Y-57756955D01*
X121625101Y-57745000D01*
X122588287Y-57745000D01*
X122588287Y-57744999D01*
X122535684Y-57548682D01*
X122535680Y-57548673D01*
X122439549Y-57342517D01*
X122309072Y-57156179D01*
X122148235Y-56995342D01*
X121961897Y-56864865D01*
X121755743Y-56768734D01*
X121559415Y-56716127D01*
X121559415Y-57679314D01*
X121547460Y-57667359D01*
X121434563Y-57609835D01*
X121340896Y-57595000D01*
X121277934Y-57595000D01*
X121184267Y-57609835D01*
X121071370Y-57667359D01*
X121059415Y-57679314D01*
X121059415Y-56716127D01*
X120863086Y-56768734D01*
X120656932Y-56864865D01*
X120470594Y-56995342D01*
X120421596Y-57044341D01*
X120360273Y-57077826D01*
X120290581Y-57072842D01*
X120234648Y-57030970D01*
X120210231Y-56965506D01*
X120209915Y-56956660D01*
X120209915Y-55271366D01*
X120229600Y-55204327D01*
X120246229Y-55183690D01*
X126312882Y-49117037D01*
X126377468Y-49055644D01*
X126408213Y-49011470D01*
X126412514Y-49005291D01*
X126415353Y-49001526D01*
X126419376Y-48996592D01*
X126454113Y-48953992D01*
X126470016Y-48923545D01*
X126474089Y-48916824D01*
X126489319Y-48894942D01*
X126493710Y-48888634D01*
X126517907Y-48832245D01*
X126519913Y-48828020D01*
X126548324Y-48773634D01*
X126557775Y-48740600D01*
X126560406Y-48733213D01*
X126569015Y-48713153D01*
X126573955Y-48701643D01*
X126586308Y-48641525D01*
X126587421Y-48636997D01*
X126604302Y-48578003D01*
X126606910Y-48543740D01*
X126608002Y-48535961D01*
X126613338Y-48510000D01*
X126614915Y-48502326D01*
X126614915Y-48440986D01*
X126615094Y-48436277D01*
X126619752Y-48375111D01*
X126615412Y-48341027D01*
X126614915Y-48333188D01*
X126614915Y-41810782D01*
X126634600Y-41743743D01*
X126651234Y-41723101D01*
X126682470Y-41691865D01*
X126747052Y-41630475D01*
X126747052Y-41630474D01*
X126747053Y-41630474D01*
X126782099Y-41580121D01*
X126784938Y-41576356D01*
X126797999Y-41560338D01*
X126823698Y-41528822D01*
X126839601Y-41498375D01*
X126843674Y-41491654D01*
X126849655Y-41483061D01*
X126863295Y-41463464D01*
X126887492Y-41407075D01*
X126889498Y-41402850D01*
X126917909Y-41348464D01*
X126927357Y-41315437D01*
X126929988Y-41308048D01*
X126943540Y-41276473D01*
X126955895Y-41216345D01*
X126956999Y-41211844D01*
X126973886Y-41152833D01*
X126976494Y-41118572D01*
X126977585Y-41110804D01*
X126984500Y-41077158D01*
X126984500Y-41015813D01*
X126984679Y-41011103D01*
X126989337Y-40949939D01*
X126984997Y-40915857D01*
X126984500Y-40908018D01*
X126984500Y-33253170D01*
X126986757Y-33164113D01*
X126986756Y-33164112D01*
X126986757Y-33164109D01*
X126975933Y-33103721D01*
X126975280Y-33099059D01*
X126969074Y-33038035D01*
X126969074Y-33038034D01*
X126958784Y-33005240D01*
X126956917Y-32997627D01*
X126950858Y-32963819D01*
X126950857Y-32963817D01*
X126948336Y-32957507D01*
X126928100Y-32906846D01*
X126926521Y-32902410D01*
X126925182Y-32898143D01*
X126908159Y-32843884D01*
X126908158Y-32843882D01*
X126908157Y-32843879D01*
X126891488Y-32813850D01*
X126888117Y-32806750D01*
X126875378Y-32774858D01*
X126875377Y-32774855D01*
X126841620Y-32723635D01*
X126839180Y-32719606D01*
X126828379Y-32700147D01*
X126809409Y-32665970D01*
X126809407Y-32665967D01*
X126787033Y-32639906D01*
X126782302Y-32633631D01*
X126763402Y-32604953D01*
X126720033Y-32561584D01*
X126716830Y-32558128D01*
X126697351Y-32535439D01*
X126676866Y-32511577D01*
X126660654Y-32499028D01*
X126621405Y-32446972D01*
X126576503Y-32334560D01*
X126464528Y-32164658D01*
X126464526Y-32164656D01*
X126464525Y-32164654D01*
X123446401Y-29146532D01*
X123385010Y-29081949D01*
X123385009Y-29081948D01*
X123385008Y-29081947D01*
X123357153Y-29062559D01*
X123334658Y-29046902D01*
X123330895Y-29044064D01*
X123283362Y-29005305D01*
X123283355Y-29005300D01*
X123252908Y-28989397D01*
X123246200Y-28985334D01*
X123217998Y-28965705D01*
X123217995Y-28965703D01*
X123217994Y-28965703D01*
X123217990Y-28965701D01*
X123161629Y-28941514D01*
X123157373Y-28939493D01*
X123103006Y-28911094D01*
X123102999Y-28911091D01*
X123102998Y-28911091D01*
X123096957Y-28909362D01*
X123069979Y-28901642D01*
X123062579Y-28899008D01*
X123031006Y-28885459D01*
X123031007Y-28885459D01*
X122970915Y-28873109D01*
X122966340Y-28871986D01*
X122907369Y-28855113D01*
X122907374Y-28855113D01*
X122873107Y-28852503D01*
X122865329Y-28851412D01*
X122831691Y-28844500D01*
X122831690Y-28844500D01*
X122770351Y-28844500D01*
X122765644Y-28844321D01*
X122760070Y-28843896D01*
X122704473Y-28839662D01*
X122684538Y-28842201D01*
X122670389Y-28844003D01*
X122662560Y-28844500D01*
X104660699Y-28844500D01*
X104571639Y-28842242D01*
X104571638Y-28842242D01*
X104569895Y-28842555D01*
X104548021Y-28844500D01*
X104166929Y-28844500D01*
X104163789Y-28844420D01*
X104089065Y-28840631D01*
X104089058Y-28840631D01*
X104015124Y-28851957D01*
X104012010Y-28852354D01*
X103937566Y-28859925D01*
X103937557Y-28859927D01*
X103922187Y-28864749D01*
X103903858Y-28869003D01*
X103887929Y-28871444D01*
X103887926Y-28871445D01*
X103817773Y-28897425D01*
X103814802Y-28898441D01*
X103743412Y-28920840D01*
X103729322Y-28928661D01*
X103712220Y-28936518D01*
X103697118Y-28942111D01*
X103697113Y-28942114D01*
X103680076Y-28952732D01*
X103614487Y-28971500D01*
X89942929Y-28971500D01*
X89939789Y-28971420D01*
X89865064Y-28967631D01*
X89865060Y-28967631D01*
X89849143Y-28970070D01*
X89830367Y-28971500D01*
X77379125Y-28971500D01*
X77312086Y-28951815D01*
X77279858Y-28921811D01*
X77279131Y-28920840D01*
X77131971Y-28724258D01*
X77131966Y-28724253D01*
X77131961Y-28724247D01*
X76939752Y-28532038D01*
X76939746Y-28532033D01*
X76939742Y-28532029D01*
X76722113Y-28369113D01*
X76722108Y-28369110D01*
X76722107Y-28369109D01*
X76483518Y-28238830D01*
X76483519Y-28238830D01*
X76433920Y-28220330D01*
X76228801Y-28143825D01*
X76228794Y-28143823D01*
X76228793Y-28143823D01*
X75963167Y-28086040D01*
X75963160Y-28086039D01*
X75692001Y-28066645D01*
X75691999Y-28066645D01*
X75420839Y-28086039D01*
X75420832Y-28086040D01*
X75155206Y-28143823D01*
X75155202Y-28143824D01*
X75155199Y-28143825D01*
X75027843Y-28191326D01*
X74900480Y-28238830D01*
X74661892Y-28369109D01*
X74661891Y-28369110D01*
X74444259Y-28532028D01*
X74444247Y-28532038D01*
X74252038Y-28724247D01*
X74252028Y-28724259D01*
X74089110Y-28941891D01*
X74089109Y-28941892D01*
X73958830Y-29180480D01*
X73922035Y-29279132D01*
X73863825Y-29435199D01*
X73863824Y-29435202D01*
X73863823Y-29435206D01*
X73806040Y-29700832D01*
X73806039Y-29700839D01*
X73786645Y-29971998D01*
X73786645Y-29972001D01*
X73806039Y-30243160D01*
X73806040Y-30243167D01*
X73859212Y-30487595D01*
X73863825Y-30508801D01*
X73906143Y-30622259D01*
X73958830Y-30763519D01*
X74089109Y-31002107D01*
X74089110Y-31002108D01*
X74089113Y-31002113D01*
X74252029Y-31219742D01*
X74252033Y-31219746D01*
X74252038Y-31219752D01*
X74444247Y-31411961D01*
X74444253Y-31411966D01*
X74444258Y-31411971D01*
X74661887Y-31574887D01*
X74661891Y-31574889D01*
X74661892Y-31574890D01*
X74900481Y-31705169D01*
X74900480Y-31705169D01*
X74900484Y-31705170D01*
X74900487Y-31705172D01*
X75155199Y-31800175D01*
X75420840Y-31857961D01*
X75672605Y-31875967D01*
X75691999Y-31877355D01*
X75692000Y-31877355D01*
X75692001Y-31877355D01*
X75710100Y-31876060D01*
X75963160Y-31857961D01*
X76228801Y-31800175D01*
X76483513Y-31705172D01*
X76483517Y-31705169D01*
X76483519Y-31705169D01*
X76622098Y-31629499D01*
X76722113Y-31574887D01*
X76939742Y-31411971D01*
X77131971Y-31219742D01*
X77279858Y-31022188D01*
X77335792Y-30980318D01*
X77379125Y-30972500D01*
X88791500Y-30972500D01*
X88858539Y-30992185D01*
X88904294Y-31044989D01*
X88915500Y-31096500D01*
X88915500Y-37054653D01*
X88913243Y-37143732D01*
X88913243Y-37143740D01*
X88924064Y-37204109D01*
X88924718Y-37208774D01*
X88930925Y-37269800D01*
X88930927Y-37269814D01*
X88941208Y-37302583D01*
X88943079Y-37310207D01*
X88949142Y-37344022D01*
X88949142Y-37344025D01*
X88971894Y-37400982D01*
X88973474Y-37405421D01*
X88991841Y-37463958D01*
X88991844Y-37463965D01*
X89008509Y-37493989D01*
X89011879Y-37501084D01*
X89024622Y-37532984D01*
X89024627Y-37532994D01*
X89058377Y-37584203D01*
X89060818Y-37588233D01*
X89090588Y-37641868D01*
X89090589Y-37641869D01*
X89090591Y-37641872D01*
X89112968Y-37667937D01*
X89117693Y-37674205D01*
X89120965Y-37679169D01*
X89136598Y-37702889D01*
X89179978Y-37746269D01*
X89183169Y-37749713D01*
X89223131Y-37796262D01*
X89223130Y-37796262D01*
X89250299Y-37817293D01*
X89256186Y-37822477D01*
X94692177Y-43258467D01*
X94753571Y-43323053D01*
X94753574Y-43323055D01*
X94753577Y-43323058D01*
X94787683Y-43346795D01*
X94803933Y-43358106D01*
X94807674Y-43360926D01*
X94855223Y-43399698D01*
X94885675Y-43415604D01*
X94892386Y-43419671D01*
X94897389Y-43423153D01*
X94920581Y-43439295D01*
X94976959Y-43463489D01*
X94981208Y-43465507D01*
X95035581Y-43493909D01*
X95063119Y-43501788D01*
X95068604Y-43503358D01*
X95075998Y-43505990D01*
X95107572Y-43519540D01*
X95107575Y-43519540D01*
X95107576Y-43519541D01*
X95167652Y-43531887D01*
X95172230Y-43533010D01*
X95186131Y-43536987D01*
X95231212Y-43549887D01*
X95265469Y-43552495D01*
X95273244Y-43553586D01*
X95306885Y-43560500D01*
X95306889Y-43560500D01*
X95368228Y-43560500D01*
X95372934Y-43560678D01*
X95407692Y-43563325D01*
X95434105Y-43565337D01*
X95434105Y-43565336D01*
X95434106Y-43565337D01*
X95468189Y-43560996D01*
X95476019Y-43560500D01*
X95503536Y-43560500D01*
X95570575Y-43580185D01*
X95587521Y-43593272D01*
X95588207Y-43593903D01*
X95588216Y-43593913D01*
X95638624Y-43633147D01*
X95765818Y-43732146D01*
X95806631Y-43788856D01*
X95810306Y-43858629D01*
X95775674Y-43919312D01*
X95765819Y-43927852D01*
X95588218Y-44066085D01*
X95431016Y-44236852D01*
X95304075Y-44431151D01*
X95210842Y-44643699D01*
X95153866Y-44868691D01*
X95153864Y-44868702D01*
X95134700Y-45099993D01*
X95134700Y-45100006D01*
X95153864Y-45331297D01*
X95153866Y-45331308D01*
X95210842Y-45556300D01*
X95304075Y-45768848D01*
X95431016Y-45963147D01*
X95431019Y-45963151D01*
X95431021Y-45963153D01*
X95588216Y-46133913D01*
X95588219Y-46133915D01*
X95588222Y-46133918D01*
X95765818Y-46272147D01*
X95806631Y-46328857D01*
X95810306Y-46398630D01*
X95775674Y-46459313D01*
X95765818Y-46467853D01*
X95588222Y-46606081D01*
X95588219Y-46606084D01*
X95431016Y-46776852D01*
X95304075Y-46971151D01*
X95210842Y-47183699D01*
X95153866Y-47408691D01*
X95153864Y-47408702D01*
X95134700Y-47639993D01*
X95134700Y-47640006D01*
X95153864Y-47871297D01*
X95153866Y-47871308D01*
X95210842Y-48096300D01*
X95304075Y-48308848D01*
X95431016Y-48503147D01*
X95431019Y-48503151D01*
X95431021Y-48503153D01*
X95588216Y-48673913D01*
X95588219Y-48673915D01*
X95588222Y-48673918D01*
X95765818Y-48812147D01*
X95806631Y-48868857D01*
X95810306Y-48938630D01*
X95775674Y-48999313D01*
X95765818Y-49007853D01*
X95588222Y-49146081D01*
X95588219Y-49146084D01*
X95588216Y-49146086D01*
X95588216Y-49146087D01*
X95557457Y-49179500D01*
X95431016Y-49316852D01*
X95304075Y-49511151D01*
X95210842Y-49723699D01*
X95153866Y-49948691D01*
X95153864Y-49948702D01*
X95134700Y-50179993D01*
X95134700Y-50180006D01*
X95153864Y-50411297D01*
X95153866Y-50411308D01*
X95210842Y-50636300D01*
X95304075Y-50848848D01*
X95431016Y-51043147D01*
X95431019Y-51043151D01*
X95431021Y-51043153D01*
X95588216Y-51213913D01*
X95588219Y-51213915D01*
X95588222Y-51213918D01*
X95765818Y-51352147D01*
X95806631Y-51408857D01*
X95810306Y-51478630D01*
X95775674Y-51539313D01*
X95765818Y-51547853D01*
X95588222Y-51686081D01*
X95588219Y-51686084D01*
X95588216Y-51686086D01*
X95588216Y-51686087D01*
X95557748Y-51719184D01*
X95431016Y-51856852D01*
X95304075Y-52051151D01*
X95210842Y-52263699D01*
X95153866Y-52488691D01*
X95153864Y-52488702D01*
X95134700Y-52719993D01*
X95134700Y-52720006D01*
X95153864Y-52951297D01*
X95153866Y-52951308D01*
X95210842Y-53176300D01*
X95304075Y-53388848D01*
X95431016Y-53583147D01*
X95431019Y-53583151D01*
X95431021Y-53583153D01*
X95588216Y-53753913D01*
X95588219Y-53753915D01*
X95588222Y-53753918D01*
X95765818Y-53892147D01*
X95806631Y-53948857D01*
X95810306Y-54018630D01*
X95775674Y-54079313D01*
X95765818Y-54087853D01*
X95588222Y-54226081D01*
X95588219Y-54226084D01*
X95588216Y-54226086D01*
X95588216Y-54226087D01*
X95557457Y-54259500D01*
X95431016Y-54396852D01*
X95304075Y-54591151D01*
X95210842Y-54803699D01*
X95153866Y-55028691D01*
X95153864Y-55028702D01*
X95134700Y-55259993D01*
X95134700Y-55260006D01*
X95153864Y-55491297D01*
X95153866Y-55491308D01*
X95210842Y-55716300D01*
X95304075Y-55928848D01*
X95431016Y-56123147D01*
X95431019Y-56123151D01*
X95431021Y-56123153D01*
X95588216Y-56293913D01*
X95588219Y-56293915D01*
X95588222Y-56293918D01*
X95765818Y-56432147D01*
X95806631Y-56488857D01*
X95810306Y-56558630D01*
X95775674Y-56619313D01*
X95765818Y-56627853D01*
X95588222Y-56766081D01*
X95588219Y-56766084D01*
X95588216Y-56766086D01*
X95588216Y-56766087D01*
X95549191Y-56808480D01*
X95431016Y-56936852D01*
X95304075Y-57131151D01*
X95210842Y-57343699D01*
X95153866Y-57568691D01*
X95153864Y-57568702D01*
X95134700Y-57799993D01*
X95134700Y-57800006D01*
X95153864Y-58031297D01*
X95153866Y-58031308D01*
X95210842Y-58256300D01*
X95304075Y-58468848D01*
X95431016Y-58663147D01*
X95431019Y-58663151D01*
X95431021Y-58663153D01*
X95588216Y-58833913D01*
X95588219Y-58833915D01*
X95588222Y-58833918D01*
X95765818Y-58972147D01*
X95806631Y-59028857D01*
X95810306Y-59098630D01*
X95775674Y-59159313D01*
X95765818Y-59167853D01*
X95588222Y-59306081D01*
X95588219Y-59306084D01*
X95588216Y-59306086D01*
X95588216Y-59306087D01*
X95558797Y-59338045D01*
X95431016Y-59476852D01*
X95304075Y-59671151D01*
X95210842Y-59883699D01*
X95153866Y-60108691D01*
X95153864Y-60108702D01*
X95134700Y-60339993D01*
X95134700Y-60340006D01*
X95153864Y-60571297D01*
X95153866Y-60571308D01*
X95210842Y-60796300D01*
X95304075Y-61008848D01*
X95431016Y-61203147D01*
X95431019Y-61203151D01*
X95431021Y-61203153D01*
X95588216Y-61373913D01*
X95588219Y-61373915D01*
X95588222Y-61373918D01*
X95765818Y-61512147D01*
X95806631Y-61568857D01*
X95810306Y-61638630D01*
X95775674Y-61699313D01*
X95765818Y-61707853D01*
X95588222Y-61846081D01*
X95588219Y-61846084D01*
X95588216Y-61846086D01*
X95588216Y-61846087D01*
X95557457Y-61879500D01*
X95431016Y-62016852D01*
X95304075Y-62211151D01*
X95210842Y-62423699D01*
X95153866Y-62648691D01*
X95153864Y-62648702D01*
X95134700Y-62879993D01*
X95134700Y-62880006D01*
X95153864Y-63111297D01*
X95153866Y-63111308D01*
X95210842Y-63336300D01*
X95304075Y-63548848D01*
X95431016Y-63743147D01*
X95431019Y-63743151D01*
X95431021Y-63743153D01*
X95588216Y-63913913D01*
X95588219Y-63913915D01*
X95588222Y-63913918D01*
X95765818Y-64052147D01*
X95806631Y-64108857D01*
X95810306Y-64178630D01*
X95775674Y-64239313D01*
X95765818Y-64247853D01*
X95588222Y-64386081D01*
X95588219Y-64386084D01*
X95588216Y-64386086D01*
X95588216Y-64386087D01*
X95557457Y-64419500D01*
X95431016Y-64556852D01*
X95304075Y-64751151D01*
X95210842Y-64963699D01*
X95153866Y-65188691D01*
X95153864Y-65188702D01*
X95134700Y-65419993D01*
X95134700Y-65420006D01*
X95153864Y-65651297D01*
X95153866Y-65651308D01*
X95210842Y-65876300D01*
X95304075Y-66088848D01*
X95431016Y-66283147D01*
X95431019Y-66283151D01*
X95431021Y-66283153D01*
X95588216Y-66453913D01*
X95588219Y-66453915D01*
X95588222Y-66453918D01*
X95765818Y-66592147D01*
X95806631Y-66648857D01*
X95810306Y-66718630D01*
X95775674Y-66779313D01*
X95765818Y-66787853D01*
X95588222Y-66926081D01*
X95588219Y-66926084D01*
X95588216Y-66926086D01*
X95588216Y-66926087D01*
X95557457Y-66959500D01*
X95431016Y-67096852D01*
X95304075Y-67291151D01*
X95210842Y-67503699D01*
X95153866Y-67728691D01*
X95153864Y-67728702D01*
X95134700Y-67959993D01*
X95134700Y-67960006D01*
X95153864Y-68191297D01*
X95153866Y-68191308D01*
X95210842Y-68416300D01*
X95304075Y-68628848D01*
X95431016Y-68823147D01*
X95431019Y-68823151D01*
X95431021Y-68823153D01*
X95588216Y-68993913D01*
X95588219Y-68993915D01*
X95588222Y-68993918D01*
X95765818Y-69132147D01*
X95806631Y-69188857D01*
X95810306Y-69258630D01*
X95775674Y-69319313D01*
X95765818Y-69327853D01*
X95588222Y-69466081D01*
X95588219Y-69466084D01*
X95431016Y-69636852D01*
X95304075Y-69831151D01*
X95210842Y-70043699D01*
X95153866Y-70268691D01*
X95153864Y-70268702D01*
X95134700Y-70499993D01*
X95134700Y-70500006D01*
X95153864Y-70731297D01*
X95153866Y-70731308D01*
X95210842Y-70956300D01*
X95304075Y-71168848D01*
X95431016Y-71363147D01*
X95431019Y-71363151D01*
X95431021Y-71363153D01*
X95588216Y-71533913D01*
X95588219Y-71533915D01*
X95588222Y-71533918D01*
X95771365Y-71676464D01*
X95771371Y-71676468D01*
X95771374Y-71676470D01*
X95975497Y-71786936D01*
X96089487Y-71826068D01*
X96195015Y-71862297D01*
X96195017Y-71862297D01*
X96195019Y-71862298D01*
X96423951Y-71900500D01*
X96423952Y-71900500D01*
X96656048Y-71900500D01*
X96656049Y-71900500D01*
X96884981Y-71862298D01*
X97104503Y-71786936D01*
X97308626Y-71676470D01*
X97491784Y-71533913D01*
X97648979Y-71363153D01*
X97775924Y-71168849D01*
X97869157Y-70956300D01*
X97926134Y-70731305D01*
X97930344Y-70680498D01*
X97945300Y-70500006D01*
X97945300Y-70499993D01*
X97926135Y-70268702D01*
X97926133Y-70268691D01*
X97869157Y-70043699D01*
X97775924Y-69831151D01*
X97648983Y-69636852D01*
X97648980Y-69636849D01*
X97648979Y-69636847D01*
X97491784Y-69466087D01*
X97314180Y-69327853D01*
X97273368Y-69271143D01*
X97269693Y-69201370D01*
X97304324Y-69140687D01*
X97314181Y-69132146D01*
X97332766Y-69117681D01*
X97491784Y-68993913D01*
X97648979Y-68823153D01*
X97775924Y-68628849D01*
X97869157Y-68416300D01*
X97926134Y-68191305D01*
X97927400Y-68176028D01*
X97945300Y-67960006D01*
X97945300Y-67959993D01*
X97926135Y-67728702D01*
X97926133Y-67728691D01*
X97869157Y-67503699D01*
X97775924Y-67291151D01*
X97648983Y-67096852D01*
X97648980Y-67096849D01*
X97648979Y-67096847D01*
X97491784Y-66926087D01*
X97314180Y-66787853D01*
X97273368Y-66731143D01*
X97269693Y-66661370D01*
X97304324Y-66600687D01*
X97314181Y-66592146D01*
X97491784Y-66453913D01*
X97648979Y-66283153D01*
X97775924Y-66088849D01*
X97869157Y-65876300D01*
X97926134Y-65651305D01*
X97926135Y-65651297D01*
X97945300Y-65420006D01*
X97945300Y-65419993D01*
X97926135Y-65188702D01*
X97926133Y-65188691D01*
X97869157Y-64963699D01*
X97775924Y-64751151D01*
X97648983Y-64556852D01*
X97648980Y-64556849D01*
X97648979Y-64556847D01*
X97491784Y-64386087D01*
X97314180Y-64247853D01*
X97273368Y-64191143D01*
X97269693Y-64121370D01*
X97304324Y-64060687D01*
X97314181Y-64052146D01*
X97491784Y-63913913D01*
X97648979Y-63743153D01*
X97775924Y-63548849D01*
X97869157Y-63336300D01*
X97926134Y-63111305D01*
X97927899Y-63090006D01*
X97945300Y-62880006D01*
X97945300Y-62879993D01*
X97926135Y-62648702D01*
X97926133Y-62648691D01*
X97869157Y-62423699D01*
X97775924Y-62211151D01*
X97648983Y-62016852D01*
X97648980Y-62016849D01*
X97648979Y-62016847D01*
X97491784Y-61846087D01*
X97314180Y-61707853D01*
X97273368Y-61651143D01*
X97269693Y-61581370D01*
X97304324Y-61520687D01*
X97314181Y-61512146D01*
X97317528Y-61509541D01*
X97491784Y-61373913D01*
X97648979Y-61203153D01*
X97775924Y-61008849D01*
X97869157Y-60796300D01*
X97926134Y-60571305D01*
X97926135Y-60571297D01*
X97945300Y-60340006D01*
X97945300Y-60339993D01*
X97926135Y-60108702D01*
X97926133Y-60108691D01*
X97869157Y-59883699D01*
X97775924Y-59671151D01*
X97648983Y-59476852D01*
X97648980Y-59476849D01*
X97648979Y-59476847D01*
X97491784Y-59306087D01*
X97314180Y-59167853D01*
X97273368Y-59111143D01*
X97269693Y-59041370D01*
X97304324Y-58980687D01*
X97314181Y-58972146D01*
X97491784Y-58833913D01*
X97648979Y-58663153D01*
X97775924Y-58468849D01*
X97869157Y-58256300D01*
X97926134Y-58031305D01*
X97926285Y-58029483D01*
X97945300Y-57800006D01*
X97945300Y-57799993D01*
X97926135Y-57568702D01*
X97926133Y-57568691D01*
X97869157Y-57343699D01*
X97775924Y-57131151D01*
X97648983Y-56936852D01*
X97648980Y-56936849D01*
X97648979Y-56936847D01*
X97491784Y-56766087D01*
X97327217Y-56638000D01*
X100675968Y-56638000D01*
X100676274Y-56642079D01*
X100676275Y-56642086D01*
X100732967Y-56890475D01*
X100732973Y-56890494D01*
X100826058Y-57127671D01*
X100826057Y-57127671D01*
X100953455Y-57348328D01*
X101112320Y-57547540D01*
X101299097Y-57720842D01*
X101509616Y-57864371D01*
X101509624Y-57864376D01*
X101739176Y-57974921D01*
X101739174Y-57974921D01*
X101982652Y-58050024D01*
X101982660Y-58050026D01*
X102112000Y-58069520D01*
X102112000Y-56933881D01*
X102205369Y-56972556D01*
X102322677Y-56988000D01*
X102401323Y-56988000D01*
X102518631Y-56972556D01*
X102612000Y-56933881D01*
X102612000Y-58069519D01*
X102741339Y-58050026D01*
X102741347Y-58050024D01*
X102984824Y-57974921D01*
X103214376Y-57864376D01*
X103214377Y-57864375D01*
X103424905Y-57720840D01*
X103611679Y-57547540D01*
X103770544Y-57348328D01*
X103897941Y-57127671D01*
X103991026Y-56890494D01*
X103991032Y-56890475D01*
X104047724Y-56642086D01*
X104047725Y-56642079D01*
X104048032Y-56638000D01*
X102907882Y-56638000D01*
X102946556Y-56544631D01*
X102967177Y-56388000D01*
X102946556Y-56231369D01*
X102907882Y-56138000D01*
X104048031Y-56138000D01*
X104047725Y-56133920D01*
X104047724Y-56133913D01*
X103991032Y-55885524D01*
X103991026Y-55885505D01*
X103897941Y-55648328D01*
X103897942Y-55648328D01*
X103770544Y-55427671D01*
X103611679Y-55228459D01*
X103424905Y-55055159D01*
X103214377Y-54911624D01*
X103214376Y-54911623D01*
X102984823Y-54801078D01*
X102984825Y-54801078D01*
X102741354Y-54725977D01*
X102741348Y-54725976D01*
X102612000Y-54706479D01*
X102612000Y-55842118D01*
X102518631Y-55803444D01*
X102401323Y-55788000D01*
X102322677Y-55788000D01*
X102205369Y-55803444D01*
X102112000Y-55842118D01*
X102112000Y-54706479D01*
X101982651Y-54725976D01*
X101982645Y-54725977D01*
X101739175Y-54801078D01*
X101509624Y-54911623D01*
X101509616Y-54911628D01*
X101299097Y-55055157D01*
X101112320Y-55228459D01*
X100953455Y-55427671D01*
X100826058Y-55648328D01*
X100732973Y-55885505D01*
X100732967Y-55885524D01*
X100676275Y-56133913D01*
X100676274Y-56133920D01*
X100675968Y-56138000D01*
X101816118Y-56138000D01*
X101777444Y-56231369D01*
X101756823Y-56388000D01*
X101777444Y-56544631D01*
X101816118Y-56638000D01*
X100675968Y-56638000D01*
X97327217Y-56638000D01*
X97314180Y-56627853D01*
X97273368Y-56571143D01*
X97269693Y-56501370D01*
X97304324Y-56440687D01*
X97314181Y-56432146D01*
X97491784Y-56293913D01*
X97648979Y-56123153D01*
X97775924Y-55928849D01*
X97869157Y-55716300D01*
X97926134Y-55491305D01*
X97931809Y-55422819D01*
X97945300Y-55260006D01*
X97945300Y-55259993D01*
X97926135Y-55028702D01*
X97926133Y-55028691D01*
X97869157Y-54803699D01*
X97775924Y-54591151D01*
X97648983Y-54396852D01*
X97648980Y-54396849D01*
X97648979Y-54396847D01*
X97491784Y-54226087D01*
X97314180Y-54087853D01*
X97273368Y-54031143D01*
X97269693Y-53961370D01*
X97304324Y-53900687D01*
X97314181Y-53892146D01*
X97341532Y-53870858D01*
X97491784Y-53753913D01*
X97648979Y-53583153D01*
X97775924Y-53388849D01*
X97869157Y-53176300D01*
X97926134Y-52951305D01*
X97945300Y-52720000D01*
X97945300Y-52719993D01*
X97926135Y-52488702D01*
X97926133Y-52488691D01*
X97869157Y-52263699D01*
X97775924Y-52051151D01*
X97648983Y-51856852D01*
X97648980Y-51856849D01*
X97648979Y-51856847D01*
X97491784Y-51686087D01*
X97314180Y-51547853D01*
X97273368Y-51491143D01*
X97269693Y-51421370D01*
X97304324Y-51360687D01*
X97314181Y-51352146D01*
X97491784Y-51213913D01*
X97648979Y-51043153D01*
X97652077Y-51038412D01*
X97719566Y-50935111D01*
X97775924Y-50848849D01*
X97869157Y-50636300D01*
X97926134Y-50411305D01*
X97926135Y-50411297D01*
X97945300Y-50180006D01*
X97945300Y-50179993D01*
X97926135Y-49948702D01*
X97926133Y-49948691D01*
X97869157Y-49723699D01*
X97775924Y-49511151D01*
X97648983Y-49316852D01*
X97648980Y-49316849D01*
X97648979Y-49316847D01*
X97491784Y-49146087D01*
X97314180Y-49007853D01*
X97273368Y-48951143D01*
X97269693Y-48881370D01*
X97304324Y-48820687D01*
X97314181Y-48812146D01*
X97491784Y-48673913D01*
X97648979Y-48503153D01*
X97775924Y-48308849D01*
X97869157Y-48096300D01*
X97926134Y-47871305D01*
X97927899Y-47850006D01*
X97945300Y-47640006D01*
X97945300Y-47639993D01*
X97926135Y-47408702D01*
X97926133Y-47408691D01*
X97869157Y-47183699D01*
X97775924Y-46971151D01*
X97648983Y-46776852D01*
X97648980Y-46776849D01*
X97648979Y-46776847D01*
X97491784Y-46606087D01*
X97314180Y-46467853D01*
X97273368Y-46411143D01*
X97269693Y-46341370D01*
X97304324Y-46280687D01*
X97314181Y-46272146D01*
X97317528Y-46269541D01*
X97491784Y-46133913D01*
X97648979Y-45963153D01*
X97775924Y-45768849D01*
X97869157Y-45556300D01*
X97926134Y-45331305D01*
X97927899Y-45310006D01*
X97945300Y-45100006D01*
X97945300Y-45099993D01*
X97926135Y-44868702D01*
X97926133Y-44868691D01*
X97869157Y-44643699D01*
X97775924Y-44431151D01*
X97648983Y-44236852D01*
X97648980Y-44236849D01*
X97648979Y-44236847D01*
X97491784Y-44066087D01*
X97314180Y-43927853D01*
X97273368Y-43871143D01*
X97269693Y-43801370D01*
X97304324Y-43740687D01*
X97314181Y-43732146D01*
X97491784Y-43593913D01*
X97648979Y-43423153D01*
X97659195Y-43407517D01*
X97690602Y-43359444D01*
X97775924Y-43228849D01*
X97869157Y-43016300D01*
X97926134Y-42791305D01*
X97926135Y-42791297D01*
X97945300Y-42560006D01*
X97945300Y-42559993D01*
X97926135Y-42328702D01*
X97926133Y-42328691D01*
X97869157Y-42103699D01*
X97775924Y-41891151D01*
X97648983Y-41696852D01*
X97648980Y-41696849D01*
X97648979Y-41696847D01*
X97491784Y-41526087D01*
X97314180Y-41387853D01*
X97273368Y-41331143D01*
X97269693Y-41261370D01*
X97304324Y-41200687D01*
X97314181Y-41192146D01*
X97491784Y-41053913D01*
X97648979Y-40883153D01*
X97775924Y-40688849D01*
X97869157Y-40476300D01*
X97926134Y-40251305D01*
X97930344Y-40200500D01*
X97945300Y-40020006D01*
X97945300Y-40019993D01*
X97926135Y-39788702D01*
X97926133Y-39788691D01*
X97869157Y-39563699D01*
X97775924Y-39351151D01*
X97648983Y-39156852D01*
X97648980Y-39156849D01*
X97648979Y-39156847D01*
X97491784Y-38986087D01*
X97491779Y-38986083D01*
X97491777Y-38986081D01*
X97308634Y-38843535D01*
X97308619Y-38843525D01*
X97231603Y-38801846D01*
X97182013Y-38752627D01*
X97166905Y-38684410D01*
X97191076Y-38618855D01*
X97219498Y-38591217D01*
X97378817Y-38479660D01*
X97539657Y-38318820D01*
X97670134Y-38132482D01*
X97766265Y-37926326D01*
X97766269Y-37926317D01*
X97818872Y-37730000D01*
X96973686Y-37730000D01*
X96999493Y-37689844D01*
X97040000Y-37551889D01*
X97040000Y-37408111D01*
X96999493Y-37270156D01*
X96973686Y-37230000D01*
X97818872Y-37230000D01*
X97818872Y-37229999D01*
X97766269Y-37033682D01*
X97766265Y-37033673D01*
X97670134Y-36827517D01*
X97539657Y-36641179D01*
X97378820Y-36480342D01*
X97219497Y-36368782D01*
X97175872Y-36314205D01*
X97168680Y-36244706D01*
X97200202Y-36182352D01*
X97231602Y-36158152D01*
X97308626Y-36116470D01*
X97491784Y-35973913D01*
X97648979Y-35803153D01*
X97775924Y-35608849D01*
X97869157Y-35396300D01*
X97926134Y-35171305D01*
X97926368Y-35168481D01*
X97945300Y-34940006D01*
X97945300Y-34939993D01*
X97926135Y-34708702D01*
X97926133Y-34708691D01*
X97869157Y-34483699D01*
X97775924Y-34271151D01*
X97648983Y-34076852D01*
X97648980Y-34076849D01*
X97648979Y-34076847D01*
X97491784Y-33906087D01*
X97491779Y-33906083D01*
X97491777Y-33906081D01*
X97308634Y-33763535D01*
X97308628Y-33763531D01*
X97104504Y-33653064D01*
X97104495Y-33653061D01*
X96884984Y-33577702D01*
X96713282Y-33549050D01*
X96656049Y-33539500D01*
X96423951Y-33539500D01*
X96378164Y-33547140D01*
X96195015Y-33577702D01*
X95975504Y-33653061D01*
X95975495Y-33653064D01*
X95771371Y-33763531D01*
X95771365Y-33763535D01*
X95588222Y-33906081D01*
X95588219Y-33906084D01*
X95431016Y-34076852D01*
X95304075Y-34271151D01*
X95210842Y-34483699D01*
X95153866Y-34708691D01*
X95153864Y-34708702D01*
X95134700Y-34939993D01*
X95134700Y-34940006D01*
X95153864Y-35171297D01*
X95153866Y-35171308D01*
X95210842Y-35396300D01*
X95304075Y-35608848D01*
X95431016Y-35803147D01*
X95431019Y-35803151D01*
X95431021Y-35803153D01*
X95588216Y-35973913D01*
X95588219Y-35973915D01*
X95588222Y-35973918D01*
X95771365Y-36116464D01*
X95771371Y-36116468D01*
X95771374Y-36116470D01*
X95848396Y-36158152D01*
X95897986Y-36207372D01*
X95913094Y-36275588D01*
X95888924Y-36341144D01*
X95860502Y-36368781D01*
X95701183Y-36480338D01*
X95540342Y-36641179D01*
X95409865Y-36827517D01*
X95313734Y-37033673D01*
X95313730Y-37033682D01*
X95261127Y-37229999D01*
X95261128Y-37230000D01*
X96106314Y-37230000D01*
X96080507Y-37270156D01*
X96040000Y-37408111D01*
X96040000Y-37551889D01*
X96080507Y-37689844D01*
X96106314Y-37730000D01*
X95261128Y-37730000D01*
X95313730Y-37926317D01*
X95313734Y-37926326D01*
X95409865Y-38132482D01*
X95540342Y-38318820D01*
X95701179Y-38479657D01*
X95860502Y-38591217D01*
X95904127Y-38645794D01*
X95911319Y-38715293D01*
X95879797Y-38777647D01*
X95848397Y-38801846D01*
X95771376Y-38843528D01*
X95771365Y-38843535D01*
X95588222Y-38986081D01*
X95588219Y-38986084D01*
X95431016Y-39156852D01*
X95304075Y-39351151D01*
X95210842Y-39563699D01*
X95153866Y-39788691D01*
X95153864Y-39788702D01*
X95134700Y-40019993D01*
X95134700Y-40020006D01*
X95153864Y-40251297D01*
X95153866Y-40251308D01*
X95210842Y-40476300D01*
X95304075Y-40688849D01*
X95312904Y-40702362D01*
X95333092Y-40769252D01*
X95313911Y-40836438D01*
X95261452Y-40882588D01*
X95192370Y-40893050D01*
X95128598Y-40864503D01*
X95121414Y-40857864D01*
X90952819Y-36689269D01*
X90919334Y-36627946D01*
X90916500Y-36601588D01*
X90916500Y-31096500D01*
X90936185Y-31029461D01*
X90988989Y-30983706D01*
X91040500Y-30972500D01*
X103015500Y-30972500D01*
X103082539Y-30992185D01*
X103128294Y-31044989D01*
X103139500Y-31096500D01*
X103139500Y-33020300D01*
X103119815Y-33087339D01*
X103079929Y-33126248D01*
X102925853Y-33219944D01*
X102702950Y-33401289D01*
X102506812Y-33611299D01*
X102341098Y-33846064D01*
X102208894Y-34101206D01*
X102112667Y-34371962D01*
X102112666Y-34371965D01*
X102054201Y-34653319D01*
X102034592Y-34940000D01*
X102054201Y-35226680D01*
X102054201Y-35226684D01*
X102054202Y-35226686D01*
X102066769Y-35287164D01*
X102112666Y-35508034D01*
X102112667Y-35508037D01*
X102208894Y-35778793D01*
X102208893Y-35778793D01*
X102341098Y-36033935D01*
X102506812Y-36268700D01*
X102574471Y-36341144D01*
X102702947Y-36478708D01*
X102853987Y-36601588D01*
X102925853Y-36660055D01*
X103171382Y-36809365D01*
X103341715Y-36883350D01*
X103434942Y-36923844D01*
X103711642Y-37001371D01*
X103711648Y-37001371D01*
X103711649Y-37001372D01*
X103715793Y-37002234D01*
X103715597Y-37003175D01*
X103745819Y-37012401D01*
X103768852Y-37023699D01*
X103790729Y-37034430D01*
X103987715Y-37085433D01*
X104190936Y-37095739D01*
X104392071Y-37064926D01*
X104548966Y-37006818D01*
X104566812Y-37001692D01*
X104568340Y-37001373D01*
X104568358Y-37001371D01*
X104845058Y-36923844D01*
X104958015Y-36874779D01*
X105108617Y-36809365D01*
X105108620Y-36809363D01*
X105108625Y-36809361D01*
X105354147Y-36660055D01*
X105565823Y-36487844D01*
X107220000Y-36487844D01*
X107226401Y-36547372D01*
X107226403Y-36547379D01*
X107276645Y-36682086D01*
X107276649Y-36682093D01*
X107362809Y-36797187D01*
X107362812Y-36797190D01*
X107477906Y-36883350D01*
X107477913Y-36883354D01*
X107612620Y-36933596D01*
X107612627Y-36933598D01*
X107672155Y-36939999D01*
X107672172Y-36940000D01*
X108970000Y-36940000D01*
X108970000Y-35661802D01*
X109131169Y-35700000D01*
X109264267Y-35700000D01*
X109396461Y-35684549D01*
X109470000Y-35657782D01*
X109470000Y-36940000D01*
X110767828Y-36940000D01*
X110767844Y-36939999D01*
X110827372Y-36933598D01*
X110827379Y-36933596D01*
X110962086Y-36883354D01*
X110962093Y-36883350D01*
X111077187Y-36797190D01*
X111077190Y-36797187D01*
X111163350Y-36682093D01*
X111163354Y-36682086D01*
X111213596Y-36547379D01*
X111213598Y-36547372D01*
X111219999Y-36487844D01*
X111220000Y-36487827D01*
X111220000Y-35190000D01*
X109938483Y-35190000D01*
X109973549Y-35072871D01*
X109983879Y-34895509D01*
X109953029Y-34720546D01*
X109939853Y-34690000D01*
X111220000Y-34690000D01*
X111220000Y-33392172D01*
X111219999Y-33392155D01*
X111213598Y-33332627D01*
X111213596Y-33332620D01*
X111163354Y-33197913D01*
X111163350Y-33197906D01*
X111077190Y-33082812D01*
X111077187Y-33082809D01*
X110962093Y-32996649D01*
X110962086Y-32996645D01*
X110827379Y-32946403D01*
X110827372Y-32946401D01*
X110767844Y-32940000D01*
X109470000Y-32940000D01*
X109470000Y-34218197D01*
X109308831Y-34180000D01*
X109175733Y-34180000D01*
X109043539Y-34195451D01*
X108970000Y-34222217D01*
X108970000Y-32940000D01*
X107672155Y-32940000D01*
X107612627Y-32946401D01*
X107612620Y-32946403D01*
X107477913Y-32996645D01*
X107477906Y-32996649D01*
X107362812Y-33082809D01*
X107362809Y-33082812D01*
X107276649Y-33197906D01*
X107276645Y-33197913D01*
X107226403Y-33332620D01*
X107226401Y-33332627D01*
X107220000Y-33392155D01*
X107220000Y-34690000D01*
X108501517Y-34690000D01*
X108466451Y-34807129D01*
X108456121Y-34984491D01*
X108486971Y-35159454D01*
X108500147Y-35190000D01*
X107220000Y-35190000D01*
X107220000Y-36487844D01*
X105565823Y-36487844D01*
X105577053Y-36478708D01*
X105773189Y-36268698D01*
X105938901Y-36033936D01*
X106071104Y-35778797D01*
X106167334Y-35508032D01*
X106225798Y-35226686D01*
X106245408Y-34940000D01*
X106225798Y-34653314D01*
X106167334Y-34371968D01*
X106163083Y-34360008D01*
X106071105Y-34101206D01*
X106071106Y-34101206D01*
X105938901Y-33846064D01*
X105773187Y-33611299D01*
X105694554Y-33527105D01*
X105577053Y-33401292D01*
X105354147Y-33219945D01*
X105354146Y-33219944D01*
X105200071Y-33126248D01*
X105153019Y-33074596D01*
X105140500Y-33020300D01*
X105140500Y-30969500D01*
X105160185Y-30902461D01*
X105212989Y-30856706D01*
X105264500Y-30845500D01*
X122264166Y-30845500D01*
X122331205Y-30865185D01*
X122351847Y-30881819D01*
X123038204Y-31568176D01*
X123071689Y-31629499D01*
X123066705Y-31699191D01*
X123024833Y-31755124D01*
X122967408Y-31778702D01*
X122826790Y-31798030D01*
X122786057Y-31803629D01*
X122786056Y-31803629D01*
X122786050Y-31803630D01*
X122592149Y-31857959D01*
X122509357Y-31881156D01*
X122509354Y-31881156D01*
X122509351Y-31881158D01*
X122509350Y-31881158D01*
X122245797Y-31995634D01*
X122000268Y-32144944D01*
X121777365Y-32326289D01*
X121581227Y-32536299D01*
X121415512Y-32771066D01*
X121415511Y-32771068D01*
X121401790Y-32797549D01*
X121353470Y-32848016D01*
X121291693Y-32864500D01*
X118807132Y-32864500D01*
X118718052Y-32862243D01*
X118718043Y-32862243D01*
X118665051Y-32871741D01*
X118657669Y-32873064D01*
X118653010Y-32873718D01*
X118591979Y-32879925D01*
X118591977Y-32879926D01*
X118559195Y-32890210D01*
X118551571Y-32892081D01*
X118543723Y-32893488D01*
X118517764Y-32898141D01*
X118517756Y-32898143D01*
X118460797Y-32920895D01*
X118456361Y-32922474D01*
X118400507Y-32940000D01*
X118397827Y-32940841D01*
X118397825Y-32940842D01*
X118397818Y-32940845D01*
X118367799Y-32957507D01*
X118360705Y-32960876D01*
X118328805Y-32973619D01*
X118328803Y-32973619D01*
X118328798Y-32973622D01*
X118328792Y-32973626D01*
X118277569Y-33007383D01*
X118273541Y-33009824D01*
X118219917Y-33039588D01*
X118219914Y-33039590D01*
X118193842Y-33061970D01*
X118187575Y-33066695D01*
X118158897Y-33085598D01*
X118158890Y-33085603D01*
X118115531Y-33128962D01*
X118112076Y-33132164D01*
X118065521Y-33172132D01*
X118065520Y-33172133D01*
X118044491Y-33199300D01*
X118039299Y-33205194D01*
X109911312Y-41333181D01*
X109849989Y-41366666D01*
X109823631Y-41369500D01*
X109050051Y-41369500D01*
X108932661Y-41384953D01*
X108932652Y-41384956D01*
X108786575Y-41445463D01*
X108661133Y-41541718D01*
X108564878Y-41667160D01*
X108504371Y-41813237D01*
X108504370Y-41813239D01*
X108488916Y-41930629D01*
X108488915Y-41930645D01*
X108488915Y-43609363D01*
X108504368Y-43726753D01*
X108504371Y-43726762D01*
X108564175Y-43871143D01*
X108564879Y-43872841D01*
X108661133Y-43998282D01*
X108776915Y-44087124D01*
X108818117Y-44143552D01*
X108822272Y-44213298D01*
X108788059Y-44274219D01*
X108726342Y-44306971D01*
X108701428Y-44309500D01*
X106989782Y-44309500D01*
X106922743Y-44289815D01*
X106902101Y-44273181D01*
X104177006Y-41548086D01*
X104143521Y-41486763D01*
X104143796Y-41432814D01*
X104147383Y-41417103D01*
X104147384Y-41417091D01*
X104167549Y-41148004D01*
X104167549Y-41147995D01*
X104147383Y-40878898D01*
X104146101Y-40873281D01*
X104087334Y-40615805D01*
X103988743Y-40364602D01*
X103853815Y-40130898D01*
X103685561Y-39919915D01*
X103685560Y-39919914D01*
X103685557Y-39919910D01*
X103487741Y-39736365D01*
X103264775Y-39584349D01*
X103264769Y-39584346D01*
X103264768Y-39584345D01*
X103264767Y-39584344D01*
X103021643Y-39467263D01*
X103021645Y-39467263D01*
X102763773Y-39387720D01*
X102763767Y-39387718D01*
X102496936Y-39347500D01*
X102496929Y-39347500D01*
X102227071Y-39347500D01*
X102227063Y-39347500D01*
X101960232Y-39387718D01*
X101960226Y-39387720D01*
X101702358Y-39467262D01*
X101459230Y-39584346D01*
X101236258Y-39736365D01*
X101038442Y-39919910D01*
X100870185Y-40130898D01*
X100735258Y-40364599D01*
X100735256Y-40364603D01*
X100636666Y-40615804D01*
X100636664Y-40615811D01*
X100576616Y-40878898D01*
X100556451Y-41147995D01*
X100556451Y-41148004D01*
X100576616Y-41417101D01*
X100636664Y-41680188D01*
X100636666Y-41680195D01*
X100726700Y-41909597D01*
X100735257Y-41931398D01*
X100870185Y-42165102D01*
X100992183Y-42318082D01*
X101038442Y-42376089D01*
X101214567Y-42539508D01*
X101236259Y-42559635D01*
X101459226Y-42711651D01*
X101702359Y-42828738D01*
X101960228Y-42908280D01*
X101960229Y-42908280D01*
X101960232Y-42908281D01*
X102227063Y-42948499D01*
X102227068Y-42948499D01*
X102227071Y-42948500D01*
X102227072Y-42948500D01*
X102496928Y-42948500D01*
X102496929Y-42948500D01*
X102652851Y-42924998D01*
X102722072Y-42934471D01*
X102759011Y-42959932D01*
X105807547Y-46008467D01*
X105868941Y-46073053D01*
X105868944Y-46073055D01*
X105868947Y-46073058D01*
X105903053Y-46096795D01*
X105919303Y-46108106D01*
X105923044Y-46110926D01*
X105970593Y-46149698D01*
X106001045Y-46165604D01*
X106007756Y-46169671D01*
X106012759Y-46173153D01*
X106035951Y-46189295D01*
X106092329Y-46213489D01*
X106096578Y-46215507D01*
X106150951Y-46243909D01*
X106178489Y-46251788D01*
X106183974Y-46253358D01*
X106191368Y-46255990D01*
X106222942Y-46269540D01*
X106222945Y-46269540D01*
X106222946Y-46269541D01*
X106283022Y-46281887D01*
X106287600Y-46283010D01*
X106289704Y-46283612D01*
X106346582Y-46299887D01*
X106380839Y-46302495D01*
X106388614Y-46303586D01*
X106422255Y-46310500D01*
X106422259Y-46310500D01*
X106483598Y-46310500D01*
X106488304Y-46310678D01*
X106510224Y-46312348D01*
X106549475Y-46315337D01*
X106549475Y-46315336D01*
X106549476Y-46315337D01*
X106583559Y-46310996D01*
X106591389Y-46310500D01*
X108852951Y-46310500D01*
X108919990Y-46330185D01*
X108936936Y-46343272D01*
X108937622Y-46343903D01*
X108937631Y-46343913D01*
X109032568Y-46417805D01*
X109115233Y-46482146D01*
X109156046Y-46538856D01*
X109159721Y-46608629D01*
X109125089Y-46669312D01*
X109115234Y-46677852D01*
X108937633Y-46816085D01*
X108780431Y-46986852D01*
X108653490Y-47181151D01*
X108560257Y-47393699D01*
X108503281Y-47618691D01*
X108503279Y-47618702D01*
X108484115Y-47849993D01*
X108484115Y-47850006D01*
X108503279Y-48081297D01*
X108503281Y-48081308D01*
X108560257Y-48306300D01*
X108653490Y-48518848D01*
X108780431Y-48713147D01*
X108780434Y-48713151D01*
X108780436Y-48713153D01*
X108937631Y-48883913D01*
X108937634Y-48883915D01*
X108937637Y-48883918D01*
X109120780Y-49026464D01*
X109120786Y-49026468D01*
X109120789Y-49026470D01*
X109324912Y-49136936D01*
X109438902Y-49176068D01*
X109544430Y-49212297D01*
X109544432Y-49212297D01*
X109544434Y-49212298D01*
X109773366Y-49250500D01*
X109773367Y-49250500D01*
X110005463Y-49250500D01*
X110005464Y-49250500D01*
X110234396Y-49212298D01*
X110453918Y-49136936D01*
X110658041Y-49026470D01*
X110687515Y-49003530D01*
X110751165Y-48953989D01*
X110841199Y-48883913D01*
X110998394Y-48713153D01*
X111125339Y-48518849D01*
X111218572Y-48306300D01*
X111275549Y-48081305D01*
X111280576Y-48020636D01*
X111294715Y-47850006D01*
X111294715Y-47849993D01*
X111275550Y-47618702D01*
X111275548Y-47618691D01*
X111218572Y-47393699D01*
X111125339Y-47181151D01*
X110998398Y-46986852D01*
X110998395Y-46986849D01*
X110998394Y-46986847D01*
X110841199Y-46816087D01*
X110663595Y-46677853D01*
X110622783Y-46621143D01*
X110619108Y-46551370D01*
X110653739Y-46490687D01*
X110663596Y-46482146D01*
X110675730Y-46472702D01*
X110841199Y-46343913D01*
X110998394Y-46173153D01*
X111125339Y-45978849D01*
X111218572Y-45766300D01*
X111275549Y-45541305D01*
X111279314Y-45495868D01*
X111294715Y-45310006D01*
X111294715Y-45309993D01*
X111275550Y-45078702D01*
X111275548Y-45078691D01*
X111218572Y-44853699D01*
X111125339Y-44641151D01*
X110998398Y-44446852D01*
X110998395Y-44446849D01*
X110998394Y-44446847D01*
X110882135Y-44320556D01*
X110851215Y-44257904D01*
X110859075Y-44188478D01*
X110903222Y-44134323D01*
X110925911Y-44122016D01*
X110992256Y-44094536D01*
X111117697Y-43998282D01*
X111213951Y-43872841D01*
X111274459Y-43726762D01*
X111289915Y-43609361D01*
X111289914Y-42835781D01*
X111309598Y-42768743D01*
X111326228Y-42748106D01*
X111835088Y-42239246D01*
X111896411Y-42205762D01*
X111966103Y-42210746D01*
X112022036Y-42252618D01*
X112046453Y-42318082D01*
X112041985Y-42361038D01*
X112040113Y-42367577D01*
X112040113Y-42367579D01*
X112037503Y-42401841D01*
X112036414Y-42409608D01*
X112035146Y-42415783D01*
X112029500Y-42443258D01*
X112029500Y-42504597D01*
X112029321Y-42509306D01*
X112024662Y-42570474D01*
X112026707Y-42586527D01*
X112029003Y-42604560D01*
X112029500Y-42612388D01*
X112029500Y-54403632D01*
X112009815Y-54470671D01*
X111993181Y-54491313D01*
X109911312Y-56573181D01*
X109849989Y-56606666D01*
X109823631Y-56609500D01*
X109050051Y-56609500D01*
X108932661Y-56624953D01*
X108932652Y-56624956D01*
X108786575Y-56685463D01*
X108661133Y-56781718D01*
X108564878Y-56907160D01*
X108504371Y-57053237D01*
X108504370Y-57053239D01*
X108488916Y-57170629D01*
X108488915Y-57170645D01*
X108488915Y-58849363D01*
X108504368Y-58966753D01*
X108504371Y-58966762D01*
X108564175Y-59111143D01*
X108564879Y-59112841D01*
X108661133Y-59238282D01*
X108776915Y-59327124D01*
X108818117Y-59383552D01*
X108822272Y-59453298D01*
X108788059Y-59514219D01*
X108726342Y-59546971D01*
X108701428Y-59549500D01*
X107593110Y-59549500D01*
X107526071Y-59529815D01*
X107480316Y-59477011D01*
X107469457Y-59434766D01*
X107453591Y-59223046D01*
X107449383Y-59166897D01*
X107389334Y-58903805D01*
X107290743Y-58652602D01*
X107155815Y-58418898D01*
X106987561Y-58207915D01*
X106987560Y-58207914D01*
X106987557Y-58207910D01*
X106789741Y-58024365D01*
X106766828Y-58008743D01*
X106566775Y-57872349D01*
X106566769Y-57872346D01*
X106566768Y-57872345D01*
X106566767Y-57872344D01*
X106323643Y-57755263D01*
X106323645Y-57755263D01*
X106065773Y-57675720D01*
X106065767Y-57675718D01*
X105798936Y-57635500D01*
X105798929Y-57635500D01*
X105529071Y-57635500D01*
X105529063Y-57635500D01*
X105262232Y-57675718D01*
X105262226Y-57675720D01*
X105004358Y-57755262D01*
X104761230Y-57872346D01*
X104538258Y-58024365D01*
X104340442Y-58207910D01*
X104172185Y-58418898D01*
X104037258Y-58652599D01*
X104037256Y-58652603D01*
X103938666Y-58903804D01*
X103938664Y-58903811D01*
X103878616Y-59166898D01*
X103858451Y-59435995D01*
X103858451Y-59436004D01*
X103878616Y-59705101D01*
X103938664Y-59968188D01*
X103938666Y-59968195D01*
X103993811Y-60108702D01*
X104037257Y-60219398D01*
X104172185Y-60453102D01*
X104249459Y-60550000D01*
X104340442Y-60664089D01*
X104466772Y-60781305D01*
X104538259Y-60847635D01*
X104761226Y-60999651D01*
X105004359Y-61116738D01*
X105262228Y-61196280D01*
X105262229Y-61196280D01*
X105262232Y-61196281D01*
X105529063Y-61236499D01*
X105529068Y-61236499D01*
X105529071Y-61236500D01*
X105529072Y-61236500D01*
X105798928Y-61236500D01*
X105798929Y-61236500D01*
X105954825Y-61213002D01*
X106024049Y-61222475D01*
X106063180Y-61250185D01*
X106122940Y-61313052D01*
X106122947Y-61313058D01*
X106157053Y-61336795D01*
X106173303Y-61348106D01*
X106177044Y-61350926D01*
X106224593Y-61389698D01*
X106255045Y-61405604D01*
X106261756Y-61409671D01*
X106266759Y-61413153D01*
X106289951Y-61429295D01*
X106346329Y-61453489D01*
X106350578Y-61455507D01*
X106404951Y-61483909D01*
X106432489Y-61491788D01*
X106437974Y-61493358D01*
X106445368Y-61495990D01*
X106476942Y-61509540D01*
X106476945Y-61509540D01*
X106476946Y-61509541D01*
X106537022Y-61521887D01*
X106541600Y-61523010D01*
X106555501Y-61526987D01*
X106600582Y-61539887D01*
X106634839Y-61542495D01*
X106642614Y-61543586D01*
X106676255Y-61550500D01*
X106676259Y-61550500D01*
X106737598Y-61550500D01*
X106742304Y-61550678D01*
X106777062Y-61553325D01*
X106803475Y-61555337D01*
X106803475Y-61555336D01*
X106803476Y-61555337D01*
X106837559Y-61550996D01*
X106845389Y-61550500D01*
X108852951Y-61550500D01*
X108919990Y-61570185D01*
X108936936Y-61583272D01*
X108937622Y-61583903D01*
X108937631Y-61583913D01*
X109032568Y-61657805D01*
X109115233Y-61722146D01*
X109156046Y-61778856D01*
X109159721Y-61848629D01*
X109125089Y-61909312D01*
X109115234Y-61917852D01*
X108937633Y-62056085D01*
X108780431Y-62226852D01*
X108653490Y-62421151D01*
X108560257Y-62633699D01*
X108503281Y-62858691D01*
X108503279Y-62858702D01*
X108484115Y-63089993D01*
X108484115Y-63090006D01*
X108503279Y-63321297D01*
X108503281Y-63321308D01*
X108560257Y-63546300D01*
X108653490Y-63758848D01*
X108780431Y-63953147D01*
X108780434Y-63953151D01*
X108780436Y-63953153D01*
X108937631Y-64123913D01*
X108937634Y-64123915D01*
X108937637Y-64123918D01*
X109120780Y-64266464D01*
X109120786Y-64266468D01*
X109120789Y-64266470D01*
X109324912Y-64376936D01*
X109435151Y-64414781D01*
X109544430Y-64452297D01*
X109544432Y-64452297D01*
X109544434Y-64452298D01*
X109773366Y-64490500D01*
X109773367Y-64490500D01*
X110005463Y-64490500D01*
X110005464Y-64490500D01*
X110234396Y-64452298D01*
X110453918Y-64376936D01*
X110658041Y-64266470D01*
X110687515Y-64243530D01*
X110733396Y-64207819D01*
X110841199Y-64123913D01*
X110998394Y-63953153D01*
X111125339Y-63758849D01*
X111218572Y-63546300D01*
X111275549Y-63321305D01*
X111278404Y-63286852D01*
X111294715Y-63090006D01*
X111294715Y-63089993D01*
X111275550Y-62858702D01*
X111275548Y-62858691D01*
X111218572Y-62633699D01*
X111125339Y-62421151D01*
X110998398Y-62226852D01*
X110998395Y-62226849D01*
X110998394Y-62226847D01*
X110841199Y-62056087D01*
X110663595Y-61917853D01*
X110622783Y-61861143D01*
X110619108Y-61791370D01*
X110653739Y-61730687D01*
X110663596Y-61722146D01*
X110675730Y-61712702D01*
X110841199Y-61583913D01*
X110998394Y-61413153D01*
X111125339Y-61218849D01*
X111218572Y-61006300D01*
X111275549Y-60781305D01*
X111285262Y-60664085D01*
X111294715Y-60550006D01*
X111294715Y-60549993D01*
X111275550Y-60318702D01*
X111275548Y-60318691D01*
X111218572Y-60093699D01*
X111125339Y-59881151D01*
X110998398Y-59686852D01*
X110998395Y-59686849D01*
X110998394Y-59686847D01*
X110882135Y-59560556D01*
X110851215Y-59497904D01*
X110859075Y-59428478D01*
X110903222Y-59374323D01*
X110925911Y-59362016D01*
X110992256Y-59334536D01*
X111117697Y-59238282D01*
X111213951Y-59112841D01*
X111274459Y-58966762D01*
X111289915Y-58849361D01*
X111289914Y-58075781D01*
X111309598Y-58008743D01*
X111326228Y-57988106D01*
X113728467Y-55585867D01*
X113793053Y-55524474D01*
X113828099Y-55474121D01*
X113830938Y-55470356D01*
X113834612Y-55465850D01*
X113869698Y-55422822D01*
X113885601Y-55392375D01*
X113889674Y-55385654D01*
X113894489Y-55378735D01*
X113909295Y-55357464D01*
X113933492Y-55301075D01*
X113935498Y-55296850D01*
X113963909Y-55242464D01*
X113973360Y-55209430D01*
X113975991Y-55202043D01*
X113989540Y-55170473D01*
X114001893Y-55110355D01*
X114003006Y-55105827D01*
X114019887Y-55046833D01*
X114022495Y-55012570D01*
X114023587Y-55004791D01*
X114030500Y-54971154D01*
X114030500Y-54909816D01*
X114030679Y-54905107D01*
X114035337Y-54843941D01*
X114030997Y-54809857D01*
X114030500Y-54802018D01*
X114030500Y-43010782D01*
X114050185Y-42943743D01*
X114066819Y-42923101D01*
X117008101Y-39981819D01*
X117069424Y-39948334D01*
X117095782Y-39945500D01*
X120989916Y-39945500D01*
X121056955Y-39965185D01*
X121102710Y-40017989D01*
X121113916Y-40069500D01*
X121113916Y-40484363D01*
X121129368Y-40601753D01*
X121129371Y-40601762D01*
X121189879Y-40747841D01*
X121286133Y-40873282D01*
X121411574Y-40969536D01*
X121557653Y-41030044D01*
X121675054Y-41045500D01*
X124199632Y-41045499D01*
X124266671Y-41065184D01*
X124312426Y-41117987D01*
X124322370Y-41187146D01*
X124293345Y-41250702D01*
X124287313Y-41257180D01*
X121271314Y-44273181D01*
X121209991Y-44306666D01*
X121183633Y-44309500D01*
X118545879Y-44309500D01*
X118478840Y-44289815D01*
X118461894Y-44276728D01*
X118461207Y-44276095D01*
X118461199Y-44276087D01*
X118390039Y-44220701D01*
X118283596Y-44137853D01*
X118242783Y-44081143D01*
X118239108Y-44011370D01*
X118273740Y-43950687D01*
X118283596Y-43942146D01*
X118461199Y-43803913D01*
X118618394Y-43633153D01*
X118745339Y-43438849D01*
X118838572Y-43226300D01*
X118895549Y-43001305D01*
X118895550Y-43001297D01*
X118914715Y-42770006D01*
X118914715Y-42769993D01*
X118895550Y-42538702D01*
X118895548Y-42538691D01*
X118838572Y-42313699D01*
X118745339Y-42101151D01*
X118618398Y-41906852D01*
X118618395Y-41906849D01*
X118618394Y-41906847D01*
X118461199Y-41736087D01*
X118461194Y-41736083D01*
X118461192Y-41736081D01*
X118278049Y-41593535D01*
X118278043Y-41593531D01*
X118073919Y-41483064D01*
X118073910Y-41483061D01*
X117854399Y-41407702D01*
X117682697Y-41379050D01*
X117625464Y-41369500D01*
X117393366Y-41369500D01*
X117347579Y-41377140D01*
X117164430Y-41407702D01*
X116944919Y-41483061D01*
X116944910Y-41483064D01*
X116740786Y-41593531D01*
X116740780Y-41593535D01*
X116557637Y-41736081D01*
X116557634Y-41736084D01*
X116400431Y-41906852D01*
X116273490Y-42101151D01*
X116180257Y-42313699D01*
X116123281Y-42538691D01*
X116123279Y-42538702D01*
X116104115Y-42769993D01*
X116104115Y-42770006D01*
X116123279Y-43001297D01*
X116123281Y-43001308D01*
X116180257Y-43226300D01*
X116273490Y-43438848D01*
X116400431Y-43633147D01*
X116400434Y-43633151D01*
X116400436Y-43633153D01*
X116557631Y-43803913D01*
X116557634Y-43803915D01*
X116557637Y-43803918D01*
X116735233Y-43942147D01*
X116776046Y-43998857D01*
X116779721Y-44068630D01*
X116745089Y-44129313D01*
X116735233Y-44137853D01*
X116557637Y-44276081D01*
X116557634Y-44276084D01*
X116557631Y-44276086D01*
X116557631Y-44276087D01*
X116526872Y-44309500D01*
X116400431Y-44446852D01*
X116273490Y-44641151D01*
X116180257Y-44853699D01*
X116123281Y-45078691D01*
X116123279Y-45078702D01*
X116104115Y-45309993D01*
X116104115Y-45310006D01*
X116123279Y-45541297D01*
X116123281Y-45541308D01*
X116180257Y-45766300D01*
X116273490Y-45978848D01*
X116400431Y-46173147D01*
X116400434Y-46173151D01*
X116400436Y-46173153D01*
X116557631Y-46343913D01*
X116557634Y-46343915D01*
X116557637Y-46343918D01*
X116735233Y-46482147D01*
X116776046Y-46538857D01*
X116779721Y-46608630D01*
X116745089Y-46669313D01*
X116735233Y-46677853D01*
X116557637Y-46816081D01*
X116557634Y-46816084D01*
X116557631Y-46816086D01*
X116557631Y-46816087D01*
X116526872Y-46849500D01*
X116400431Y-46986852D01*
X116273490Y-47181151D01*
X116180257Y-47393699D01*
X116123281Y-47618691D01*
X116123279Y-47618703D01*
X116108737Y-47794210D01*
X116083584Y-47859395D01*
X116072842Y-47871651D01*
X115110946Y-48833547D01*
X115046361Y-48894942D01*
X115011314Y-48945294D01*
X115008477Y-48949056D01*
X114969717Y-48996592D01*
X114969714Y-48996597D01*
X114953807Y-49027047D01*
X114949739Y-49033761D01*
X114930117Y-49061954D01*
X114905924Y-49118330D01*
X114903903Y-49122584D01*
X114875506Y-49176951D01*
X114875505Y-49176952D01*
X114866055Y-49209975D01*
X114863422Y-49217371D01*
X114849874Y-49248943D01*
X114837528Y-49309019D01*
X114836405Y-49313595D01*
X114819528Y-49372577D01*
X114819528Y-49372579D01*
X114816918Y-49406841D01*
X114815829Y-49414608D01*
X114810395Y-49441052D01*
X114808915Y-49448258D01*
X114808915Y-49509597D01*
X114808736Y-49514306D01*
X114804077Y-49575474D01*
X114806122Y-49591527D01*
X114808418Y-49609560D01*
X114808915Y-49617388D01*
X114808915Y-56796972D01*
X114794825Y-56854379D01*
X114775506Y-56891366D01*
X114775505Y-56891368D01*
X114775505Y-56891369D01*
X114766055Y-56924390D01*
X114763422Y-56931786D01*
X114749874Y-56963358D01*
X114737528Y-57023434D01*
X114736405Y-57028010D01*
X114719528Y-57086992D01*
X114719528Y-57086994D01*
X114716918Y-57121256D01*
X114715829Y-57129023D01*
X114714746Y-57134298D01*
X114708915Y-57162673D01*
X114708915Y-57224012D01*
X114708736Y-57228721D01*
X114704077Y-57289889D01*
X114706122Y-57305942D01*
X114708418Y-57323975D01*
X114708915Y-57331803D01*
X114708915Y-63034218D01*
X114689230Y-63101257D01*
X114672596Y-63121899D01*
X112791314Y-65003181D01*
X112729991Y-65036666D01*
X112703633Y-65039500D01*
X103136717Y-65039500D01*
X103047637Y-65037243D01*
X103047628Y-65037243D01*
X102994636Y-65046741D01*
X102987254Y-65048064D01*
X102982595Y-65048718D01*
X102921564Y-65054925D01*
X102921562Y-65054926D01*
X102888780Y-65065210D01*
X102881156Y-65067081D01*
X102873308Y-65068488D01*
X102847349Y-65073141D01*
X102790381Y-65095895D01*
X102785945Y-65097474D01*
X102727414Y-65115840D01*
X102727410Y-65115842D01*
X102697378Y-65132510D01*
X102690284Y-65135879D01*
X102658382Y-65148623D01*
X102658377Y-65148625D01*
X102607156Y-65182381D01*
X102603128Y-65184822D01*
X102549501Y-65214588D01*
X102523434Y-65236965D01*
X102517165Y-65241692D01*
X102488484Y-65260595D01*
X102488478Y-65260600D01*
X102445109Y-65303968D01*
X102441655Y-65307169D01*
X102395102Y-65347136D01*
X102374076Y-65374298D01*
X102368885Y-65380192D01*
X100393531Y-67355547D01*
X100328946Y-67416942D01*
X100293899Y-67467294D01*
X100291062Y-67471056D01*
X100252302Y-67518592D01*
X100252299Y-67518597D01*
X100236392Y-67549047D01*
X100232324Y-67555761D01*
X100212702Y-67583954D01*
X100188509Y-67640330D01*
X100186488Y-67644584D01*
X100158091Y-67698951D01*
X100158090Y-67698952D01*
X100148640Y-67731975D01*
X100146007Y-67739371D01*
X100132459Y-67770943D01*
X100120113Y-67831019D01*
X100118990Y-67835595D01*
X100102113Y-67894577D01*
X100102113Y-67894579D01*
X100099503Y-67928841D01*
X100098414Y-67936608D01*
X100093608Y-67960000D01*
X100091500Y-67970258D01*
X100091500Y-68031597D01*
X100091321Y-68036306D01*
X100086662Y-68097474D01*
X100087711Y-68105708D01*
X100091003Y-68131560D01*
X100091500Y-68139388D01*
X100091500Y-71162217D01*
X100071815Y-71229256D01*
X100055181Y-71249898D01*
X98811899Y-72493181D01*
X98750576Y-72526666D01*
X98724218Y-72529500D01*
X94950783Y-72529500D01*
X94883744Y-72509815D01*
X94863102Y-72493181D01*
X92476819Y-70106898D01*
X92443334Y-70045575D01*
X92440500Y-70019217D01*
X92440500Y-51447715D01*
X92442757Y-51358641D01*
X92442756Y-51358640D01*
X92442757Y-51358637D01*
X92431933Y-51298249D01*
X92431280Y-51293587D01*
X92425074Y-51232563D01*
X92425074Y-51232562D01*
X92414784Y-51199768D01*
X92412917Y-51192155D01*
X92410828Y-51180500D01*
X92406858Y-51158347D01*
X92384100Y-51101374D01*
X92382521Y-51096938D01*
X92365644Y-51043147D01*
X92364159Y-51038412D01*
X92364158Y-51038410D01*
X92364157Y-51038407D01*
X92347488Y-51008378D01*
X92344117Y-51001278D01*
X92331378Y-50969386D01*
X92331377Y-50969383D01*
X92297620Y-50918163D01*
X92295180Y-50914134D01*
X92284379Y-50894675D01*
X92265409Y-50860498D01*
X92265407Y-50860495D01*
X92243033Y-50834434D01*
X92238302Y-50828159D01*
X92229972Y-50815520D01*
X92219402Y-50799481D01*
X92176012Y-50756091D01*
X92172822Y-50752648D01*
X92132867Y-50706106D01*
X92132863Y-50706102D01*
X92105698Y-50685074D01*
X92099803Y-50679882D01*
X85821452Y-44401532D01*
X85760061Y-44336949D01*
X85760060Y-44336948D01*
X85760059Y-44336947D01*
X85720625Y-44309500D01*
X85709709Y-44301902D01*
X85705946Y-44299064D01*
X85658413Y-44260305D01*
X85658406Y-44260300D01*
X85627959Y-44244397D01*
X85621251Y-44240334D01*
X85593049Y-44220705D01*
X85593046Y-44220703D01*
X85593045Y-44220703D01*
X85593041Y-44220701D01*
X85536680Y-44196514D01*
X85532424Y-44194493D01*
X85478057Y-44166094D01*
X85478050Y-44166091D01*
X85478049Y-44166091D01*
X85472008Y-44164362D01*
X85445030Y-44156642D01*
X85437630Y-44154008D01*
X85406057Y-44140459D01*
X85406058Y-44140459D01*
X85345966Y-44128109D01*
X85341391Y-44126986D01*
X85282420Y-44110113D01*
X85282425Y-44110113D01*
X85248158Y-44107503D01*
X85240380Y-44106412D01*
X85206742Y-44099500D01*
X85206741Y-44099500D01*
X85145402Y-44099500D01*
X85140695Y-44099321D01*
X85135121Y-44098896D01*
X85079524Y-44094662D01*
X85059589Y-44097201D01*
X85045440Y-44099003D01*
X85037611Y-44099500D01*
X82336464Y-44099500D01*
X82269425Y-44079815D01*
X82252479Y-44066728D01*
X82251794Y-44066098D01*
X82251784Y-44066087D01*
X82122524Y-43965480D01*
X82068628Y-43923531D01*
X82068619Y-43923525D01*
X81991603Y-43881846D01*
X81942013Y-43832627D01*
X81926905Y-43764410D01*
X81951076Y-43698855D01*
X81979498Y-43671217D01*
X82138817Y-43559660D01*
X82299657Y-43398820D01*
X82430134Y-43212482D01*
X82526265Y-43006326D01*
X82526269Y-43006317D01*
X82578872Y-42810000D01*
X81733686Y-42810000D01*
X81759493Y-42769844D01*
X81800000Y-42631889D01*
X81800000Y-42488111D01*
X81759493Y-42350156D01*
X81733686Y-42310000D01*
X82578872Y-42310000D01*
X82578872Y-42309999D01*
X82526269Y-42113682D01*
X82526265Y-42113673D01*
X82430134Y-41907517D01*
X82299657Y-41721179D01*
X82138820Y-41560342D01*
X81979497Y-41448782D01*
X81935872Y-41394205D01*
X81928680Y-41324706D01*
X81960202Y-41262352D01*
X81991602Y-41238152D01*
X82068626Y-41196470D01*
X82074182Y-41192146D01*
X82178690Y-41110804D01*
X82251784Y-41053913D01*
X82408979Y-40883153D01*
X82535924Y-40688849D01*
X82629157Y-40476300D01*
X82686134Y-40251305D01*
X82690344Y-40200500D01*
X82705300Y-40020006D01*
X82705300Y-40019993D01*
X82686135Y-39788702D01*
X82686133Y-39788691D01*
X82629157Y-39563699D01*
X82535924Y-39351151D01*
X82408983Y-39156852D01*
X82408980Y-39156849D01*
X82408979Y-39156847D01*
X82251784Y-38986087D01*
X82074180Y-38847853D01*
X82033368Y-38791143D01*
X82029693Y-38721370D01*
X82064324Y-38660687D01*
X82074181Y-38652146D01*
X82251784Y-38513913D01*
X82408979Y-38343153D01*
X82535924Y-38148849D01*
X82629157Y-37936300D01*
X82686134Y-37711305D01*
X82686285Y-37709483D01*
X82705300Y-37480006D01*
X82705300Y-37479993D01*
X82686135Y-37248702D01*
X82686133Y-37248691D01*
X82629157Y-37023699D01*
X82535924Y-36811151D01*
X82408983Y-36616852D01*
X82408980Y-36616849D01*
X82408979Y-36616847D01*
X82292720Y-36490556D01*
X82261800Y-36427904D01*
X82269660Y-36358478D01*
X82313807Y-36304323D01*
X82336496Y-36292016D01*
X82402841Y-36264536D01*
X82528282Y-36168282D01*
X82624536Y-36042841D01*
X82685044Y-35896762D01*
X82700500Y-35779361D01*
X82700499Y-34100640D01*
X82700499Y-34100639D01*
X82700499Y-34100636D01*
X82685046Y-33983246D01*
X82685044Y-33983239D01*
X82685044Y-33983238D01*
X82624536Y-33837159D01*
X82528282Y-33711718D01*
X82402841Y-33615464D01*
X82256762Y-33554956D01*
X82256760Y-33554955D01*
X82139370Y-33539501D01*
X82139367Y-33539500D01*
X82139361Y-33539500D01*
X82139354Y-33539500D01*
X80460636Y-33539500D01*
X80343246Y-33554953D01*
X80343237Y-33554956D01*
X80197160Y-33615463D01*
X80071718Y-33711718D01*
X79975463Y-33837160D01*
X79914956Y-33983237D01*
X79914955Y-33983239D01*
X79899501Y-34100629D01*
X79899501Y-34100636D01*
X79899500Y-34100645D01*
X79899500Y-35779363D01*
X79914953Y-35896753D01*
X79914956Y-35896762D01*
X79975464Y-36042841D01*
X80071718Y-36168282D01*
X80197159Y-36264536D01*
X80197160Y-36264536D01*
X80197161Y-36264537D01*
X80263499Y-36292015D01*
X80317903Y-36335856D01*
X80339968Y-36402150D01*
X80322689Y-36469849D01*
X80307277Y-36490558D01*
X80191019Y-36616849D01*
X80064075Y-36811151D01*
X79970842Y-37023699D01*
X79913866Y-37248691D01*
X79913864Y-37248702D01*
X79894700Y-37479993D01*
X79894700Y-37480006D01*
X79913864Y-37711297D01*
X79913866Y-37711308D01*
X79970842Y-37936300D01*
X80064075Y-38148848D01*
X80191016Y-38343147D01*
X80191019Y-38343151D01*
X80191021Y-38343153D01*
X80348216Y-38513913D01*
X80348219Y-38513915D01*
X80348222Y-38513918D01*
X80525818Y-38652147D01*
X80566631Y-38708857D01*
X80570306Y-38778630D01*
X80535674Y-38839313D01*
X80525818Y-38847853D01*
X80348222Y-38986081D01*
X80348219Y-38986084D01*
X80191016Y-39156852D01*
X80064075Y-39351151D01*
X79970842Y-39563699D01*
X79913866Y-39788691D01*
X79913864Y-39788702D01*
X79894700Y-40019993D01*
X79894700Y-40020006D01*
X79913864Y-40251297D01*
X79913866Y-40251308D01*
X79970842Y-40476300D01*
X80064075Y-40688848D01*
X80191016Y-40883147D01*
X80191019Y-40883151D01*
X80191021Y-40883153D01*
X80348216Y-41053913D01*
X80348219Y-41053915D01*
X80348222Y-41053918D01*
X80531365Y-41196464D01*
X80531371Y-41196468D01*
X80531374Y-41196470D01*
X80608396Y-41238152D01*
X80657986Y-41287372D01*
X80673094Y-41355588D01*
X80648924Y-41421144D01*
X80620502Y-41448781D01*
X80461183Y-41560338D01*
X80300342Y-41721179D01*
X80169865Y-41907517D01*
X80073734Y-42113673D01*
X80073730Y-42113682D01*
X80021127Y-42309999D01*
X80021128Y-42310000D01*
X80866314Y-42310000D01*
X80840507Y-42350156D01*
X80800000Y-42488111D01*
X80800000Y-42631889D01*
X80840507Y-42769844D01*
X80866314Y-42810000D01*
X80021128Y-42810000D01*
X80073730Y-43006317D01*
X80073734Y-43006326D01*
X80169865Y-43212482D01*
X80300342Y-43398820D01*
X80461179Y-43559657D01*
X80620502Y-43671217D01*
X80664127Y-43725794D01*
X80671319Y-43795293D01*
X80639797Y-43857647D01*
X80608397Y-43881846D01*
X80531376Y-43923528D01*
X80531365Y-43923535D01*
X80348222Y-44066081D01*
X80348219Y-44066084D01*
X80348216Y-44066086D01*
X80348216Y-44066087D01*
X80328850Y-44087124D01*
X80191016Y-44236852D01*
X80064075Y-44431151D01*
X79970842Y-44643699D01*
X79913866Y-44868691D01*
X79913864Y-44868702D01*
X79894700Y-45099993D01*
X79894700Y-45100006D01*
X79913864Y-45331297D01*
X79913866Y-45331308D01*
X79970842Y-45556300D01*
X80064075Y-45768848D01*
X80191016Y-45963147D01*
X80191019Y-45963151D01*
X80191021Y-45963153D01*
X80348216Y-46133913D01*
X80348219Y-46133915D01*
X80348222Y-46133918D01*
X80525818Y-46272147D01*
X80566631Y-46328857D01*
X80570306Y-46398630D01*
X80535674Y-46459313D01*
X80525818Y-46467853D01*
X80348222Y-46606081D01*
X80348219Y-46606084D01*
X80191016Y-46776852D01*
X80064075Y-46971151D01*
X79970842Y-47183699D01*
X79913866Y-47408691D01*
X79913864Y-47408702D01*
X79894700Y-47639993D01*
X79894700Y-47640006D01*
X79913864Y-47871297D01*
X79913866Y-47871308D01*
X79970842Y-48096300D01*
X80064075Y-48308848D01*
X80191016Y-48503147D01*
X80191019Y-48503151D01*
X80191021Y-48503153D01*
X80348216Y-48673913D01*
X80348219Y-48673915D01*
X80348222Y-48673918D01*
X80525818Y-48812147D01*
X80566631Y-48868857D01*
X80570306Y-48938630D01*
X80535674Y-48999313D01*
X80525819Y-49007853D01*
X80432809Y-49080245D01*
X80348216Y-49146087D01*
X80348210Y-49146092D01*
X80347521Y-49146728D01*
X80347172Y-49146899D01*
X80344170Y-49149237D01*
X80343689Y-49148619D01*
X80284867Y-49177652D01*
X80263536Y-49179500D01*
X72702676Y-49179500D01*
X72658155Y-49178372D01*
X72613636Y-49177244D01*
X72613635Y-49177244D01*
X72613626Y-49177244D01*
X72553263Y-49188064D01*
X72548597Y-49188718D01*
X72487564Y-49194925D01*
X72454780Y-49205210D01*
X72447153Y-49207082D01*
X72413349Y-49213141D01*
X72356381Y-49235895D01*
X72351945Y-49237474D01*
X72293414Y-49255840D01*
X72293410Y-49255842D01*
X72263378Y-49272510D01*
X72256284Y-49275879D01*
X72224382Y-49288623D01*
X72224377Y-49288625D01*
X72173156Y-49322381D01*
X72169128Y-49324822D01*
X72115501Y-49354588D01*
X72089434Y-49376965D01*
X72083165Y-49381692D01*
X72054484Y-49400595D01*
X72054478Y-49400600D01*
X72011109Y-49443968D01*
X72007655Y-49447169D01*
X71961104Y-49487134D01*
X71940075Y-49514300D01*
X71934884Y-49520193D01*
X71516460Y-49938618D01*
X71455137Y-49972103D01*
X71385446Y-49967119D01*
X71329512Y-49925248D01*
X71305095Y-49859783D01*
X71305839Y-49834760D01*
X71310500Y-49799361D01*
X71310499Y-48020640D01*
X71310499Y-48020636D01*
X71295046Y-47903246D01*
X71295044Y-47903241D01*
X71295044Y-47903238D01*
X71234536Y-47757159D01*
X71138282Y-47631718D01*
X71012841Y-47535464D01*
X70950158Y-47509500D01*
X70937047Y-47504069D01*
X70882644Y-47460228D01*
X70860579Y-47393934D01*
X70860500Y-47389508D01*
X70860500Y-45580491D01*
X70880185Y-45513452D01*
X70932989Y-45467697D01*
X70937022Y-45465941D01*
X71012841Y-45434536D01*
X71138282Y-45338282D01*
X71234536Y-45212841D01*
X71295044Y-45066762D01*
X71310500Y-44949361D01*
X71310499Y-43170640D01*
X71310499Y-43170636D01*
X71295046Y-43053246D01*
X71295044Y-43053241D01*
X71295044Y-43053238D01*
X71234536Y-42907159D01*
X71138282Y-42781718D01*
X71012841Y-42685464D01*
X70950158Y-42659500D01*
X70937047Y-42654069D01*
X70882644Y-42610228D01*
X70860579Y-42543934D01*
X70860500Y-42539508D01*
X70860500Y-40270491D01*
X70880185Y-40203452D01*
X70932989Y-40157697D01*
X70937022Y-40155941D01*
X71012841Y-40124536D01*
X71138282Y-40028282D01*
X71234536Y-39902841D01*
X71295044Y-39756762D01*
X71310500Y-39639361D01*
X71310499Y-37860640D01*
X71310499Y-37860636D01*
X71295046Y-37743246D01*
X71295044Y-37743241D01*
X71295044Y-37743238D01*
X71234536Y-37597159D01*
X71138282Y-37471718D01*
X71012841Y-37375464D01*
X70950158Y-37349500D01*
X70937047Y-37344069D01*
X70882644Y-37300228D01*
X70860579Y-37233934D01*
X70860500Y-37229508D01*
X70860500Y-35816675D01*
X70862756Y-35727642D01*
X70862755Y-35727641D01*
X70862756Y-35727636D01*
X70851929Y-35667233D01*
X70851282Y-35662620D01*
X70845074Y-35601562D01*
X70845073Y-35601560D01*
X70845073Y-35601557D01*
X70834790Y-35568787D01*
X70832917Y-35561154D01*
X70826858Y-35527348D01*
X70826382Y-35526157D01*
X70804102Y-35470378D01*
X70802521Y-35465937D01*
X70784157Y-35407407D01*
X70767488Y-35377378D01*
X70764117Y-35370278D01*
X70751378Y-35338386D01*
X70751377Y-35338383D01*
X70717620Y-35287163D01*
X70715180Y-35283134D01*
X70692942Y-35243070D01*
X70685409Y-35229498D01*
X70685407Y-35229495D01*
X70663033Y-35203434D01*
X70658302Y-35197159D01*
X70653584Y-35190000D01*
X70639402Y-35168481D01*
X70596033Y-35125112D01*
X70592829Y-35121656D01*
X70552867Y-35075106D01*
X70525698Y-35054075D01*
X70519804Y-35048883D01*
X70078450Y-34607530D01*
X70017059Y-34542947D01*
X70009399Y-34537615D01*
X69966709Y-34507902D01*
X69962944Y-34505064D01*
X69915408Y-34466302D01*
X69915406Y-34466300D01*
X69884959Y-34450397D01*
X69878251Y-34446334D01*
X69850049Y-34426705D01*
X69850046Y-34426703D01*
X69850045Y-34426703D01*
X69850041Y-34426701D01*
X69793680Y-34402514D01*
X69789424Y-34400493D01*
X69735057Y-34372094D01*
X69735050Y-34372091D01*
X69735049Y-34372091D01*
X69729008Y-34370362D01*
X69702030Y-34362642D01*
X69694630Y-34360008D01*
X69663057Y-34346459D01*
X69663058Y-34346459D01*
X69602966Y-34334109D01*
X69598391Y-34332986D01*
X69539420Y-34316113D01*
X69539425Y-34316113D01*
X69505158Y-34313503D01*
X69497380Y-34312412D01*
X69463742Y-34305500D01*
X69463741Y-34305500D01*
X69402402Y-34305500D01*
X69397695Y-34305321D01*
X69392121Y-34304896D01*
X69336524Y-34300662D01*
X69316589Y-34303201D01*
X69302440Y-34305003D01*
X69294611Y-34305500D01*
X59149783Y-34305500D01*
X59082744Y-34285815D01*
X59062102Y-34269181D01*
X58196819Y-33403898D01*
X58163334Y-33342575D01*
X58160500Y-33316217D01*
X58160500Y-31189783D01*
X58180185Y-31122744D01*
X58196819Y-31102102D01*
X58290102Y-31008819D01*
X58351425Y-30975334D01*
X58377783Y-30972500D01*
X60288875Y-30972500D01*
X60355914Y-30992185D01*
X60388141Y-31022188D01*
X60536029Y-31219742D01*
X60536033Y-31219746D01*
X60536038Y-31219752D01*
X60728247Y-31411961D01*
X60728253Y-31411966D01*
X60728258Y-31411971D01*
X60945887Y-31574887D01*
X60945891Y-31574889D01*
X60945892Y-31574890D01*
X61184481Y-31705169D01*
X61184480Y-31705169D01*
X61184484Y-31705170D01*
X61184487Y-31705172D01*
X61439199Y-31800175D01*
X61704840Y-31857961D01*
X61956605Y-31875967D01*
X61975999Y-31877355D01*
X61976000Y-31877355D01*
X61976001Y-31877355D01*
X61994100Y-31876060D01*
X62247160Y-31857961D01*
X62512801Y-31800175D01*
X62767513Y-31705172D01*
X62767517Y-31705169D01*
X62767519Y-31705169D01*
X62906098Y-31629499D01*
X63006113Y-31574887D01*
X63223742Y-31411971D01*
X63415971Y-31219742D01*
X63578887Y-31002113D01*
X63709172Y-30763513D01*
X63804175Y-30508801D01*
X63861961Y-30243160D01*
X63881355Y-29972000D01*
X63861961Y-29700840D01*
X63804175Y-29435199D01*
X63709172Y-29180487D01*
X63709170Y-29180484D01*
X63709169Y-29180480D01*
X63578890Y-28941892D01*
X63578889Y-28941891D01*
X63578887Y-28941887D01*
X63415971Y-28724258D01*
X63415966Y-28724253D01*
X63415961Y-28724247D01*
X63223752Y-28532038D01*
X63223746Y-28532033D01*
X63223742Y-28532029D01*
X63006113Y-28369113D01*
X63006108Y-28369110D01*
X63006107Y-28369109D01*
X62767518Y-28238830D01*
X62767519Y-28238830D01*
X62717920Y-28220330D01*
X62512801Y-28143825D01*
X62512794Y-28143823D01*
X62512793Y-28143823D01*
X62247167Y-28086040D01*
X62247160Y-28086039D01*
X61976001Y-28066645D01*
X61975999Y-28066645D01*
X61704839Y-28086039D01*
X61704832Y-28086040D01*
X61439206Y-28143823D01*
X61439202Y-28143824D01*
X61439199Y-28143825D01*
X61311843Y-28191326D01*
X61184480Y-28238830D01*
X60945892Y-28369109D01*
X60945891Y-28369110D01*
X60728259Y-28532028D01*
X60728247Y-28532038D01*
X60536038Y-28724247D01*
X60536029Y-28724258D01*
X60396165Y-28911094D01*
X60388142Y-28921811D01*
X60332208Y-28963682D01*
X60288875Y-28971500D01*
X57924717Y-28971500D01*
X57835637Y-28969243D01*
X57835628Y-28969243D01*
X57775260Y-28980064D01*
X57770595Y-28980718D01*
X57709563Y-28986925D01*
X57709555Y-28986927D01*
X57676781Y-28997210D01*
X57669154Y-28999082D01*
X57635350Y-29005141D01*
X57578384Y-29027894D01*
X57573948Y-29029473D01*
X57515414Y-29047840D01*
X57515412Y-29047841D01*
X57485385Y-29064506D01*
X57478293Y-29067874D01*
X57446383Y-29080621D01*
X57395154Y-29114383D01*
X57391126Y-29116824D01*
X57337502Y-29146588D01*
X57337499Y-29146590D01*
X57311427Y-29168970D01*
X57305160Y-29173695D01*
X57276482Y-29192598D01*
X57276475Y-29192603D01*
X57233116Y-29235962D01*
X57229661Y-29239164D01*
X57183106Y-29279132D01*
X57183105Y-29279133D01*
X57162076Y-29306300D01*
X57156884Y-29312194D01*
X56461532Y-30007546D01*
X56396946Y-30068942D01*
X56361899Y-30119294D01*
X56359062Y-30123056D01*
X56320302Y-30170592D01*
X56320299Y-30170597D01*
X56304392Y-30201047D01*
X56300324Y-30207761D01*
X56280702Y-30235954D01*
X56256509Y-30292330D01*
X56254488Y-30296584D01*
X56226091Y-30350951D01*
X56226090Y-30350952D01*
X56216640Y-30383975D01*
X56214007Y-30391371D01*
X56200459Y-30422943D01*
X56188113Y-30483019D01*
X56186990Y-30487595D01*
X56170113Y-30546577D01*
X56170113Y-30546579D01*
X56167503Y-30580841D01*
X56166414Y-30588608D01*
X56160980Y-30615052D01*
X56159500Y-30622258D01*
X56159500Y-30683597D01*
X56159321Y-30688306D01*
X56154662Y-30749474D01*
X51200500Y-30749474D01*
X51200500Y-26324500D01*
X51220185Y-26257461D01*
X51272989Y-26211706D01*
X51324500Y-26200500D01*
X128675500Y-26200500D01*
X128742539Y-26220185D01*
G37*
%TD.AperFunction*%
%TD*%
M02*
