%TF.GenerationSoftware,KiCad,Pcbnew,7.0.9*%
%TF.CreationDate,2024-01-17T18:54:20-05:00*%
%TF.ProjectId,ContadorElectronico,436f6e74-6164-46f7-9245-6c656374726f,rev?*%
%TF.SameCoordinates,Original*%
%TF.FileFunction,Legend,Top*%
%TF.FilePolarity,Positive*%
%FSLAX46Y46*%
G04 Gerber Fmt 4.6, Leading zero omitted, Abs format (unit mm)*
G04 Created by KiCad (PCBNEW 7.0.9) date 2024-01-17 18:54:20*
%MOMM*%
%LPD*%
G01*
G04 APERTURE LIST*
%ADD10C,0.150000*%
%ADD11C,0.120000*%
G04 APERTURE END LIST*
D10*
X121798680Y-66599819D02*
X121798680Y-67409342D01*
X121798680Y-67409342D02*
X121846299Y-67504580D01*
X121846299Y-67504580D02*
X121893918Y-67552200D01*
X121893918Y-67552200D02*
X121989156Y-67599819D01*
X121989156Y-67599819D02*
X122179632Y-67599819D01*
X122179632Y-67599819D02*
X122274870Y-67552200D01*
X122274870Y-67552200D02*
X122322489Y-67504580D01*
X122322489Y-67504580D02*
X122370108Y-67409342D01*
X122370108Y-67409342D02*
X122370108Y-66599819D01*
X123274870Y-66933152D02*
X123274870Y-67599819D01*
X123036775Y-66552200D02*
X122798680Y-67266485D01*
X122798680Y-67266485D02*
X123417727Y-67266485D01*
X121798680Y-76759819D02*
X121798680Y-77569342D01*
X121798680Y-77569342D02*
X121846299Y-77664580D01*
X121846299Y-77664580D02*
X121893918Y-77712200D01*
X121893918Y-77712200D02*
X121989156Y-77759819D01*
X121989156Y-77759819D02*
X122179632Y-77759819D01*
X122179632Y-77759819D02*
X122274870Y-77712200D01*
X122274870Y-77712200D02*
X122322489Y-77664580D01*
X122322489Y-77664580D02*
X122370108Y-77569342D01*
X122370108Y-77569342D02*
X122370108Y-76759819D01*
X122751061Y-76759819D02*
X123370108Y-76759819D01*
X123370108Y-76759819D02*
X123036775Y-77140771D01*
X123036775Y-77140771D02*
X123179632Y-77140771D01*
X123179632Y-77140771D02*
X123274870Y-77188390D01*
X123274870Y-77188390D02*
X123322489Y-77236009D01*
X123322489Y-77236009D02*
X123370108Y-77331247D01*
X123370108Y-77331247D02*
X123370108Y-77569342D01*
X123370108Y-77569342D02*
X123322489Y-77664580D01*
X123322489Y-77664580D02*
X123274870Y-77712200D01*
X123274870Y-77712200D02*
X123179632Y-77759819D01*
X123179632Y-77759819D02*
X122893918Y-77759819D01*
X122893918Y-77759819D02*
X122798680Y-77712200D01*
X122798680Y-77712200D02*
X122751061Y-77664580D01*
X69157252Y-44692200D02*
X69300109Y-44739819D01*
X69300109Y-44739819D02*
X69538204Y-44739819D01*
X69538204Y-44739819D02*
X69633442Y-44692200D01*
X69633442Y-44692200D02*
X69681061Y-44644580D01*
X69681061Y-44644580D02*
X69728680Y-44549342D01*
X69728680Y-44549342D02*
X69728680Y-44454104D01*
X69728680Y-44454104D02*
X69681061Y-44358866D01*
X69681061Y-44358866D02*
X69633442Y-44311247D01*
X69633442Y-44311247D02*
X69538204Y-44263628D01*
X69538204Y-44263628D02*
X69347728Y-44216009D01*
X69347728Y-44216009D02*
X69252490Y-44168390D01*
X69252490Y-44168390D02*
X69204871Y-44120771D01*
X69204871Y-44120771D02*
X69157252Y-44025533D01*
X69157252Y-44025533D02*
X69157252Y-43930295D01*
X69157252Y-43930295D02*
X69204871Y-43835057D01*
X69204871Y-43835057D02*
X69252490Y-43787438D01*
X69252490Y-43787438D02*
X69347728Y-43739819D01*
X69347728Y-43739819D02*
X69585823Y-43739819D01*
X69585823Y-43739819D02*
X69728680Y-43787438D01*
X70062014Y-43739819D02*
X70300109Y-44739819D01*
X70300109Y-44739819D02*
X70490585Y-44025533D01*
X70490585Y-44025533D02*
X70681061Y-44739819D01*
X70681061Y-44739819D02*
X70919157Y-43739819D01*
X71204871Y-43739819D02*
X71823918Y-43739819D01*
X71823918Y-43739819D02*
X71490585Y-44120771D01*
X71490585Y-44120771D02*
X71633442Y-44120771D01*
X71633442Y-44120771D02*
X71728680Y-44168390D01*
X71728680Y-44168390D02*
X71776299Y-44216009D01*
X71776299Y-44216009D02*
X71823918Y-44311247D01*
X71823918Y-44311247D02*
X71823918Y-44549342D01*
X71823918Y-44549342D02*
X71776299Y-44644580D01*
X71776299Y-44644580D02*
X71728680Y-44692200D01*
X71728680Y-44692200D02*
X71633442Y-44739819D01*
X71633442Y-44739819D02*
X71347728Y-44739819D01*
X71347728Y-44739819D02*
X71252490Y-44692200D01*
X71252490Y-44692200D02*
X71204871Y-44644580D01*
X73782490Y-72664819D02*
X73782490Y-71664819D01*
X73782490Y-71664819D02*
X74020585Y-71664819D01*
X74020585Y-71664819D02*
X74163442Y-71712438D01*
X74163442Y-71712438D02*
X74258680Y-71807676D01*
X74258680Y-71807676D02*
X74306299Y-71902914D01*
X74306299Y-71902914D02*
X74353918Y-72093390D01*
X74353918Y-72093390D02*
X74353918Y-72236247D01*
X74353918Y-72236247D02*
X74306299Y-72426723D01*
X74306299Y-72426723D02*
X74258680Y-72521961D01*
X74258680Y-72521961D02*
X74163442Y-72617200D01*
X74163442Y-72617200D02*
X74020585Y-72664819D01*
X74020585Y-72664819D02*
X73782490Y-72664819D01*
X75306299Y-72664819D02*
X74734871Y-72664819D01*
X75020585Y-72664819D02*
X75020585Y-71664819D01*
X75020585Y-71664819D02*
X74925347Y-71807676D01*
X74925347Y-71807676D02*
X74830109Y-71902914D01*
X74830109Y-71902914D02*
X74734871Y-71950533D01*
X69157252Y-59932200D02*
X69300109Y-59979819D01*
X69300109Y-59979819D02*
X69538204Y-59979819D01*
X69538204Y-59979819D02*
X69633442Y-59932200D01*
X69633442Y-59932200D02*
X69681061Y-59884580D01*
X69681061Y-59884580D02*
X69728680Y-59789342D01*
X69728680Y-59789342D02*
X69728680Y-59694104D01*
X69728680Y-59694104D02*
X69681061Y-59598866D01*
X69681061Y-59598866D02*
X69633442Y-59551247D01*
X69633442Y-59551247D02*
X69538204Y-59503628D01*
X69538204Y-59503628D02*
X69347728Y-59456009D01*
X69347728Y-59456009D02*
X69252490Y-59408390D01*
X69252490Y-59408390D02*
X69204871Y-59360771D01*
X69204871Y-59360771D02*
X69157252Y-59265533D01*
X69157252Y-59265533D02*
X69157252Y-59170295D01*
X69157252Y-59170295D02*
X69204871Y-59075057D01*
X69204871Y-59075057D02*
X69252490Y-59027438D01*
X69252490Y-59027438D02*
X69347728Y-58979819D01*
X69347728Y-58979819D02*
X69585823Y-58979819D01*
X69585823Y-58979819D02*
X69728680Y-59027438D01*
X70062014Y-58979819D02*
X70300109Y-59979819D01*
X70300109Y-59979819D02*
X70490585Y-59265533D01*
X70490585Y-59265533D02*
X70681061Y-59979819D01*
X70681061Y-59979819D02*
X70919157Y-58979819D01*
X71823918Y-59979819D02*
X71252490Y-59979819D01*
X71538204Y-59979819D02*
X71538204Y-58979819D01*
X71538204Y-58979819D02*
X71442966Y-59122676D01*
X71442966Y-59122676D02*
X71347728Y-59217914D01*
X71347728Y-59217914D02*
X71252490Y-59265533D01*
X69157252Y-49772200D02*
X69300109Y-49819819D01*
X69300109Y-49819819D02*
X69538204Y-49819819D01*
X69538204Y-49819819D02*
X69633442Y-49772200D01*
X69633442Y-49772200D02*
X69681061Y-49724580D01*
X69681061Y-49724580D02*
X69728680Y-49629342D01*
X69728680Y-49629342D02*
X69728680Y-49534104D01*
X69728680Y-49534104D02*
X69681061Y-49438866D01*
X69681061Y-49438866D02*
X69633442Y-49391247D01*
X69633442Y-49391247D02*
X69538204Y-49343628D01*
X69538204Y-49343628D02*
X69347728Y-49296009D01*
X69347728Y-49296009D02*
X69252490Y-49248390D01*
X69252490Y-49248390D02*
X69204871Y-49200771D01*
X69204871Y-49200771D02*
X69157252Y-49105533D01*
X69157252Y-49105533D02*
X69157252Y-49010295D01*
X69157252Y-49010295D02*
X69204871Y-48915057D01*
X69204871Y-48915057D02*
X69252490Y-48867438D01*
X69252490Y-48867438D02*
X69347728Y-48819819D01*
X69347728Y-48819819D02*
X69585823Y-48819819D01*
X69585823Y-48819819D02*
X69728680Y-48867438D01*
X70062014Y-48819819D02*
X70300109Y-49819819D01*
X70300109Y-49819819D02*
X70490585Y-49105533D01*
X70490585Y-49105533D02*
X70681061Y-49819819D01*
X70681061Y-49819819D02*
X70919157Y-48819819D01*
X71252490Y-48915057D02*
X71300109Y-48867438D01*
X71300109Y-48867438D02*
X71395347Y-48819819D01*
X71395347Y-48819819D02*
X71633442Y-48819819D01*
X71633442Y-48819819D02*
X71728680Y-48867438D01*
X71728680Y-48867438D02*
X71776299Y-48915057D01*
X71776299Y-48915057D02*
X71823918Y-49010295D01*
X71823918Y-49010295D02*
X71823918Y-49105533D01*
X71823918Y-49105533D02*
X71776299Y-49248390D01*
X71776299Y-49248390D02*
X71204871Y-49819819D01*
X71204871Y-49819819D02*
X71823918Y-49819819D01*
X59677727Y-47264819D02*
X59344394Y-46788628D01*
X59106299Y-47264819D02*
X59106299Y-46264819D01*
X59106299Y-46264819D02*
X59487251Y-46264819D01*
X59487251Y-46264819D02*
X59582489Y-46312438D01*
X59582489Y-46312438D02*
X59630108Y-46360057D01*
X59630108Y-46360057D02*
X59677727Y-46455295D01*
X59677727Y-46455295D02*
X59677727Y-46598152D01*
X59677727Y-46598152D02*
X59630108Y-46693390D01*
X59630108Y-46693390D02*
X59582489Y-46741009D01*
X59582489Y-46741009D02*
X59487251Y-46788628D01*
X59487251Y-46788628D02*
X59106299Y-46788628D01*
X60630108Y-47264819D02*
X60058680Y-47264819D01*
X60344394Y-47264819D02*
X60344394Y-46264819D01*
X60344394Y-46264819D02*
X60249156Y-46407676D01*
X60249156Y-46407676D02*
X60153918Y-46502914D01*
X60153918Y-46502914D02*
X60058680Y-46550533D01*
X61582489Y-47264819D02*
X61011061Y-47264819D01*
X61296775Y-47264819D02*
X61296775Y-46264819D01*
X61296775Y-46264819D02*
X61201537Y-46407676D01*
X61201537Y-46407676D02*
X61106299Y-46502914D01*
X61106299Y-46502914D02*
X61011061Y-46550533D01*
X121788680Y-56424819D02*
X121788680Y-57234342D01*
X121788680Y-57234342D02*
X121836299Y-57329580D01*
X121836299Y-57329580D02*
X121883918Y-57377200D01*
X121883918Y-57377200D02*
X121979156Y-57424819D01*
X121979156Y-57424819D02*
X122169632Y-57424819D01*
X122169632Y-57424819D02*
X122264870Y-57377200D01*
X122264870Y-57377200D02*
X122312489Y-57329580D01*
X122312489Y-57329580D02*
X122360108Y-57234342D01*
X122360108Y-57234342D02*
X122360108Y-56424819D01*
X123360108Y-57424819D02*
X122788680Y-57424819D01*
X123074394Y-57424819D02*
X123074394Y-56424819D01*
X123074394Y-56424819D02*
X122979156Y-56567676D01*
X122979156Y-56567676D02*
X122883918Y-56662914D01*
X122883918Y-56662914D02*
X122788680Y-56710533D01*
X90086299Y-54599104D02*
X90562489Y-54599104D01*
X89991061Y-54884819D02*
X90324394Y-53884819D01*
X90324394Y-53884819D02*
X90657727Y-54884819D01*
X91514870Y-54884819D02*
X90943442Y-54884819D01*
X91229156Y-54884819D02*
X91229156Y-53884819D01*
X91229156Y-53884819D02*
X91133918Y-54027676D01*
X91133918Y-54027676D02*
X91038680Y-54122914D01*
X91038680Y-54122914D02*
X90943442Y-54170533D01*
X89548680Y-78014819D02*
X89548680Y-78824342D01*
X89548680Y-78824342D02*
X89596299Y-78919580D01*
X89596299Y-78919580D02*
X89643918Y-78967200D01*
X89643918Y-78967200D02*
X89739156Y-79014819D01*
X89739156Y-79014819D02*
X89929632Y-79014819D01*
X89929632Y-79014819D02*
X90024870Y-78967200D01*
X90024870Y-78967200D02*
X90072489Y-78919580D01*
X90072489Y-78919580D02*
X90120108Y-78824342D01*
X90120108Y-78824342D02*
X90120108Y-78014819D01*
X90548680Y-78967200D02*
X90691537Y-79014819D01*
X90691537Y-79014819D02*
X90929632Y-79014819D01*
X90929632Y-79014819D02*
X91024870Y-78967200D01*
X91024870Y-78967200D02*
X91072489Y-78919580D01*
X91072489Y-78919580D02*
X91120108Y-78824342D01*
X91120108Y-78824342D02*
X91120108Y-78729104D01*
X91120108Y-78729104D02*
X91072489Y-78633866D01*
X91072489Y-78633866D02*
X91024870Y-78586247D01*
X91024870Y-78586247D02*
X90929632Y-78538628D01*
X90929632Y-78538628D02*
X90739156Y-78491009D01*
X90739156Y-78491009D02*
X90643918Y-78443390D01*
X90643918Y-78443390D02*
X90596299Y-78395771D01*
X90596299Y-78395771D02*
X90548680Y-78300533D01*
X90548680Y-78300533D02*
X90548680Y-78205295D01*
X90548680Y-78205295D02*
X90596299Y-78110057D01*
X90596299Y-78110057D02*
X90643918Y-78062438D01*
X90643918Y-78062438D02*
X90739156Y-78014819D01*
X90739156Y-78014819D02*
X90977251Y-78014819D01*
X90977251Y-78014819D02*
X91120108Y-78062438D01*
X91882013Y-78491009D02*
X92024870Y-78538628D01*
X92024870Y-78538628D02*
X92072489Y-78586247D01*
X92072489Y-78586247D02*
X92120108Y-78681485D01*
X92120108Y-78681485D02*
X92120108Y-78824342D01*
X92120108Y-78824342D02*
X92072489Y-78919580D01*
X92072489Y-78919580D02*
X92024870Y-78967200D01*
X92024870Y-78967200D02*
X91929632Y-79014819D01*
X91929632Y-79014819D02*
X91548680Y-79014819D01*
X91548680Y-79014819D02*
X91548680Y-78014819D01*
X91548680Y-78014819D02*
X91882013Y-78014819D01*
X91882013Y-78014819D02*
X91977251Y-78062438D01*
X91977251Y-78062438D02*
X92024870Y-78110057D01*
X92024870Y-78110057D02*
X92072489Y-78205295D01*
X92072489Y-78205295D02*
X92072489Y-78300533D01*
X92072489Y-78300533D02*
X92024870Y-78395771D01*
X92024870Y-78395771D02*
X91977251Y-78443390D01*
X91977251Y-78443390D02*
X91882013Y-78491009D01*
X91882013Y-78491009D02*
X91548680Y-78491009D01*
X59677727Y-72664819D02*
X59344394Y-72188628D01*
X59106299Y-72664819D02*
X59106299Y-71664819D01*
X59106299Y-71664819D02*
X59487251Y-71664819D01*
X59487251Y-71664819D02*
X59582489Y-71712438D01*
X59582489Y-71712438D02*
X59630108Y-71760057D01*
X59630108Y-71760057D02*
X59677727Y-71855295D01*
X59677727Y-71855295D02*
X59677727Y-71998152D01*
X59677727Y-71998152D02*
X59630108Y-72093390D01*
X59630108Y-72093390D02*
X59582489Y-72141009D01*
X59582489Y-72141009D02*
X59487251Y-72188628D01*
X59487251Y-72188628D02*
X59106299Y-72188628D01*
X60630108Y-72664819D02*
X60058680Y-72664819D01*
X60344394Y-72664819D02*
X60344394Y-71664819D01*
X60344394Y-71664819D02*
X60249156Y-71807676D01*
X60249156Y-71807676D02*
X60153918Y-71902914D01*
X60153918Y-71902914D02*
X60058680Y-71950533D01*
X61011061Y-71760057D02*
X61058680Y-71712438D01*
X61058680Y-71712438D02*
X61153918Y-71664819D01*
X61153918Y-71664819D02*
X61392013Y-71664819D01*
X61392013Y-71664819D02*
X61487251Y-71712438D01*
X61487251Y-71712438D02*
X61534870Y-71760057D01*
X61534870Y-71760057D02*
X61582489Y-71855295D01*
X61582489Y-71855295D02*
X61582489Y-71950533D01*
X61582489Y-71950533D02*
X61534870Y-72093390D01*
X61534870Y-72093390D02*
X60963442Y-72664819D01*
X60963442Y-72664819D02*
X61582489Y-72664819D01*
X109683918Y-59964819D02*
X109350585Y-59488628D01*
X109112490Y-59964819D02*
X109112490Y-58964819D01*
X109112490Y-58964819D02*
X109493442Y-58964819D01*
X109493442Y-58964819D02*
X109588680Y-59012438D01*
X109588680Y-59012438D02*
X109636299Y-59060057D01*
X109636299Y-59060057D02*
X109683918Y-59155295D01*
X109683918Y-59155295D02*
X109683918Y-59298152D01*
X109683918Y-59298152D02*
X109636299Y-59393390D01*
X109636299Y-59393390D02*
X109588680Y-59441009D01*
X109588680Y-59441009D02*
X109493442Y-59488628D01*
X109493442Y-59488628D02*
X109112490Y-59488628D01*
X110064871Y-59060057D02*
X110112490Y-59012438D01*
X110112490Y-59012438D02*
X110207728Y-58964819D01*
X110207728Y-58964819D02*
X110445823Y-58964819D01*
X110445823Y-58964819D02*
X110541061Y-59012438D01*
X110541061Y-59012438D02*
X110588680Y-59060057D01*
X110588680Y-59060057D02*
X110636299Y-59155295D01*
X110636299Y-59155295D02*
X110636299Y-59250533D01*
X110636299Y-59250533D02*
X110588680Y-59393390D01*
X110588680Y-59393390D02*
X110017252Y-59964819D01*
X110017252Y-59964819D02*
X110636299Y-59964819D01*
X135083918Y-57424819D02*
X134750585Y-56948628D01*
X134512490Y-57424819D02*
X134512490Y-56424819D01*
X134512490Y-56424819D02*
X134893442Y-56424819D01*
X134893442Y-56424819D02*
X134988680Y-56472438D01*
X134988680Y-56472438D02*
X135036299Y-56520057D01*
X135036299Y-56520057D02*
X135083918Y-56615295D01*
X135083918Y-56615295D02*
X135083918Y-56758152D01*
X135083918Y-56758152D02*
X135036299Y-56853390D01*
X135036299Y-56853390D02*
X134988680Y-56901009D01*
X134988680Y-56901009D02*
X134893442Y-56948628D01*
X134893442Y-56948628D02*
X134512490Y-56948628D01*
X135941061Y-56758152D02*
X135941061Y-57424819D01*
X135702966Y-56377200D02*
X135464871Y-57091485D01*
X135464871Y-57091485D02*
X136083918Y-57091485D01*
X109683918Y-54884819D02*
X109350585Y-54408628D01*
X109112490Y-54884819D02*
X109112490Y-53884819D01*
X109112490Y-53884819D02*
X109493442Y-53884819D01*
X109493442Y-53884819D02*
X109588680Y-53932438D01*
X109588680Y-53932438D02*
X109636299Y-53980057D01*
X109636299Y-53980057D02*
X109683918Y-54075295D01*
X109683918Y-54075295D02*
X109683918Y-54218152D01*
X109683918Y-54218152D02*
X109636299Y-54313390D01*
X109636299Y-54313390D02*
X109588680Y-54361009D01*
X109588680Y-54361009D02*
X109493442Y-54408628D01*
X109493442Y-54408628D02*
X109112490Y-54408628D01*
X110636299Y-54884819D02*
X110064871Y-54884819D01*
X110350585Y-54884819D02*
X110350585Y-53884819D01*
X110350585Y-53884819D02*
X110255347Y-54027676D01*
X110255347Y-54027676D02*
X110160109Y-54122914D01*
X110160109Y-54122914D02*
X110064871Y-54170533D01*
X109673918Y-77729819D02*
X109340585Y-77253628D01*
X109102490Y-77729819D02*
X109102490Y-76729819D01*
X109102490Y-76729819D02*
X109483442Y-76729819D01*
X109483442Y-76729819D02*
X109578680Y-76777438D01*
X109578680Y-76777438D02*
X109626299Y-76825057D01*
X109626299Y-76825057D02*
X109673918Y-76920295D01*
X109673918Y-76920295D02*
X109673918Y-77063152D01*
X109673918Y-77063152D02*
X109626299Y-77158390D01*
X109626299Y-77158390D02*
X109578680Y-77206009D01*
X109578680Y-77206009D02*
X109483442Y-77253628D01*
X109483442Y-77253628D02*
X109102490Y-77253628D01*
X110578680Y-76729819D02*
X110102490Y-76729819D01*
X110102490Y-76729819D02*
X110054871Y-77206009D01*
X110054871Y-77206009D02*
X110102490Y-77158390D01*
X110102490Y-77158390D02*
X110197728Y-77110771D01*
X110197728Y-77110771D02*
X110435823Y-77110771D01*
X110435823Y-77110771D02*
X110531061Y-77158390D01*
X110531061Y-77158390D02*
X110578680Y-77206009D01*
X110578680Y-77206009D02*
X110626299Y-77301247D01*
X110626299Y-77301247D02*
X110626299Y-77539342D01*
X110626299Y-77539342D02*
X110578680Y-77634580D01*
X110578680Y-77634580D02*
X110531061Y-77682200D01*
X110531061Y-77682200D02*
X110435823Y-77729819D01*
X110435823Y-77729819D02*
X110197728Y-77729819D01*
X110197728Y-77729819D02*
X110102490Y-77682200D01*
X110102490Y-77682200D02*
X110054871Y-77634580D01*
X60153918Y-57424819D02*
X59820585Y-56948628D01*
X59582490Y-57424819D02*
X59582490Y-56424819D01*
X59582490Y-56424819D02*
X59963442Y-56424819D01*
X59963442Y-56424819D02*
X60058680Y-56472438D01*
X60058680Y-56472438D02*
X60106299Y-56520057D01*
X60106299Y-56520057D02*
X60153918Y-56615295D01*
X60153918Y-56615295D02*
X60153918Y-56758152D01*
X60153918Y-56758152D02*
X60106299Y-56853390D01*
X60106299Y-56853390D02*
X60058680Y-56901009D01*
X60058680Y-56901009D02*
X59963442Y-56948628D01*
X59963442Y-56948628D02*
X59582490Y-56948628D01*
X60630109Y-57424819D02*
X60820585Y-57424819D01*
X60820585Y-57424819D02*
X60915823Y-57377200D01*
X60915823Y-57377200D02*
X60963442Y-57329580D01*
X60963442Y-57329580D02*
X61058680Y-57186723D01*
X61058680Y-57186723D02*
X61106299Y-56996247D01*
X61106299Y-56996247D02*
X61106299Y-56615295D01*
X61106299Y-56615295D02*
X61058680Y-56520057D01*
X61058680Y-56520057D02*
X61011061Y-56472438D01*
X61011061Y-56472438D02*
X60915823Y-56424819D01*
X60915823Y-56424819D02*
X60725347Y-56424819D01*
X60725347Y-56424819D02*
X60630109Y-56472438D01*
X60630109Y-56472438D02*
X60582490Y-56520057D01*
X60582490Y-56520057D02*
X60534871Y-56615295D01*
X60534871Y-56615295D02*
X60534871Y-56853390D01*
X60534871Y-56853390D02*
X60582490Y-56948628D01*
X60582490Y-56948628D02*
X60630109Y-56996247D01*
X60630109Y-56996247D02*
X60725347Y-57043866D01*
X60725347Y-57043866D02*
X60915823Y-57043866D01*
X60915823Y-57043866D02*
X61011061Y-56996247D01*
X61011061Y-56996247D02*
X61058680Y-56948628D01*
X61058680Y-56948628D02*
X61106299Y-56853390D01*
X135083918Y-70124819D02*
X134750585Y-69648628D01*
X134512490Y-70124819D02*
X134512490Y-69124819D01*
X134512490Y-69124819D02*
X134893442Y-69124819D01*
X134893442Y-69124819D02*
X134988680Y-69172438D01*
X134988680Y-69172438D02*
X135036299Y-69220057D01*
X135036299Y-69220057D02*
X135083918Y-69315295D01*
X135083918Y-69315295D02*
X135083918Y-69458152D01*
X135083918Y-69458152D02*
X135036299Y-69553390D01*
X135036299Y-69553390D02*
X134988680Y-69601009D01*
X134988680Y-69601009D02*
X134893442Y-69648628D01*
X134893442Y-69648628D02*
X134512490Y-69648628D01*
X135655347Y-69553390D02*
X135560109Y-69505771D01*
X135560109Y-69505771D02*
X135512490Y-69458152D01*
X135512490Y-69458152D02*
X135464871Y-69362914D01*
X135464871Y-69362914D02*
X135464871Y-69315295D01*
X135464871Y-69315295D02*
X135512490Y-69220057D01*
X135512490Y-69220057D02*
X135560109Y-69172438D01*
X135560109Y-69172438D02*
X135655347Y-69124819D01*
X135655347Y-69124819D02*
X135845823Y-69124819D01*
X135845823Y-69124819D02*
X135941061Y-69172438D01*
X135941061Y-69172438D02*
X135988680Y-69220057D01*
X135988680Y-69220057D02*
X136036299Y-69315295D01*
X136036299Y-69315295D02*
X136036299Y-69362914D01*
X136036299Y-69362914D02*
X135988680Y-69458152D01*
X135988680Y-69458152D02*
X135941061Y-69505771D01*
X135941061Y-69505771D02*
X135845823Y-69553390D01*
X135845823Y-69553390D02*
X135655347Y-69553390D01*
X135655347Y-69553390D02*
X135560109Y-69601009D01*
X135560109Y-69601009D02*
X135512490Y-69648628D01*
X135512490Y-69648628D02*
X135464871Y-69743866D01*
X135464871Y-69743866D02*
X135464871Y-69934342D01*
X135464871Y-69934342D02*
X135512490Y-70029580D01*
X135512490Y-70029580D02*
X135560109Y-70077200D01*
X135560109Y-70077200D02*
X135655347Y-70124819D01*
X135655347Y-70124819D02*
X135845823Y-70124819D01*
X135845823Y-70124819D02*
X135941061Y-70077200D01*
X135941061Y-70077200D02*
X135988680Y-70029580D01*
X135988680Y-70029580D02*
X136036299Y-69934342D01*
X136036299Y-69934342D02*
X136036299Y-69743866D01*
X136036299Y-69743866D02*
X135988680Y-69648628D01*
X135988680Y-69648628D02*
X135941061Y-69601009D01*
X135941061Y-69601009D02*
X135845823Y-69553390D01*
X109683918Y-67584819D02*
X109350585Y-67108628D01*
X109112490Y-67584819D02*
X109112490Y-66584819D01*
X109112490Y-66584819D02*
X109493442Y-66584819D01*
X109493442Y-66584819D02*
X109588680Y-66632438D01*
X109588680Y-66632438D02*
X109636299Y-66680057D01*
X109636299Y-66680057D02*
X109683918Y-66775295D01*
X109683918Y-66775295D02*
X109683918Y-66918152D01*
X109683918Y-66918152D02*
X109636299Y-67013390D01*
X109636299Y-67013390D02*
X109588680Y-67061009D01*
X109588680Y-67061009D02*
X109493442Y-67108628D01*
X109493442Y-67108628D02*
X109112490Y-67108628D01*
X110541061Y-66584819D02*
X110350585Y-66584819D01*
X110350585Y-66584819D02*
X110255347Y-66632438D01*
X110255347Y-66632438D02*
X110207728Y-66680057D01*
X110207728Y-66680057D02*
X110112490Y-66822914D01*
X110112490Y-66822914D02*
X110064871Y-67013390D01*
X110064871Y-67013390D02*
X110064871Y-67394342D01*
X110064871Y-67394342D02*
X110112490Y-67489580D01*
X110112490Y-67489580D02*
X110160109Y-67537200D01*
X110160109Y-67537200D02*
X110255347Y-67584819D01*
X110255347Y-67584819D02*
X110445823Y-67584819D01*
X110445823Y-67584819D02*
X110541061Y-67537200D01*
X110541061Y-67537200D02*
X110588680Y-67489580D01*
X110588680Y-67489580D02*
X110636299Y-67394342D01*
X110636299Y-67394342D02*
X110636299Y-67156247D01*
X110636299Y-67156247D02*
X110588680Y-67061009D01*
X110588680Y-67061009D02*
X110541061Y-67013390D01*
X110541061Y-67013390D02*
X110445823Y-66965771D01*
X110445823Y-66965771D02*
X110255347Y-66965771D01*
X110255347Y-66965771D02*
X110160109Y-67013390D01*
X110160109Y-67013390D02*
X110112490Y-67061009D01*
X110112490Y-67061009D02*
X110064871Y-67156247D01*
X135073918Y-80269819D02*
X134740585Y-79793628D01*
X134502490Y-80269819D02*
X134502490Y-79269819D01*
X134502490Y-79269819D02*
X134883442Y-79269819D01*
X134883442Y-79269819D02*
X134978680Y-79317438D01*
X134978680Y-79317438D02*
X135026299Y-79365057D01*
X135026299Y-79365057D02*
X135073918Y-79460295D01*
X135073918Y-79460295D02*
X135073918Y-79603152D01*
X135073918Y-79603152D02*
X135026299Y-79698390D01*
X135026299Y-79698390D02*
X134978680Y-79746009D01*
X134978680Y-79746009D02*
X134883442Y-79793628D01*
X134883442Y-79793628D02*
X134502490Y-79793628D01*
X135407252Y-79269819D02*
X136073918Y-79269819D01*
X136073918Y-79269819D02*
X135645347Y-80269819D01*
X135083918Y-51074819D02*
X134750585Y-50598628D01*
X134512490Y-51074819D02*
X134512490Y-50074819D01*
X134512490Y-50074819D02*
X134893442Y-50074819D01*
X134893442Y-50074819D02*
X134988680Y-50122438D01*
X134988680Y-50122438D02*
X135036299Y-50170057D01*
X135036299Y-50170057D02*
X135083918Y-50265295D01*
X135083918Y-50265295D02*
X135083918Y-50408152D01*
X135083918Y-50408152D02*
X135036299Y-50503390D01*
X135036299Y-50503390D02*
X134988680Y-50551009D01*
X134988680Y-50551009D02*
X134893442Y-50598628D01*
X134893442Y-50598628D02*
X134512490Y-50598628D01*
X135417252Y-50074819D02*
X136036299Y-50074819D01*
X136036299Y-50074819D02*
X135702966Y-50455771D01*
X135702966Y-50455771D02*
X135845823Y-50455771D01*
X135845823Y-50455771D02*
X135941061Y-50503390D01*
X135941061Y-50503390D02*
X135988680Y-50551009D01*
X135988680Y-50551009D02*
X136036299Y-50646247D01*
X136036299Y-50646247D02*
X136036299Y-50884342D01*
X136036299Y-50884342D02*
X135988680Y-50979580D01*
X135988680Y-50979580D02*
X135941061Y-51027200D01*
X135941061Y-51027200D02*
X135845823Y-51074819D01*
X135845823Y-51074819D02*
X135560109Y-51074819D01*
X135560109Y-51074819D02*
X135464871Y-51027200D01*
X135464871Y-51027200D02*
X135417252Y-50979580D01*
X59677727Y-52574819D02*
X59344394Y-52098628D01*
X59106299Y-52574819D02*
X59106299Y-51574819D01*
X59106299Y-51574819D02*
X59487251Y-51574819D01*
X59487251Y-51574819D02*
X59582489Y-51622438D01*
X59582489Y-51622438D02*
X59630108Y-51670057D01*
X59630108Y-51670057D02*
X59677727Y-51765295D01*
X59677727Y-51765295D02*
X59677727Y-51908152D01*
X59677727Y-51908152D02*
X59630108Y-52003390D01*
X59630108Y-52003390D02*
X59582489Y-52051009D01*
X59582489Y-52051009D02*
X59487251Y-52098628D01*
X59487251Y-52098628D02*
X59106299Y-52098628D01*
X60630108Y-52574819D02*
X60058680Y-52574819D01*
X60344394Y-52574819D02*
X60344394Y-51574819D01*
X60344394Y-51574819D02*
X60249156Y-51717676D01*
X60249156Y-51717676D02*
X60153918Y-51812914D01*
X60153918Y-51812914D02*
X60058680Y-51860533D01*
X61249156Y-51574819D02*
X61344394Y-51574819D01*
X61344394Y-51574819D02*
X61439632Y-51622438D01*
X61439632Y-51622438D02*
X61487251Y-51670057D01*
X61487251Y-51670057D02*
X61534870Y-51765295D01*
X61534870Y-51765295D02*
X61582489Y-51955771D01*
X61582489Y-51955771D02*
X61582489Y-52193866D01*
X61582489Y-52193866D02*
X61534870Y-52384342D01*
X61534870Y-52384342D02*
X61487251Y-52479580D01*
X61487251Y-52479580D02*
X61439632Y-52527200D01*
X61439632Y-52527200D02*
X61344394Y-52574819D01*
X61344394Y-52574819D02*
X61249156Y-52574819D01*
X61249156Y-52574819D02*
X61153918Y-52527200D01*
X61153918Y-52527200D02*
X61106299Y-52479580D01*
X61106299Y-52479580D02*
X61058680Y-52384342D01*
X61058680Y-52384342D02*
X61011061Y-52193866D01*
X61011061Y-52193866D02*
X61011061Y-51955771D01*
X61011061Y-51955771D02*
X61058680Y-51765295D01*
X61058680Y-51765295D02*
X61106299Y-51670057D01*
X61106299Y-51670057D02*
X61153918Y-51622438D01*
X61153918Y-51622438D02*
X61249156Y-51574819D01*
X62743680Y-76759819D02*
X62743680Y-77569342D01*
X62743680Y-77569342D02*
X62791299Y-77664580D01*
X62791299Y-77664580D02*
X62838918Y-77712200D01*
X62838918Y-77712200D02*
X62934156Y-77759819D01*
X62934156Y-77759819D02*
X63124632Y-77759819D01*
X63124632Y-77759819D02*
X63219870Y-77712200D01*
X63219870Y-77712200D02*
X63267489Y-77664580D01*
X63267489Y-77664580D02*
X63315108Y-77569342D01*
X63315108Y-77569342D02*
X63315108Y-76759819D01*
X63743680Y-76855057D02*
X63791299Y-76807438D01*
X63791299Y-76807438D02*
X63886537Y-76759819D01*
X63886537Y-76759819D02*
X64124632Y-76759819D01*
X64124632Y-76759819D02*
X64219870Y-76807438D01*
X64219870Y-76807438D02*
X64267489Y-76855057D01*
X64267489Y-76855057D02*
X64315108Y-76950295D01*
X64315108Y-76950295D02*
X64315108Y-77045533D01*
X64315108Y-77045533D02*
X64267489Y-77188390D01*
X64267489Y-77188390D02*
X63696061Y-77759819D01*
X63696061Y-77759819D02*
X64315108Y-77759819D01*
X63368680Y-66584819D02*
X63368680Y-67394342D01*
X63368680Y-67394342D02*
X63416299Y-67489580D01*
X63416299Y-67489580D02*
X63463918Y-67537200D01*
X63463918Y-67537200D02*
X63559156Y-67584819D01*
X63559156Y-67584819D02*
X63749632Y-67584819D01*
X63749632Y-67584819D02*
X63844870Y-67537200D01*
X63844870Y-67537200D02*
X63892489Y-67489580D01*
X63892489Y-67489580D02*
X63940108Y-67394342D01*
X63940108Y-67394342D02*
X63940108Y-66584819D01*
X64892489Y-66584819D02*
X64416299Y-66584819D01*
X64416299Y-66584819D02*
X64368680Y-67061009D01*
X64368680Y-67061009D02*
X64416299Y-67013390D01*
X64416299Y-67013390D02*
X64511537Y-66965771D01*
X64511537Y-66965771D02*
X64749632Y-66965771D01*
X64749632Y-66965771D02*
X64844870Y-67013390D01*
X64844870Y-67013390D02*
X64892489Y-67061009D01*
X64892489Y-67061009D02*
X64940108Y-67156247D01*
X64940108Y-67156247D02*
X64940108Y-67394342D01*
X64940108Y-67394342D02*
X64892489Y-67489580D01*
X64892489Y-67489580D02*
X64844870Y-67537200D01*
X64844870Y-67537200D02*
X64749632Y-67584819D01*
X64749632Y-67584819D02*
X64511537Y-67584819D01*
X64511537Y-67584819D02*
X64416299Y-67537200D01*
X64416299Y-67537200D02*
X64368680Y-67489580D01*
D11*
%TO.C,U4*%
X121560585Y-63275000D02*
X119910585Y-63275000D01*
X119910585Y-63275000D02*
X119910585Y-71015000D01*
X127700585Y-63215000D02*
X117420585Y-63215000D01*
X117420585Y-63215000D02*
X117420585Y-71075000D01*
X125210585Y-71015000D02*
X125210585Y-63275000D01*
X119910585Y-71015000D02*
X125210585Y-71015000D01*
X117420585Y-71075000D02*
X127700585Y-71075000D01*
X127700585Y-71075000D02*
X127700585Y-63215000D01*
X125210585Y-63275000D02*
X123560585Y-63275000D01*
X121560585Y-63275000D02*
G75*
G03*
X123560585Y-63275000I1000000J0D01*
G01*
%TO.C,U3*%
X121550585Y-73420000D02*
X119900585Y-73420000D01*
X119900585Y-73420000D02*
X119900585Y-81160000D01*
X127690585Y-73360000D02*
X117410585Y-73360000D01*
X117410585Y-73360000D02*
X117410585Y-81220000D01*
X125200585Y-81160000D02*
X125200585Y-73420000D01*
X119900585Y-81160000D02*
X125200585Y-81160000D01*
X117410585Y-81220000D02*
X127690585Y-81220000D01*
X127690585Y-81220000D02*
X127690585Y-73360000D01*
X125200585Y-73420000D02*
X123550585Y-73420000D01*
X121550585Y-73420000D02*
G75*
G03*
X123550585Y-73420000I1000000J0D01*
G01*
%TO.C,SW3*%
X70480585Y-45480000D02*
X67880585Y-45480000D01*
X70480585Y-48140000D02*
X67880585Y-48140000D01*
X70480585Y-45480000D02*
X70480585Y-48140000D01*
X73080585Y-46810000D02*
X73080585Y-48140000D01*
X73080585Y-48140000D02*
X71750585Y-48140000D01*
X67880585Y-45480000D02*
X67880585Y-48140000D01*
%TO.C,J6*%
X79611418Y-44285000D02*
G75*
G03*
X79611418Y-44285000I-1500833J0D01*
G01*
%TO.C,J5*%
X79611418Y-51905000D02*
G75*
G03*
X79611418Y-51905000I-1500833J0D01*
G01*
%TO.C,J4*%
X105011418Y-43015000D02*
G75*
G03*
X105011418Y-43015000I-1500833J0D01*
G01*
%TO.C,J3*%
X105011418Y-35395000D02*
G75*
G03*
X105011418Y-35395000I-1500833J0D01*
G01*
%TO.C,J2*%
X64371418Y-63335000D02*
G75*
G03*
X64371418Y-63335000I-1500833J0D01*
G01*
%TO.C,J1*%
X54211418Y-63335000D02*
G75*
G03*
X54211418Y-63335000I-1500833J0D01*
G01*
%TO.C,D1*%
X70480585Y-70880000D02*
X67880585Y-70880000D01*
X70480585Y-73540000D02*
X67880585Y-73540000D01*
X70480585Y-70880000D02*
X70480585Y-73540000D01*
X73080585Y-72210000D02*
X73080585Y-73540000D01*
X73080585Y-73540000D02*
X71750585Y-73540000D01*
X67880585Y-70880000D02*
X67880585Y-73540000D01*
%TO.C,SW1*%
X70480585Y-55640000D02*
X67880585Y-55640000D01*
X70480585Y-58300000D02*
X67880585Y-58300000D01*
X70480585Y-55640000D02*
X70480585Y-58300000D01*
X73080585Y-56970000D02*
X73080585Y-58300000D01*
X73080585Y-58300000D02*
X71750585Y-58300000D01*
X67880585Y-55640000D02*
X67880585Y-58300000D01*
%TO.C,SW2*%
X70480585Y-50790000D02*
X67880585Y-50790000D01*
X70480585Y-53450000D02*
X67880585Y-53450000D01*
X70480585Y-50790000D02*
X70480585Y-53450000D01*
X73080585Y-52120000D02*
X73080585Y-53450000D01*
X73080585Y-53450000D02*
X71750585Y-53450000D01*
X67880585Y-50790000D02*
X67880585Y-53450000D01*
%TO.C,R11*%
X56280585Y-46810000D02*
X57050585Y-46810000D01*
X64360585Y-46810000D02*
X63590585Y-46810000D01*
X63590585Y-48180000D02*
X63590585Y-45440000D01*
X57050585Y-45440000D02*
X57050585Y-48180000D01*
X63590585Y-45440000D02*
X57050585Y-45440000D01*
X57050585Y-48180000D02*
X63590585Y-48180000D01*
%TO.C,U1*%
X127700585Y-50510000D02*
X117420585Y-50510000D01*
X125210585Y-60850000D02*
X125210585Y-50570000D01*
X125210585Y-50570000D02*
X123560585Y-50570000D01*
X121560585Y-50570000D02*
X119910585Y-50570000D01*
X117420585Y-50510000D02*
X117420585Y-60910000D01*
X119910585Y-50570000D02*
X119910585Y-60850000D01*
X117420585Y-60910000D02*
X127700585Y-60910000D01*
X119910585Y-60850000D02*
X125210585Y-60850000D01*
X127700585Y-60910000D02*
X127700585Y-50510000D01*
X121560585Y-50570000D02*
G75*
G03*
X123560585Y-50570000I1000000J0D01*
G01*
%TO.C,A1*%
X84460585Y-41730000D02*
X81790585Y-41730000D01*
X94750585Y-85040000D02*
X86870585Y-85040000D01*
X99830585Y-82500000D02*
X99830585Y-39060000D01*
X86870585Y-85040000D02*
X86870585Y-74620000D01*
X94750585Y-74620000D02*
X94750585Y-85040000D01*
X99830585Y-82500000D02*
X94750585Y-82500000D01*
X81790585Y-44270000D02*
X81790585Y-82500000D01*
X84460585Y-79830000D02*
X81790585Y-79830000D01*
X97160585Y-41730000D02*
X97160585Y-79830000D01*
X84460585Y-44270000D02*
X84460585Y-41730000D01*
X97160585Y-79830000D02*
X99830585Y-79830000D01*
X97160585Y-41730000D02*
X99830585Y-41730000D01*
X84460585Y-44270000D02*
X81790585Y-44270000D01*
X99830585Y-39060000D02*
X81790585Y-39060000D01*
X81790585Y-82500000D02*
X86870585Y-82500000D01*
X81790585Y-39060000D02*
X81790585Y-41730000D01*
X86870585Y-74620000D02*
X94750585Y-74620000D01*
X84460585Y-44270000D02*
X84460585Y-79830000D01*
%TO.C,J8*%
X117470585Y-46810000D02*
X117470585Y-39190000D01*
X107310585Y-39190000D02*
X107310585Y-46810000D01*
X107310585Y-40460000D02*
X117470585Y-40460000D01*
X117470585Y-39190000D02*
X107310585Y-39190000D01*
X107310585Y-46810000D02*
X117470585Y-46810000D01*
%TO.C,R12*%
X56280585Y-72210000D02*
X57050585Y-72210000D01*
X64360585Y-72210000D02*
X63590585Y-72210000D01*
X63590585Y-73580000D02*
X63590585Y-70840000D01*
X57050585Y-70840000D02*
X57050585Y-73580000D01*
X63590585Y-70840000D02*
X57050585Y-70840000D01*
X57050585Y-73580000D02*
X63590585Y-73580000D01*
%TO.C,R2*%
X113890585Y-59510000D02*
X113120585Y-59510000D01*
X105810585Y-59510000D02*
X106580585Y-59510000D01*
X106580585Y-58140000D02*
X106580585Y-60880000D01*
X113120585Y-60880000D02*
X113120585Y-58140000D01*
X106580585Y-60880000D02*
X113120585Y-60880000D01*
X113120585Y-58140000D02*
X106580585Y-58140000D01*
%TO.C,R4*%
X139290585Y-56970000D02*
X138520585Y-56970000D01*
X131210585Y-56970000D02*
X131980585Y-56970000D01*
X131980585Y-55600000D02*
X131980585Y-58340000D01*
X138520585Y-58340000D02*
X138520585Y-55600000D01*
X131980585Y-58340000D02*
X138520585Y-58340000D01*
X138520585Y-55600000D02*
X131980585Y-55600000D01*
%TO.C,R1*%
X113890585Y-54430000D02*
X113120585Y-54430000D01*
X105810585Y-54430000D02*
X106580585Y-54430000D01*
X106580585Y-53060000D02*
X106580585Y-55800000D01*
X113120585Y-55800000D02*
X113120585Y-53060000D01*
X106580585Y-55800000D02*
X113120585Y-55800000D01*
X113120585Y-53060000D02*
X106580585Y-53060000D01*
%TO.C,R5*%
X105800585Y-77275000D02*
X106570585Y-77275000D01*
X113880585Y-77275000D02*
X113110585Y-77275000D01*
X113110585Y-78645000D02*
X113110585Y-75905000D01*
X106570585Y-75905000D02*
X106570585Y-78645000D01*
X113110585Y-75905000D02*
X106570585Y-75905000D01*
X106570585Y-78645000D02*
X113110585Y-78645000D01*
%TO.C,R9*%
X56280585Y-56970000D02*
X57050585Y-56970000D01*
X64360585Y-56970000D02*
X63590585Y-56970000D01*
X63590585Y-58340000D02*
X63590585Y-55600000D01*
X57050585Y-55600000D02*
X57050585Y-58340000D01*
X63590585Y-55600000D02*
X57050585Y-55600000D01*
X57050585Y-58340000D02*
X63590585Y-58340000D01*
%TO.C,R8*%
X139290585Y-69670000D02*
X138520585Y-69670000D01*
X131210585Y-69670000D02*
X131980585Y-69670000D01*
X131980585Y-68300000D02*
X131980585Y-71040000D01*
X138520585Y-71040000D02*
X138520585Y-68300000D01*
X131980585Y-71040000D02*
X138520585Y-71040000D01*
X138520585Y-68300000D02*
X131980585Y-68300000D01*
%TO.C,R6*%
X105810585Y-67130000D02*
X106580585Y-67130000D01*
X113890585Y-67130000D02*
X113120585Y-67130000D01*
X113120585Y-68500000D02*
X113120585Y-65760000D01*
X106580585Y-65760000D02*
X106580585Y-68500000D01*
X113120585Y-65760000D02*
X106580585Y-65760000D01*
X106580585Y-68500000D02*
X113120585Y-68500000D01*
%TO.C,J7*%
X131440585Y-46810000D02*
X131440585Y-39190000D01*
X121280585Y-39190000D02*
X121280585Y-46810000D01*
X121280585Y-40460000D02*
X131440585Y-40460000D01*
X131440585Y-39190000D02*
X121280585Y-39190000D01*
X121280585Y-46810000D02*
X131440585Y-46810000D01*
%TO.C,R7*%
X139280585Y-79815000D02*
X138510585Y-79815000D01*
X131200585Y-79815000D02*
X131970585Y-79815000D01*
X131970585Y-78445000D02*
X131970585Y-81185000D01*
X138510585Y-81185000D02*
X138510585Y-78445000D01*
X131970585Y-81185000D02*
X138510585Y-81185000D01*
X138510585Y-78445000D02*
X131970585Y-78445000D01*
%TO.C,R3*%
X139290585Y-50620000D02*
X138520585Y-50620000D01*
X131210585Y-50620000D02*
X131980585Y-50620000D01*
X131980585Y-49250000D02*
X131980585Y-51990000D01*
X138520585Y-51990000D02*
X138520585Y-49250000D01*
X131980585Y-51990000D02*
X138520585Y-51990000D01*
X138520585Y-49250000D02*
X131980585Y-49250000D01*
%TO.C,R10*%
X56280585Y-52120000D02*
X57050585Y-52120000D01*
X64360585Y-52120000D02*
X63590585Y-52120000D01*
X63590585Y-53490000D02*
X63590585Y-50750000D01*
X57050585Y-50750000D02*
X57050585Y-53490000D01*
X63590585Y-50750000D02*
X57050585Y-50750000D01*
X57050585Y-53490000D02*
X63590585Y-53490000D01*
%TO.C,U2*%
X65340585Y-77290000D02*
X65340585Y-75960000D01*
X78160585Y-78620000D02*
X78160585Y-75960000D01*
X67940585Y-78620000D02*
X67940585Y-75960000D01*
X67940585Y-78620000D02*
X78160585Y-78620000D01*
X67940585Y-75960000D02*
X78160585Y-75960000D01*
X65340585Y-75960000D02*
X66670585Y-75960000D01*
%TO.C,U5*%
X73080585Y-67130000D02*
X73080585Y-68460000D01*
X70480585Y-68460000D02*
X65340585Y-68460000D01*
X70480585Y-65800000D02*
X65340585Y-65800000D01*
X70480585Y-65800000D02*
X70480585Y-68460000D01*
X73080585Y-68460000D02*
X71750585Y-68460000D01*
X65340585Y-65800000D02*
X65340585Y-68460000D01*
%TD*%
M02*
