%TF.GenerationSoftware,KiCad,Pcbnew,7.0.9*%
%TF.CreationDate,2024-01-17T18:54:20-05:00*%
%TF.ProjectId,ContadorElectronico,436f6e74-6164-46f7-9245-6c656374726f,rev?*%
%TF.SameCoordinates,Original*%
%TF.FileFunction,Copper,L2,Bot*%
%TF.FilePolarity,Positive*%
%FSLAX46Y46*%
G04 Gerber Fmt 4.6, Leading zero omitted, Abs format (unit mm)*
G04 Created by KiCad (PCBNEW 7.0.9) date 2024-01-17 18:54:20*
%MOMM*%
%LPD*%
G01*
G04 APERTURE LIST*
%TA.AperFunction,ComponentPad*%
%ADD10R,1.600000X1.600000*%
%TD*%
%TA.AperFunction,ComponentPad*%
%ADD11O,1.600000X1.600000*%
%TD*%
%TA.AperFunction,ComponentPad*%
%ADD12R,1.700000X1.700000*%
%TD*%
%TA.AperFunction,ComponentPad*%
%ADD13O,1.700000X1.700000*%
%TD*%
%TA.AperFunction,ComponentPad*%
%ADD14C,2.400000*%
%TD*%
%TA.AperFunction,ComponentPad*%
%ADD15C,1.600000*%
%TD*%
%TA.AperFunction,ComponentPad*%
%ADD16R,3.000000X3.000000*%
%TD*%
%TA.AperFunction,ComponentPad*%
%ADD17C,3.000000*%
%TD*%
%TA.AperFunction,Conductor*%
%ADD18C,0.800000*%
%TD*%
G04 APERTURE END LIST*
D10*
%TO.P,U4,1*%
%TO.N,Net-(U1-Pad7)*%
X118750585Y-64605000D03*
D11*
%TO.P,U4,2*%
%TO.N,Net-(R6-Pad1)*%
X118750585Y-67145000D03*
%TO.P,U4,3,NC*%
%TO.N,unconnected-(U4-NC-Pad3)*%
X118750585Y-69685000D03*
%TO.P,U4,4*%
%TO.N,/RESET*%
X126370585Y-69685000D03*
%TO.P,U4,5*%
%TO.N,+5V*%
X126370585Y-67145000D03*
%TO.P,U4,6*%
%TO.N,unconnected-(U4-Pad6)*%
X126370585Y-64605000D03*
%TD*%
D10*
%TO.P,U3,1*%
%TO.N,Net-(U1-Pad1)*%
X118740585Y-74750000D03*
D11*
%TO.P,U3,2*%
%TO.N,Net-(R5-Pad1)*%
X118740585Y-77290000D03*
%TO.P,U3,3,NC*%
%TO.N,unconnected-(U3-NC-Pad3)*%
X118740585Y-79830000D03*
%TO.P,U3,4*%
%TO.N,/COUNT*%
X126360585Y-79830000D03*
%TO.P,U3,5*%
%TO.N,+5V*%
X126360585Y-77290000D03*
%TO.P,U3,6*%
%TO.N,unconnected-(U3-Pad6)*%
X126360585Y-74750000D03*
%TD*%
D12*
%TO.P,SW3,1,1*%
%TO.N,+5V*%
X71750585Y-46810000D03*
D13*
%TO.P,SW3,2,2*%
%TO.N,/DEC*%
X69210585Y-46810000D03*
%TD*%
D14*
%TO.P,J6,1,Pin_1*%
%TO.N,+5V*%
X78110585Y-44285000D03*
%TD*%
%TO.P,J5,1,Pin_1*%
%TO.N,+5V*%
X78110585Y-51905000D03*
%TD*%
%TO.P,J4,1,Pin_1*%
%TO.N,+9V*%
X103510585Y-43015000D03*
%TD*%
%TO.P,J3,1,Pin_1*%
%TO.N,+9V*%
X103510585Y-35395000D03*
%TD*%
%TO.P,J2,1,Pin_1*%
%TO.N,+9V*%
X62870585Y-63335000D03*
%TD*%
%TO.P,J1,1,Pin_1*%
%TO.N,+9V*%
X52710585Y-63335000D03*
%TD*%
D12*
%TO.P,D1,1,K*%
%TO.N,/MODE_LED*%
X71750585Y-72210000D03*
D13*
%TO.P,D1,2,A*%
%TO.N,Net-(D1-A)*%
X69210585Y-72210000D03*
%TD*%
D12*
%TO.P,SW1,1,1*%
%TO.N,+5V*%
X71750585Y-56970000D03*
D13*
%TO.P,SW1,2,2*%
%TO.N,/MODE*%
X69210585Y-56970000D03*
%TD*%
D12*
%TO.P,SW2,1,1*%
%TO.N,+5V*%
X71750585Y-52120000D03*
D13*
%TO.P,SW2,2,2*%
%TO.N,/INC*%
X69210585Y-52120000D03*
%TD*%
D15*
%TO.P,R11,1*%
%TO.N,/DEC*%
X65400585Y-46810000D03*
D11*
%TO.P,R11,2*%
%TO.N,GND*%
X55240585Y-46810000D03*
%TD*%
D10*
%TO.P,U1,1*%
%TO.N,Net-(U1-Pad1)*%
X118750585Y-51900000D03*
D11*
%TO.P,U1,2,-*%
%TO.N,Net-(U1A--)*%
X118750585Y-54440000D03*
%TO.P,U1,3,+*%
%TO.N,/COUNT_IN*%
X118750585Y-56980000D03*
%TO.P,U1,4,V-*%
%TO.N,GND*%
X118750585Y-59520000D03*
%TO.P,U1,5,+*%
%TO.N,/RESET_IN*%
X126370585Y-59520000D03*
%TO.P,U1,6,-*%
%TO.N,Net-(U1B--)*%
X126370585Y-56980000D03*
%TO.P,U1,7*%
%TO.N,Net-(U1-Pad7)*%
X126370585Y-54440000D03*
%TO.P,U1,8,V+*%
%TO.N,+5V*%
X126370585Y-51900000D03*
%TD*%
D10*
%TO.P,A1,1,D1/TX*%
%TO.N,unconnected-(A1-D1{slash}TX-Pad1)*%
X83190585Y-43000000D03*
D11*
%TO.P,A1,2,D0/RX*%
%TO.N,unconnected-(A1-D0{slash}RX-Pad2)*%
X83190585Y-45540000D03*
%TO.P,A1,3,~{RESET}*%
%TO.N,unconnected-(A1-~{RESET}-Pad3)*%
X83190585Y-48080000D03*
%TO.P,A1,4,GND*%
%TO.N,GND*%
X83190585Y-50620000D03*
%TO.P,A1,5,D2*%
%TO.N,/COUNT*%
X83190585Y-53160000D03*
%TO.P,A1,6,D3*%
%TO.N,/RESET*%
X83190585Y-55700000D03*
%TO.P,A1,7,D4*%
%TO.N,/MODE*%
X83190585Y-58240000D03*
%TO.P,A1,8,D5*%
%TO.N,/INC*%
X83190585Y-60780000D03*
%TO.P,A1,9,D6*%
%TO.N,/DEC*%
X83190585Y-63320000D03*
%TO.P,A1,10,D7*%
%TO.N,/RELAY*%
X83190585Y-65860000D03*
%TO.P,A1,11,D8*%
%TO.N,/MODE_LED*%
X83190585Y-68400000D03*
%TO.P,A1,12,D9*%
%TO.N,Net-(A1-D9)*%
X83190585Y-70940000D03*
%TO.P,A1,13,D10*%
%TO.N,Net-(A1-D10)*%
X83190585Y-73480000D03*
%TO.P,A1,14,D11*%
%TO.N,Net-(A1-D11)*%
X83190585Y-76020000D03*
%TO.P,A1,15,D12*%
%TO.N,unconnected-(A1-D12-Pad15)*%
X83190585Y-78560000D03*
%TO.P,A1,16,D13*%
%TO.N,unconnected-(A1-D13-Pad16)*%
X98430585Y-78560000D03*
%TO.P,A1,17,3V3*%
%TO.N,unconnected-(A1-3V3-Pad17)*%
X98430585Y-76020000D03*
%TO.P,A1,18,AREF*%
%TO.N,unconnected-(A1-AREF-Pad18)*%
X98430585Y-73480000D03*
%TO.P,A1,19,A0*%
%TO.N,unconnected-(A1-A0-Pad19)*%
X98430585Y-70940000D03*
%TO.P,A1,20,A1*%
%TO.N,unconnected-(A1-A1-Pad20)*%
X98430585Y-68400000D03*
%TO.P,A1,21,A2*%
%TO.N,unconnected-(A1-A2-Pad21)*%
X98430585Y-65860000D03*
%TO.P,A1,22,A3*%
%TO.N,unconnected-(A1-A3-Pad22)*%
X98430585Y-63320000D03*
%TO.P,A1,23,A4*%
%TO.N,unconnected-(A1-A4-Pad23)*%
X98430585Y-60780000D03*
%TO.P,A1,24,A5*%
%TO.N,unconnected-(A1-A5-Pad24)*%
X98430585Y-58240000D03*
%TO.P,A1,25,A6*%
%TO.N,unconnected-(A1-A6-Pad25)*%
X98430585Y-55700000D03*
%TO.P,A1,26,A7*%
%TO.N,unconnected-(A1-A7-Pad26)*%
X98430585Y-53160000D03*
%TO.P,A1,27,+5V*%
%TO.N,+5V*%
X98430585Y-50620000D03*
%TO.P,A1,28,~{RESET}*%
%TO.N,unconnected-(A1-~{RESET}-Pad28)*%
X98430585Y-48080000D03*
%TO.P,A1,29,GND*%
%TO.N,GND*%
X98430585Y-45540000D03*
%TO.P,A1,30,VIN*%
%TO.N,+9V*%
X98430585Y-43000000D03*
%TD*%
D16*
%TO.P,J8,1,Pin_1*%
%TO.N,+9V*%
X114930585Y-43000000D03*
D17*
%TO.P,J8,2,Pin_2*%
%TO.N,GND*%
X109850585Y-43000000D03*
%TD*%
D15*
%TO.P,R12,1*%
%TO.N,Net-(D1-A)*%
X65400585Y-72210000D03*
D11*
%TO.P,R12,2*%
%TO.N,GND*%
X55240585Y-72210000D03*
%TD*%
D15*
%TO.P,R2,1*%
%TO.N,Net-(U1A--)*%
X104770585Y-59510000D03*
D11*
%TO.P,R2,2*%
%TO.N,GND*%
X114930585Y-59510000D03*
%TD*%
D15*
%TO.P,R4,1*%
%TO.N,Net-(U1B--)*%
X130170585Y-56970000D03*
D11*
%TO.P,R4,2*%
%TO.N,GND*%
X140330585Y-56970000D03*
%TD*%
D15*
%TO.P,R1,1*%
%TO.N,+5V*%
X104770585Y-54430000D03*
D11*
%TO.P,R1,2*%
%TO.N,Net-(U1A--)*%
X114930585Y-54430000D03*
%TD*%
D15*
%TO.P,R5,1*%
%TO.N,Net-(R5-Pad1)*%
X114920585Y-77275000D03*
D11*
%TO.P,R5,2*%
%TO.N,GND*%
X104760585Y-77275000D03*
%TD*%
D15*
%TO.P,R9,1*%
%TO.N,/MODE*%
X65400585Y-56970000D03*
D11*
%TO.P,R9,2*%
%TO.N,GND*%
X55240585Y-56970000D03*
%TD*%
D15*
%TO.P,R8,1*%
%TO.N,/RESET*%
X130170585Y-69670000D03*
D11*
%TO.P,R8,2*%
%TO.N,GND*%
X140330585Y-69670000D03*
%TD*%
D15*
%TO.P,R6,1*%
%TO.N,Net-(R6-Pad1)*%
X114930585Y-67130000D03*
D11*
%TO.P,R6,2*%
%TO.N,GND*%
X104770585Y-67130000D03*
%TD*%
D16*
%TO.P,J7,1,Pin_1*%
%TO.N,/RESET_IN*%
X128900585Y-43000000D03*
D17*
%TO.P,J7,2,Pin_2*%
%TO.N,/COUNT_IN*%
X123820585Y-43000000D03*
%TD*%
D15*
%TO.P,R7,1*%
%TO.N,/COUNT*%
X130160585Y-79815000D03*
D11*
%TO.P,R7,2*%
%TO.N,GND*%
X140320585Y-79815000D03*
%TD*%
D15*
%TO.P,R3,1*%
%TO.N,+5V*%
X130170585Y-50620000D03*
D11*
%TO.P,R3,2*%
%TO.N,Net-(U1B--)*%
X140330585Y-50620000D03*
%TD*%
D15*
%TO.P,R10,1*%
%TO.N,/INC*%
X65400585Y-52120000D03*
D11*
%TO.P,R10,2*%
%TO.N,GND*%
X55240585Y-52120000D03*
%TD*%
D13*
%TO.P,U2,5,LOAD*%
%TO.N,Net-(A1-D11)*%
X76830585Y-77290000D03*
%TO.P,U2,4,SCLK*%
%TO.N,Net-(A1-D10)*%
X74290585Y-77290000D03*
%TO.P,U2,3,SDI*%
%TO.N,Net-(A1-D9)*%
X71750585Y-77290000D03*
%TO.P,U2,2,GND*%
%TO.N,GND*%
X69210585Y-77290000D03*
D12*
%TO.P,U2,1,VCC*%
%TO.N,+5V*%
X66670585Y-77290000D03*
%TD*%
%TO.P,U5,1,IN*%
%TO.N,/RELAY*%
X71750585Y-67130000D03*
D13*
%TO.P,U5,2,GND*%
%TO.N,GND*%
X69210585Y-67130000D03*
%TO.P,U5,3,VCC*%
%TO.N,+9V*%
X66670585Y-67130000D03*
%TD*%
D18*
%TO.N,/RESET_IN*%
X130729063Y-59520000D02*
X126370585Y-59520000D01*
X141051171Y-53160000D02*
X137089063Y-53160000D01*
X142130585Y-52080586D02*
X141051171Y-53160000D01*
X130170585Y-46810000D02*
X140330585Y-46810000D01*
X137089063Y-53160000D02*
X130729063Y-59520000D01*
X128900585Y-45540000D02*
X130170585Y-46810000D01*
X142130585Y-48610000D02*
X142130585Y-52080586D01*
X128900585Y-43000000D02*
X128900585Y-45540000D01*
X140330585Y-46810000D02*
X142130585Y-48610000D01*
%TO.N,/RESET*%
X84845585Y-55700000D02*
X83190585Y-55700000D01*
X92080585Y-62935000D02*
X84845585Y-55700000D01*
X92080585Y-79935000D02*
X92080585Y-62935000D01*
X95295585Y-83150000D02*
X92080585Y-79935000D01*
X129371170Y-83150000D02*
X95295585Y-83150000D01*
X131960585Y-80560585D02*
X129371170Y-83150000D01*
X131860585Y-75175000D02*
X131860585Y-78969415D01*
X131960585Y-79069415D02*
X131960585Y-80560585D01*
X130170585Y-69670000D02*
X130170585Y-73485000D01*
X130170585Y-73485000D02*
X131860585Y-75175000D01*
X131860585Y-78969415D02*
X131960585Y-79069415D01*
%TO.N,/COUNT*%
X88305585Y-53160000D02*
X83190585Y-53160000D01*
X93985585Y-77840000D02*
X93985585Y-58840000D01*
X93985585Y-58840000D02*
X88305585Y-53160000D01*
X97895585Y-81750000D02*
X93985585Y-77840000D01*
X126360585Y-79830000D02*
X124440585Y-81750000D01*
X124440585Y-81750000D02*
X97895585Y-81750000D01*
%TO.N,GND*%
X136295585Y-37700000D02*
X71850585Y-37700000D01*
X142870585Y-56970000D02*
X145410585Y-54430000D01*
X140330585Y-56970000D02*
X142870585Y-56970000D01*
X145410585Y-54430000D02*
X145410585Y-46815000D01*
X145410585Y-46815000D02*
X136295585Y-37700000D01*
X71850585Y-37700000D02*
X66680585Y-42870000D01*
X104158085Y-56337500D02*
X104170585Y-56350000D01*
X102970585Y-65330000D02*
X102970585Y-57525000D01*
X104770585Y-67130000D02*
X102970585Y-65330000D01*
X102970585Y-57525000D02*
X104158085Y-56337500D01*
X104170585Y-56350000D02*
X107310585Y-56350000D01*
X107310585Y-56350000D02*
X107310585Y-55725000D01*
X107310585Y-58245000D02*
X107310585Y-56350000D01*
X114930585Y-59510000D02*
X108575585Y-59510000D01*
X108575585Y-59510000D02*
X107310585Y-58245000D01*
X107310585Y-55725000D02*
X107310585Y-45540000D01*
%TO.N,Net-(U1B--)*%
X135910585Y-50620000D02*
X140330585Y-50620000D01*
X130170585Y-56360000D02*
X135910585Y-50620000D01*
X130170585Y-56970000D02*
X130170585Y-56360000D01*
%TO.N,GND*%
X74935585Y-46825000D02*
X74935585Y-44285000D01*
X76205585Y-48095000D02*
X74935585Y-46825000D01*
X74935585Y-44285000D02*
X73520585Y-42870000D01*
X79063085Y-48095000D02*
X76205585Y-48095000D01*
X83190585Y-50620000D02*
X81588085Y-50620000D01*
X81588085Y-50620000D02*
X79063085Y-48095000D01*
X73520585Y-42870000D02*
X66680585Y-42870000D01*
%TO.N,+5V*%
X71750585Y-56970000D02*
X73045585Y-56970000D01*
X73045585Y-56970000D02*
X78110585Y-51905000D01*
X98420292Y-40464707D02*
X81930878Y-40464707D01*
X81930878Y-40464707D02*
X78110585Y-44285000D01*
X98420292Y-40464707D02*
X96630585Y-42254415D01*
X99785000Y-39100000D02*
X98420292Y-40464707D01*
%TO.N,GND*%
X66680585Y-42870000D02*
X59180585Y-42870000D01*
%TO.N,Net-(U1A--)*%
X119411170Y-61405000D02*
X106665585Y-61405000D01*
X106665585Y-61405000D02*
X104770585Y-59510000D01*
X120550585Y-55108630D02*
X120550585Y-60265585D01*
X120550585Y-60265585D02*
X119411170Y-61405000D01*
X119881955Y-54440000D02*
X120550585Y-55108630D01*
X118750585Y-54440000D02*
X119881955Y-54440000D01*
%TO.N,Net-(U1-Pad1)*%
X120550585Y-62805000D02*
X116710000Y-62805000D01*
X116710000Y-62805000D02*
X113130585Y-66384415D01*
X113130585Y-69140000D02*
X118740585Y-74750000D01*
X122430585Y-53980000D02*
X122430585Y-60925000D01*
X122430585Y-60925000D02*
X120550585Y-62805000D01*
X120350585Y-51900000D02*
X122430585Y-53980000D01*
X113130585Y-66384415D02*
X113130585Y-69140000D01*
X118750585Y-51900000D02*
X120350585Y-51900000D01*
%TO.N,Net-(U1-Pad7)*%
X122560585Y-64605000D02*
X118750585Y-64605000D01*
X123830585Y-63335000D02*
X122560585Y-64605000D01*
X125239215Y-54440000D02*
X123830585Y-55848630D01*
X126370585Y-54440000D02*
X125239215Y-54440000D01*
X123830585Y-55848630D02*
X123830585Y-63335000D01*
%TO.N,+9V*%
X103510585Y-43015000D02*
X103510585Y-40500000D01*
X103510585Y-40500000D02*
X100930585Y-40500000D01*
X106050585Y-40500000D02*
X103510585Y-40500000D01*
X112430585Y-40500000D02*
X106050585Y-40500000D01*
X62870585Y-65314899D02*
X62870585Y-63335000D01*
X66670585Y-67130000D02*
X64685686Y-67130000D01*
X64685686Y-67130000D02*
X62870585Y-65314899D01*
X64110000Y-35395000D02*
X103510585Y-35395000D01*
X52710585Y-46794415D02*
X64110000Y-35395000D01*
X52710585Y-63335000D02*
X52710585Y-46794415D01*
%TO.N,+5V*%
X124655585Y-75590000D02*
X123830585Y-74765000D01*
X124660585Y-75590000D02*
X124655585Y-75590000D01*
X123830585Y-69685000D02*
X123830585Y-74765000D01*
X126370585Y-67145000D02*
X123830585Y-69685000D01*
X126360585Y-77290000D02*
X124660585Y-75590000D01*
%TO.N,/MODE*%
X73440585Y-59380000D02*
X74580585Y-58240000D01*
X70350585Y-59380000D02*
X73440585Y-59380000D01*
X69210585Y-58240000D02*
X70350585Y-59380000D01*
X69210585Y-56970000D02*
X69210585Y-58240000D01*
X74580585Y-58240000D02*
X83190585Y-58240000D01*
%TO.N,/INC*%
X63600585Y-53920000D02*
X65400585Y-52120000D01*
X66665000Y-60780000D02*
X63600585Y-57715585D01*
X63600585Y-57715585D02*
X63600585Y-53920000D01*
X83190585Y-60780000D02*
X66665000Y-60780000D01*
%TO.N,GND*%
X69210585Y-68332081D02*
X69210585Y-67130000D01*
X62860585Y-73482793D02*
X62860585Y-70937207D01*
X62860585Y-70937207D02*
X64127792Y-69670000D01*
X64127792Y-74750000D02*
X62860585Y-73482793D01*
X69210585Y-76087919D02*
X67872666Y-74750000D01*
X67872666Y-74750000D02*
X64127792Y-74750000D01*
X67872666Y-69670000D02*
X69210585Y-68332081D01*
X69210585Y-77290000D02*
X69210585Y-76087919D01*
X64127792Y-69670000D02*
X67872666Y-69670000D01*
%TO.N,+5V*%
X130155585Y-67145000D02*
X126370585Y-67145000D01*
X131440585Y-65860000D02*
X130155585Y-67145000D01*
X131440585Y-62050000D02*
X131440585Y-65860000D01*
X138320585Y-55170000D02*
X131440585Y-62050000D01*
X141576069Y-55170000D02*
X138320585Y-55170000D01*
X143856346Y-47795761D02*
X143856346Y-52889723D01*
X135160585Y-39100000D02*
X143856346Y-47795761D01*
X122550585Y-39100000D02*
X135160585Y-39100000D01*
X122550585Y-39100000D02*
X99785000Y-39100000D01*
X123456119Y-39100000D02*
X122550585Y-39100000D01*
X143856346Y-52889723D02*
X141576069Y-55170000D01*
X98425000Y-50620000D02*
X98430585Y-50620000D01*
X126320585Y-41964466D02*
X123456119Y-39100000D01*
X96630585Y-48825585D02*
X98425000Y-50620000D01*
X126320585Y-47840000D02*
X126320585Y-41964466D01*
X96630585Y-42254415D02*
X96630585Y-48825585D01*
X126220585Y-47940000D02*
X126320585Y-47840000D01*
X126370585Y-51900000D02*
X126370585Y-50610000D01*
X127630585Y-49350000D02*
X126220585Y-47940000D01*
X126370585Y-50610000D02*
X127630585Y-49350000D01*
X128900585Y-50620000D02*
X127630585Y-49350000D01*
X130170585Y-50620000D02*
X128900585Y-50620000D01*
%TO.N,GND*%
X59180585Y-42870000D02*
X55240585Y-46810000D01*
%TO.N,+5V*%
X100960585Y-50620000D02*
X98430585Y-50620000D01*
X104770585Y-54430000D02*
X100960585Y-50620000D01*
%TO.N,GND*%
X98430585Y-45540000D02*
X107310585Y-45540000D01*
X107310585Y-45540000D02*
X109850585Y-43000000D01*
%TO.N,+9V*%
X114930585Y-43000000D02*
X112430585Y-40500000D01*
X100930585Y-40500000D02*
X98430585Y-43000000D01*
%TO.N,/COUNT_IN*%
X122550585Y-46810000D02*
X117889265Y-46810000D01*
X123820585Y-45540000D02*
X122550585Y-46810000D01*
X123820585Y-43000000D02*
X123820585Y-45540000D01*
X117889265Y-46810000D02*
X113130585Y-51568680D01*
X114935000Y-56980000D02*
X118750585Y-56980000D01*
X113130585Y-55175585D02*
X114935000Y-56980000D01*
X113130585Y-51568680D02*
X113130585Y-55175585D01*
%TO.N,GND*%
X69210585Y-78492081D02*
X69210585Y-77290000D01*
X62170585Y-79140000D02*
X68562666Y-79140000D01*
X55240585Y-72210000D02*
X62170585Y-79140000D01*
X68562666Y-79140000D02*
X69210585Y-78492081D01*
%TO.N,+5V*%
X71750585Y-45160000D02*
X71750585Y-46810000D01*
X70860585Y-44270000D02*
X71750585Y-45160000D01*
X59050585Y-73480000D02*
X59050585Y-46810000D01*
X61590585Y-44270000D02*
X70860585Y-44270000D01*
X62860585Y-77290000D02*
X59050585Y-73480000D01*
X66670585Y-77290000D02*
X62860585Y-77290000D01*
X59050585Y-46810000D02*
X61590585Y-44270000D01*
%TO.N,/RELAY*%
X73020585Y-65860000D02*
X83190585Y-65860000D01*
X71750585Y-67130000D02*
X73020585Y-65860000D01*
%TO.N,/MODE_LED*%
X75560585Y-68400000D02*
X83190585Y-68400000D01*
X71750585Y-72210000D02*
X75560585Y-68400000D01*
%TO.N,GND*%
X55240585Y-72210000D02*
X55240585Y-56970000D01*
%TO.N,Net-(A1-D9)*%
X78100585Y-70940000D02*
X71750585Y-77290000D01*
%TO.N,Net-(A1-D10)*%
X78100585Y-73480000D02*
X74290585Y-77290000D01*
%TO.N,Net-(A1-D11)*%
X78100585Y-76020000D02*
X76830585Y-77290000D01*
%TO.N,/DEC*%
X62200585Y-50010000D02*
X65400585Y-46810000D01*
X67225102Y-63320000D02*
X62200585Y-58295483D01*
X83190585Y-63320000D02*
X67225102Y-63320000D01*
X62200585Y-58295483D02*
X62200585Y-50010000D01*
%TO.N,/MODE*%
X65400585Y-56970000D02*
X69210585Y-56970000D01*
%TO.N,Net-(D1-A)*%
X65400585Y-72210000D02*
X69210585Y-72210000D01*
%TO.N,+5V*%
X71750585Y-52120000D02*
X71750585Y-46810000D01*
X71750585Y-56970000D02*
X71750585Y-52120000D01*
%TO.N,GND*%
X55240585Y-52120000D02*
X55240585Y-56970000D01*
X55240585Y-46810000D02*
X55240585Y-52120000D01*
%TO.N,/DEC*%
X65400585Y-46810000D02*
X69210585Y-46810000D01*
%TO.N,/INC*%
X65400585Y-52120000D02*
X69210585Y-52120000D01*
%TO.N,Net-(A1-D9)*%
X78100585Y-70940000D02*
X83190585Y-70940000D01*
%TO.N,Net-(A1-D10)*%
X78100585Y-73480000D02*
X83190585Y-73480000D01*
%TO.N,Net-(A1-D11)*%
X78100585Y-76020000D02*
X83190585Y-76020000D01*
%TO.N,GND*%
X104760585Y-77275000D02*
X104760585Y-67140000D01*
X104760585Y-67140000D02*
X104770585Y-67130000D01*
X140330585Y-69670000D02*
X140330585Y-56970000D01*
X140320585Y-69680000D02*
X140330585Y-69670000D01*
X140320585Y-79815000D02*
X140320585Y-69680000D01*
X118740585Y-59510000D02*
X118750585Y-59520000D01*
X114930585Y-59510000D02*
X118740585Y-59510000D01*
%TO.N,Net-(U1B--)*%
X126370585Y-56980000D02*
X130160585Y-56980000D01*
%TO.N,/RESET*%
X126370585Y-69685000D02*
X130155585Y-69685000D01*
%TO.N,/COUNT*%
X130145585Y-79830000D02*
X130160585Y-79815000D01*
X126360585Y-79830000D02*
X130145585Y-79830000D01*
%TO.N,Net-(R5-Pad1)*%
X114920585Y-77275000D02*
X118725585Y-77275000D01*
%TO.N,Net-(R6-Pad1)*%
X114930585Y-67130000D02*
X118735585Y-67130000D01*
%TO.N,Net-(U1A--)*%
X118750585Y-54440000D02*
X114940585Y-54440000D01*
%TD*%
M02*
