M48
; DRILL file {KiCad 7.0.9} date Wed Jan 17 18:54:24 2024
; FORMAT={-:-/ absolute / metric / decimal}
; #@! TF.CreationDate,2024-01-17T18:54:24-05:00
; #@! TF.GenerationSoftware,Kicad,Pcbnew,7.0.9
; #@! TF.FileFunction,MixedPlating,1,2
FMAT,2
METRIC
; #@! TA.AperFunction,Plated,PTH,ComponentDrill
T1C0.800
; #@! TA.AperFunction,Plated,PTH,ComponentDrill
T2C1.000
; #@! TA.AperFunction,Plated,PTH,ComponentDrill
T3C1.200
; #@! TA.AperFunction,Plated,PTH,ComponentDrill
T4C1.520
; #@! TA.AperFunction,NonPlated,NPTH,ComponentDrill
T5C3.200
%
G90
G05
T1
X55.241Y-46.81
X55.241Y-52.12
X55.241Y-56.97
X55.241Y-72.21
X65.401Y-46.81
X65.401Y-52.12
X65.401Y-56.97
X65.401Y-72.21
X104.761Y-77.275
X104.771Y-54.43
X104.771Y-59.51
X104.771Y-67.13
X114.921Y-77.275
X114.931Y-54.43
X114.931Y-59.51
X114.931Y-67.13
X118.741Y-74.75
X118.741Y-77.29
X118.741Y-79.83
X118.751Y-51.9
X118.751Y-54.44
X118.751Y-56.98
X118.751Y-59.52
X118.751Y-64.605
X118.751Y-67.145
X118.751Y-69.685
X126.361Y-74.75
X126.361Y-77.29
X126.361Y-79.83
X126.371Y-51.9
X126.371Y-54.44
X126.371Y-56.98
X126.371Y-59.52
X126.371Y-64.605
X126.371Y-67.145
X126.371Y-69.685
X130.161Y-79.815
X130.171Y-50.62
X130.171Y-56.97
X130.171Y-69.67
X140.321Y-79.815
X140.331Y-50.62
X140.331Y-56.97
X140.331Y-69.67
T2
X66.671Y-67.13
X66.671Y-77.29
X69.211Y-46.81
X69.211Y-52.12
X69.211Y-56.97
X69.211Y-67.13
X69.211Y-72.21
X69.211Y-77.29
X71.751Y-46.81
X71.751Y-52.12
X71.751Y-56.97
X71.751Y-67.13
X71.751Y-72.21
X71.751Y-77.29
X74.291Y-77.29
X76.831Y-77.29
X83.191Y-43.0
X83.191Y-45.54
X83.191Y-48.08
X83.191Y-50.62
X83.191Y-53.16
X83.191Y-55.7
X83.191Y-58.24
X83.191Y-60.78
X83.191Y-63.32
X83.191Y-65.86
X83.191Y-68.4
X83.191Y-70.94
X83.191Y-73.48
X83.191Y-76.02
X83.191Y-78.56
X98.431Y-43.0
X98.431Y-45.54
X98.431Y-48.08
X98.431Y-50.62
X98.431Y-53.16
X98.431Y-55.7
X98.431Y-58.24
X98.431Y-60.78
X98.431Y-63.32
X98.431Y-65.86
X98.431Y-68.4
X98.431Y-70.94
X98.431Y-73.48
X98.431Y-76.02
X98.431Y-78.56
T3
X52.711Y-63.335
X62.871Y-63.335
X78.111Y-44.285
X78.111Y-51.905
X103.511Y-35.395
X103.511Y-43.015
T4
X109.851Y-43.0
X114.931Y-43.0
X123.821Y-43.0
X128.901Y-43.0
T5
X54.751Y-37.605
X54.751Y-79.605
X142.751Y-37.605
T0
M30
